Music_MilosCatacombs:
	channelcount 4
	channel 1, Music_MilosCatacombs_Ch1
	channel 2, Music_MilosCatacombs_Ch2
	channel 3, Music_MilosCatacombs_Ch3
	channel 4, Music_MilosCatacombs_Ch4

Music_MilosCatacombs_Ch1:
	tempo $E4
	volume $77
	stereopanning $f
	dutycycle 2
	tone $0001
Music_MilosCatacombs_Ch1_loop:
	octave 5
	notetype $C, $A1
	note F_, 1
	intensity $20
	note F_, 1
	intensity $A1
	note C#, 1
	intensity $20
	note C#, 1
	intensity $A1
	octave 4
	note A#, 1
	intensity $20
	note A#, 1
	intensity $A1
	note F#, 1
	intensity $20
	note F#, 1
	intensity $A1
	octave 5
	note F_, 1
	intensity $20
	note F_, 1
	intensity $A1
	note C#, 1
	intensity $20
	note C#, 1
	intensity $A1
	octave 4
	note A#, 1
	intensity $20
	note A#, 1
	intensity $A1
	note F#, 1
	intensity $20
	note F#, 1
	intensity $A1
	octave 5
	note D#, 1
	intensity $20
	note D#, 1
	intensity $A1
	note C_, 1
	intensity $20
	note C_, 1
	intensity $A1
	octave 4
	note G#, 1
	intensity $20
	note G#, 1
	intensity $A1
	note F_, 1
	intensity $20
	note F_, 1
	intensity $A1
	octave 5
	note D#, 1
	intensity $20
	note D#, 1
	intensity $A1
	note C_, 1
	intensity $20
	note C_, 1
	intensity $A1
	octave 4
	note G#, 1
	intensity $20
	note G#, 1
	intensity $A1
	note F_, 1
	intensity $20
	note F_, 1
	jumpchannel Music_MilosCatacombs_Ch1_loop

Music_MilosCatacombs_Ch2:
	dutycycle 0
	stereopanning $f0
	notetype $C, $A1
	note __, 16
	note __, 16
	note __, 16
	note __, 16
	note __, 4
	octave 4
	note F_, 2
	intensity $61
	note F_, 2
	intensity $A1
	note D#, 2
	intensity $61
	note D#, 2
	intensity $A1
	note A#, 2
	intensity $61
	note A#, 2
	intensity $A1
	note G#, 2
	intensity $61
	note G#, 2
	note G#, 2
	note G#, 2
	intensity $A1
	note F_, 2
	intensity $61
	note F_, 2
	intensity $A1
	note D#, 2
	intensity $61
	note D#, 2
	note __, 4
	intensity $A1
	note F_, 2
	intensity $61
	note F_, 2
	intensity $A1
	note D#, 2
	intensity $61
	note D#, 2
	intensity $A1
	note A#, 2
	intensity $61
	note A#, 2
	intensity $A1
	octave 5
	note C_, 2
	intensity $61
	note C_, 2
	note C_, 2
	note C_, 2
	intensity $A1
	octave 4
	note G#, 2
	intensity $61
	note G#, 2
	note G#, 2
	note G#, 2
	note __, 4
	intensity $A1
	note F_, 2
	intensity $61
	note F_, 2
	intensity $A1
	note D#, 2
	intensity $61
	note D#, 2
	intensity $A1
	note A#, 2
	intensity $61
	note A#, 2
	intensity $A1
	note G#, 2
	intensity $61
	note G#, 2
	note G#, 2
	note G#, 2
	intensity $A1
	note F_, 2
	intensity $61
	note F_, 2
	intensity $A1
	note D#, 2
	intensity $61
	note D#, 2
	note __, 4
	intensity $A1
	note F_, 2
	intensity $61
	note F_, 2
	intensity $A1
	note D#, 2
	intensity $61
	note D#, 2
	intensity $A1
	note A#, 2
	intensity $61
	note A#, 2
	intensity $A1
	octave 5
	note C_, 2
	intensity $61
	note C_, 2
	note C_, 2
	note C_, 2
	intensity $A1
	octave 4
	note G#, 2
	intensity $61
	note G#, 2
	note G#, 2
	note G#, 2
	dutycycle 1
	intensity $C1
	note F_, 1
	note D#, 1
	note C#, 1
	octave 3
	note A#, 1
	note F#, 1
	note __, 1
	dutycycle 2
	intensity $91
	octave 4
	note F_, 1
	note D#, 1
	note C#, 1
	octave 3
	note A#, 1
	note F#, 1
	note __, 5
	dutycycle 1
	intensity $C1
	note D#, 1
	note F_, 1
	note G#, 1
	octave 4
	note C_, 1
	note D#, 1
	note __, 1
	dutycycle 2
	intensity $91
	octave 3
	note D#, 1
	note F_, 1
	note G#, 1
	octave 4
	note C_, 1
	note D#, 1
	note __, 5
	dutycycle 1
	intensity $C1
	note F_, 1
	note D#, 1
	note C#, 1
	octave 3
	note A#, 1
	note F#, 1
	note __, 1
	dutycycle 2
	intensity $91
	octave 4
	note F_, 1
	note D#, 1
	note C#, 1
	octave 3
	note A#, 1
	note F#, 1
	note __, 5
	dutycycle 1
	intensity $C1
	note D#, 1
	note F_, 1
	note G#, 1
	octave 4
	note C_, 1
	note G#, 1
	note __, 1
	dutycycle 2
	intensity $91
	octave 3
	note D#, 1
	note F_, 1
	note G#, 1
	octave 4
	note C_, 1
	note G#, 1
	note __, 5
	note F_, 1
	note D#, 1
	note C#, 1
	octave 3
	note A#, 1
	note F#, 1
	note __, 1
	dutycycle 1
	intensity $C1
	octave 4
	note F_, 1
	note D#, 1
	note C#, 1
	octave 3
	note A#, 1
	note F#, 1
	note __, 5
	dutycycle 2
	intensity $91
	note D#, 1
	note F_, 1
	note G#, 1
	octave 4
	note C_, 1
	note D#, 1
	note __, 1
	dutycycle 1
	intensity $C1
	octave 3
	note D#, 1
	note F_, 1
	note G#, 1
	octave 4
	note C_, 1
	note D#, 1
	note __, 5
	dutycycle 2
	intensity $91
	note F_, 1
	note D#, 1
	note C#, 1
	octave 3
	note A#, 1
	note F#, 1
	note __, 1
	dutycycle 1
	intensity $C1
	octave 4
	note F_, 1
	note D#, 1
	note C#, 1
	octave 3
	note A#, 1
	note F#, 1
	note __, 5
	dutycycle 2
	intensity $91
	note D#, 1
	note F_, 1
	note G#, 1
	octave 4
	note C_, 1
	note G#, 1
	note __, 1
	dutycycle 1
	intensity $C1
	octave 3
	note D#, 1
	note F_, 1
	note G#, 1
	octave 4
	note C_, 1
	note G#, 1
	note __, 5
	jumpchannel Music_MilosCatacombs_Ch2

Music_MilosCatacombs_Ch3:
	vibrato $00, $24
	octave 1
	notetype $C, $11
	note A#, 4
	dutycycle 4
	intensity $24
	vibrato $04, $24
	octave 3
	note A#, 4
	octave 4
	note F_, 4
	note C#, 4
	note D#, 16
	octave 1
	note A#, 4
	octave 3
	note A#, 4
	octave 4
	note F_, 4
	note C#, 4
	note C_, 16
	jumpchannel Music_MilosCatacombs_Ch3

Music_MilosCatacombs_Ch4:
	togglenoise 3
Music_MilosCatacombs_Ch4_loop:
	notetype $C
	note D#, 4
	note C#, 4
	note D_, 4
	note __, 4
	jumpchannel Music_MilosCatacombs_Ch4_loop

