Music_LibRocket_1:
	note D#, 1
	note __, 1
	note D_, 1
	note __, 1
	note C#, 1
	note __, 1
	note C_, 1
	note __, 3
	octave 2
	note F_, 1
	note G#, 1
	note B_, 1
	octave 3
	note D_, 1
	note F_, 1
	note G#, 1
	endchannel

Music_LibRocket_2:
	dutycycle $1
	intensity $a8
	note __, 2
	octave 3
	note D#, 1
	note __, 5
	note D#, 4
	octave 2
	note A_, 2
	octave 3
	note D#, 1
	note F_, 1
	note F#, 6
	note D#, 1
	note __, 3
	note F#, 1
	note __, 1
	note D#, 1
	note __, 1
	octave 4
	note F#, 1
	note __, 1
	endchannel

Music_LibRocket_3:
	octave 3
	note __, 2
	note G_, 1
	note __, 5
	note A_, 8
	note A#, 6
	note A_, 1
	note __, 3
	note A#, 1
	note __, 1
	note A_, 1
	note __, 1
	endchannel

Music_LibRocket_4:
	octave 4
	note F#, 1
	note __, 3
	intensity $53
	octave 2
	note B_, 1
	note __, 7
	octave 3
	note C_, 1
	note __, 7
	intensity $c3
	octave 2
	note B_, 1
	note __, 7
	octave 3
	note C_, 1
	note __, 7
	intensity $e3
	octave 2
	note B_, 1
	note __, 7
	octave 3
	note C_, 1
	note __, 5
	note __, 16
	endchannel

Music_LibRocket_5:
	note D#, 1
	note __, 1
	note D_, 1
	note __, 1
	note C#, 1
	note __, 1
	note C_, 1
	note __, 3
	octave 3
	note B_, 6
	dutycycle $0
	endchannel

Music_LibRocket_6:
	octave 5
	note C_, 1
	note __, 3
	octave 4
	note D#, 1
	note __, 5
	note F_, 4
	note C_, 1
	note D_, 1
	note D#, 1
	note F_, 1
	note F#, 6
	note D#, 1
	note __, 3
	note F#, 1
	note __, 1
	note D#, 1
	note __, 1
	octave 5
	note D#, 1
	note __, 3
	octave 3
	intensity $53
	note F_, 1
	note __, 7
	note F#, 1
	note __, 7
	intensity $c3
	note F_, 1
	note __, 7
	note F#, 1
	note __, 7
	intensity $e3
	note F_, 1
	note __, 7
	note F#, 1
	note __, 5
	intensity $63
	note G#, 1
	note F_, 1
	note D_, 1
	octave 2
	note B_, 1
	intensity $a3
	octave 3
	note A_, 1
	note F#, 1
	note D#, 1
	note C_, 1
	intensity $c3
	note A#, 1
	note G_, 1
	note E_, 1
	note C#, 1
	intensity $f3
	note B_, 1
	note G#, 1
	note F_, 1
	note D_, 1
	endchannel

Music_LibRocket_7:
	octave 3
	note F_, 1
	note __, 1
	note G#, 1
	note __, 1
	octave 4
	note C_, 1
	note __, 1
	note D_, 1
	note __, 3
	octave 3
	note D_, 6
	endchannel

Music_LibRocket_8:
	note C_, 1
	note __, 1
	octave 4
	note C_, 1
	note __, 1
	octave 3
	note C_, 1
	note __, 1
	note C_, 1
	note __, 1
	octave 4
	note C_, 1
	note __, 1
	octave 3
	note C_, 1
	note __, 1
	note D#, 1
	note __, 1
	note G_, 1
	note __, 1
	rept 6
		note C_, 1
		note __, 1
	endr
	note F#, 1
	note __, 1
	note A_, 1
	note __, 1
	loopchannel 2, Music_LibRocket_8
	endchannel

Music_LibRocket_9_WithIntensity:
	intensity $24
Music_LibRocket_9:
	octave 2
	note G#, 1
	note __, 1
	octave 3
	note G#, 1
	note __, 1
	octave 2
	note G#, 1
	note __, 1
	note G#, 1
	note __, 1
	note A_, 1
	note __, 1
	octave 3
	note A_, 1
	note __, 1
	note G#, 1
	note F#, 1
	note D#, 1
	note C_, 1
	endchannel

Music_LibRocket_10_WithIntensity:
	intensity $14
Music_LibRocket_10:
	octave 2
	note G#, 1
	note __, 1
	octave 3
	note G#, 1
	note __, 1
	octave 2
	note G#, 1
	note __, 1
	note G#, 1
	note __, 1
	note A_, 1
	note __, 1
	octave 3
	note A_, 1
	note __, 1
	note C_, 1
	note __, 1
	note F#, 1
	note __, 1
	endchannel

Music_LibRocket_11:
	intensity $24
	octave 2
	note G#, 1
	note __, 1
	octave 3
	note F_, 1
	note __, 1
	octave 2
	note A_, 1
	note __, 1
	octave 3
	note F#, 1
	note __, 1
	intensity $14
	octave 2
	note A#, 1
	note __, 1
	octave 3
	note G_, 1
	note __, 1
	octave 2
	note B_, 1
	note __, 1
	octave 3
	note G#, 1
	note __, 1
	endchannel

Music_LibRocket_NoiseA:
	note C_, 8
	note D_, 2
	note D#, 2
	note C#, 1
	note C#, 1
	note D_, 1
	note D_, 1
	endchannel

Music_LibRocket_NoiseB:
	note D#, 2
	note F#, 2
	note D_, 2
	note F#, 2
	note D#, 2
	note F#, 2
	note D_, 2
	note F#, 2
	endchannel
