Music_KindleRoad:
	channelcount 4
	channel 1, Music_KindleRoad_Ch1
	channel 2, Music_KindleRoad_Ch2
	channel 3, Music_KindleRoad_Ch3
	channel 4, Music_KindleRoad_Ch4

Music_KindleRoad_Ch1:
	tempo $98
	volume $77
	dutycycle 1
	vibrato $04, $10
	octave 1
	notetype $C, $A5
	note G_, 1
	note A#, 1
	note B_, 4
	note A_, 4
	note G_, 1
	note __, 1
	notetype $E, $A5
	note G_, 3
	notetype $6, $A5
	note __, 1
	note G_, 1
	note __, 1
	note G_, 1
	note __, 1
	note G_, 2
	note __, 2
	note G_, 2
	note __, 2
	note G_, 8
	note G_, 2
	note __, 2
	note G_, 7
	note __, 1
	note G_, 1
	note __, 1
	note G_, 1
	note __, 1
	note G_, 2
	note __, 2
	note G_, 2
	note __, 2
	note G_, 8
Music_KindleRoad_Ch1_loop:
	note E_, 2
	note __, 2
	note G_, 8
	note E_, 2
	note E_, 2
	note E_, 2
	note __, 2
	note E_, 2
	note __, 2
	note G_, 8
	note E_, 2
	note __, 2
	note G_, 8
	note E_, 2
	note E_, 2
	note E_, 2
	note __, 2
	note E_, 2
	note __, 2
	note G_, 4
	note A_, 4
	note F_, 2
	note __, 2
	note A#, 8
	note F_, 2
	note F_, 2
	note F_, 2
	note __, 2
	note F_, 2
	note __, 2
	note A#, 8
	note F_, 2
	note __, 2
	note A#, 8
	note F_, 2
	note F_, 2
	note F_, 2
	note __, 2
	note F_, 2
	note __, 2
	note A#, 4
	note F_, 4
	note E_, 2
	note __, 2
	note G_, 8
	note E_, 2
	note E_, 2
	note E_, 2
	note __, 2
	note E_, 2
	note __, 2
	note G_, 8
	note E_, 2
	note __, 2
	note G_, 8
	note E_, 2
	note E_, 2
	note E_, 2
	note __, 2
	note E_, 2
	note __, 2
	note G_, 4
	note A_, 4
	note F_, 2
	note __, 2
	note A#, 8
	note F_, 2
	note F_, 2
	note F_, 2
	note __, 2
	note F_, 2
	note __, 2
	note A#, 8
	note F_, 2
	note __, 2
	note A#, 8
	note F_, 2
	note F_, 2
	note F_, 2
	note __, 2
	note F_, 2
	note __, 2
	note A#, 4
	note A_, 4
	note G_, 2
	note __, 2
	octave 2
	note C_, 8
	octave 1
	note G_, 2
	note G_, 2
	note G_, 2
	note __, 2
	note G_, 2
	note __, 2
	octave 2
	note C_, 8
	octave 1
	note G_, 2
	note __, 2
	octave 2
	note D_, 8
	octave 1
	note G_, 2
	note G_, 2
	note G_, 2
	note __, 2
	note G_, 2
	note __, 2
	octave 2
	note D_, 8
	octave 1
	note F_, 2
	note __, 2
	octave 2
	note C_, 8
	octave 1
	note F_, 2
	note F_, 2
	note F_, 2
	note __, 2
	note F_, 2
	note __, 2
	octave 2
	note C_, 8
	octave 1
	note F_, 2
	note __, 2
	note A_, 8
	note F_, 2
	note F_, 2
	note F_, 2
	note __, 2
	note F_, 2
	note __, 2
	note A_, 8
	note G_, 2
	note __, 2
	octave 2
	note C_, 8
	octave 1
	note G_, 2
	note G_, 2
	note G_, 2
	note __, 2
	note G_, 2
	note __, 2
	octave 2
	note C_, 8
	octave 1
	note G_, 2
	note __, 2
	octave 2
	note D_, 8
	octave 1
	note G_, 2
	note G_, 2
	note G_, 2
	note __, 2
	note G_, 2
	note __, 2
	octave 2
	note D_, 8
	octave 1
	note F_, 2
	note __, 2
	octave 2
	note C_, 8
	octave 1
	note F_, 2
	note F_, 2
	note F_, 2
	note __, 2
	note F_, 2
	note __, 2
	octave 2
	note C_, 8
	octave 1
	note F_, 2
	note __, 2
	note A_, 8
	note F_, 2
	note F_, 2
	note F_, 2
	note __, 2
	note F_, 2
	note __, 2
	note A_, 8
	jumpchannel Music_KindleRoad_Ch1_loop

Music_KindleRoad_Ch2:
	dutycycle 3
	stereopanning $f
	vibrato $06, $34
	octave 3
	notetype $C, $B5
	note E_, 1
	note F#, 1
	note G_, 6
	note F_, 1
	note G_, 1
	note E_, 1
	dutycycle 2
	intensity $51
	octave 4
	note C_, 1
	note D_, 1
	octave 3
	note G_, 1
	octave 2
	note G_, 1
	octave 4
	note C_, 1
	octave 3
	note G_, 1
	octave 4
	note D_, 1
	note C_, 1
	octave 3
	note G_, 1
	octave 2
	note G_, 1
	octave 3
	note G_, 1
	octave 4
	note C_, 1
	note D_, 1
	octave 3
	note G_, 1
	octave 2
	note G_, 1
	octave 4
	note C_, 1
	octave 3
	note G_, 1
	octave 4
	note D_, 1
	note C_, 1
	octave 3
	note G_, 1
	octave 2
	note G_, 1
	octave 3
	note G_, 1
	octave 4
	note C_, 1
	note D_, 1
	octave 3
	note G_, 1
	octave 2
	note G_, 1
	octave 4
	note C_, 1
	octave 3
	note G_, 1
	octave 4
	note D_, 1
	note C_, 1
	octave 3
	note G_, 1
	dutycycle 1
Music_KindleRoad_Ch2_loop:
	notetype $C, $B5
	note E_, 6
	note D_, 1
	note E_, 1
	note C_, 4
	note E_, 4
	note C_, 6
	note D_, 1
	note E_, 1
	note F_, 2
	note G_, 2
	note G_, 2
	note A_, 2
	intensity $A7
	note A#, 6
	note A_, 1
	note A#, 1
	note F_, 8
	note D_, 8
	note F_, 8
	intensity $B5
	note E_, 6
	note D_, 1
	note E_, 1
	note C_, 4
	note E_, 4
	note C_, 6
	note D_, 1
	note E_, 1
	note F_, 2
	note G_, 2
	note G_, 2
	note A_, 2
	intensity $A7
	note A#, 8
	note A#, 8
	note D_, 8
	note F_, 8
	intensity $B5
	note E_, 4
	note E_, 2
	note F_, 2
	note G_, 4
	note F_, 2
	note E_, 2
	note B_, 2
	octave 2
	note G_, 4
	octave 3
	note B_, 8
	note A_, 2
	notetype $8, $C3
	note A_, 4
	note F_, 4
	note A_, 4
	intensity $4F
	note A_, 12
	intensity $90
	note F_, 12
	note D_, 12
	intensity $B5
	note E_, 6
	note E_, 3
	note F_, 3
	note G_, 6
	note F_, 3
	note E_, 3
	note B_, 3
	octave 2
	note G_, 6
	octave 3
	note B_, 12
	note A_, 3
	intensity $C3
	note A_, 4
	note F_, 4
	note A_, 4
	intensity $4F
	note A_, 12
	intensity $90
	note F_, 12
	note G_, 12
	jumpchannel Music_KindleRoad_Ch2_loop

Music_KindleRoad_Ch3:
	stereopanning $f0
	dutycycle 8
	vibrato $0A, $24
	octave 4
	notetype $C, $18
	note G_, 1
	note A#, 1
	note B_, 6
	note A_, 1
	note B_, 1
	octave 5
	note C_, 1
	note __, 16
	note __, 7
	dutycycle 2
	intensity $12
	octave 4
	note C_, 1
	note E_, 1
	note G_, 1
	octave 5
	note C_, 1
	octave 4
	note G_, 1
	octave 5
	note C_, 1
	note E_, 1
	note G_, 1
Music_KindleRoad_Ch3_loop:
	note C_, 6
	octave 4
	note G_, 1
	octave 5
	note C_, 1
	note E_, 8
	note __, 2
	octave 4
	note G_, 2
	octave 5
	note C_, 2
	note G_, 2
	note F_, 2
	note E_, 2
	note D_, 2
	note C_, 2
	note D_, 8
	note F_, 8
	octave 4
	note A#, 8
	note A_, 8
	octave 5
	note C_, 6
	octave 4
	note G_, 1
	octave 5
	note C_, 1
	note E_, 8
	note __, 2
	octave 4
	note G_, 2
	octave 5
	note C_, 2
	note G_, 2
	note F_, 2
	note E_, 2
	note D_, 2
	note C_, 2
	note D_, 6
	octave 4
	note A#, 1
	octave 5
	note D_, 1
	note F_, 8
	octave 4
	note A#, 6
	note A_, 1
	note A#, 1
	octave 5
	note D_, 2
	note F_, 4
	note C_, 1
	note D_, 1
	note E_, 2
	note D_, 2
	note E_, 2
	note C_, 6
	note __, 2
	octave 4
	note B_, 1
	octave 5
	note C_, 1
	note D_, 2
	octave 4
	note G_, 4
	octave 5
	note G_, 8
	note F_, 1
	note E_, 1
	notetype $8, $12
	note F_, 4
	note E_, 4
	note C_, 4
	note C_, 12
	octave 4
	note A_, 9
	notetype $C, $12
	note G_, 1
	note A_, 1
	note B_, 2
	octave 5
	note D_, 4
	note C_, 1
	note D_, 1
	note E_, 2
	note D_, 2
	note E_, 2
	note C_, 6
	note __, 2
	octave 4
	note B_, 1
	octave 5
	note C_, 1
	note D_, 2
	octave 4
	note G_, 4
	octave 5
	note G_, 8
	note F_, 1
	note E_, 1
	notetype $8, $12
	note F_, 4
	note E_, 4
	note C_, 4
	note C_, 12
	note C_, 9
	octave 4
	notetype $C, $12
	note B_, 1
	octave 5
	note C_, 1
	note D_, 2
	note G_, 4
	notetype $6, $12
	note E_, 1
	note D#, 1
	note D_, 1
	note C#, 1
	notetype $C, $12
	jumpchannel Music_KindleRoad_Ch3_loop

Music_KindleRoad_Ch4:
	togglenoise 1
	notetype $6
	note B_, 1
	note B_, 1
	note A#, 1
	note A#, 1
	note A_, 8
	note B_, 1
	note B_, 1
	note B_, 1
	note B_, 1
	note A#, 1
	note B_, 1
	note A#, 1
	note A#, 1
	note A_, 12
	note A_, 2
	note A#, 2
	note A_, 4
	note A_, 4
	note B_, 1
	note B_, 1
	note B_, 1
	note B_, 1
	note A#, 1
	note A#, 1
	note A#, 1
	note A#, 1
	note A_, 12
	note A_, 2
	note A#, 2
	note A_, 4
	note A#, 4
	note A_, 4
	note B_, 1
	note B_, 1
	note A#, 1
	note A#, 1
Music_KindleRoad_Ch4_loop:
	note A_, 12
	note A_, 2
	note A#, 2
	note A_, 4
	note A_, 4
	note B_, 1
	note B_, 1
	note B_, 1
	note B_, 1
	note A#, 1
	note A#, 1
	note A#, 1
	note A#, 1
	note A_, 12
	note A_, 2
	note A_, 2
	note A_, 4
	note A_, 8
	note B_, 1
	note B_, 1
	note A#, 1
	note A#, 1
	note A_, 12
	note A_, 2
	note A#, 2
	note A_, 4
	note A_, 10
	note B_, 1
	note B_, 1
	note A_, 12
	note A_, 2
	note B_, 2
	note A_, 4
	note A_, 4
	note B_, 1
	note B_, 1
	note B_, 1
	note B_, 1
	note A#, 1
	note B_, 1
	note A#, 1
	note A#, 1
	note A_, 12
	note A_, 2
	note A_, 2
	note A_, 4
	note A_, 8
	note B_, 1
	note B_, 1
	note A#, 1
	note A#, 1
	note A_, 12
	note A_, 2
	note A_, 2
	note A_, 4
	note A_, 10
	note B_, 1
	note B_, 1
	note A_, 12
	note A_, 2
	note A_, 2
	note A_, 4
	note A_, 8
	note B_, 1
	note B_, 1
	note A#, 1
	note A#, 1
	note A_, 12
	note A_, 2
	note A_, 2
	note A_, 4
	note A_, 4
	note B_, 1
	note B_, 1
	note B_, 1
	note B_, 1
	note A#, 1
	note A#, 1
	note A#, 1
	note A#, 1
	note A_, 12
	note A_, 2
	note A_, 2
	note A_, 4
	note A_, 10
	note B_, 1
	note B_, 1
	note A_, 12
	note A_, 2
	note A_, 2
	note A_, 4
	note A_, 8
	note A#, 1
	note B_, 1
	note A#, 1
	note B_, 1
	note A_, 12
	note A_, 2
	note A_, 2
	note A_, 4
	note A_, 8
	note B_, 1
	note B_, 1
	note A#, 1
	note A#, 1
	note A_, 12
	note A_, 2
	note A_, 2
	note A_, 4
	note A_, 4
	note B_, 1
	note B_, 1
	note B_, 1
	note B_, 1
	note A#, 1
	note A#, 1
	note A#, 1
	note A#, 1
	note A_, 12
	note A_, 2
	note A_, 2
	note A_, 4
	note A_, 10
	note B_, 1
	note B_, 1
	note A_, 12
	note A_, 2
	note A_, 2
	note A_, 4
	note A_, 8
	note A#, 1
	note B_, 1
	note A#, 1
	note B_, 1
	note A_, 12
	note A_, 2
	note A_, 2
	note A_, 4
	note A_, 8
	note B_, 1
	note B_, 1
	note A#, 1
	note A#, 1
	note A_, 12
	note A_, 2
	note A_, 2
	note A_, 4
	note A_, 4
	note B_, 1
	note B_, 1
	note B_, 1
	note B_, 1
	note A#, 1
	note A#, 1
	note A#, 1
	note A#, 1
	jumpchannel Music_KindleRoad_Ch4_loop
