Music_Route216:
	channelcount 4
	channel 1, Music_Route216_Ch1
	channel 2, Music_Route216_Ch2
	channel 3, Music_Route216_Ch3
	channel 4, Music_Route216_Ch4

Music_Route216_Ch1:
	tempo 192
	volume $77
	notetype $c, $a6
	dutycycle 1
	stereopanning $f0
	tone $0001
	octave 2
	note __, 16
	note __, 12
.repeat
	note D_, 2
	octave 3
	note E_, 16
	note __, 14
	octave 2
	loopchannel 2, .repeat
	note D_, 2
	octave 3
	note D_, 16
	note __, 14
	octave 2
	note C_, 2
	octave 3
	note D_, 16
	notetype $6, $b2
	note __, 1
	callchannel Music_Route216_Common_1
	callchannel .sub1
	callchannel Music_Route216_Common_2
	callchannel .sub1
	callchannel Music_Route216_Common_3
	intensity $a6
	octave 2
	note D_, 4
	octave 3
	note D_, 16
	note __, 16
	note __, 1
	callchannel Music_Route216_Common_4
	notetype $c, $a7
	octave 2
	note C_, 2
	octave 3
	note D_, 10
	note D_, 4
	note E_, 4
.loop
	notetype $10, $a7
	note F#, 3
	note D_, 3
	note E_, 3
	note A_, 3
	note G_, 6
	note D_, 6
	note A_, 3
	note E_, 3
	note G_, 3
	intensity $a4
	note F#, 15
	notetype $8, $a7
	note F#, 3
	note D_, 3
	note E_, 2
	note F#, 1
	note D_, 2
	octave 2
	note A_, 7
	octave 3
	note A_, 6
	note G_, 12
	note D_, 12
	note A_, 3
	note F#, 3
	note G_, 2
	note A_, 1
	note F#, 2
	note D_, 7
	notetype $10, $a4
	octave 4
	note D_, 15
	intensity $a7
	octave 3
	note F#, 8
	notetype $4, $a7
	note __, 2
	note G_, 1
	note G#, 1
	note A_, 6
	note G#, 2
	note G_, 2
	note F#, 2
	note F_, 9
	note D_, 9
	note G#, 1
	note A_, 11
	note D_, 6
	note A_, 6
	note B_, 1
	octave 4
	note C_, 5
	notetype $c, $a7
	octave 3
	note B_, 12
	note D_, 2
	note E_, 2
	note F_, 2
	note G_, 2
	note A_, 2
	note G_, 6
	note F#, 2
	note G_, 2
	dutycycle 0
	notetype $8, $a2
	note A_, 2
	note D_, 1
	note E_, 2
	note F#, 1
	intensity $82
	note A_, 2
	note D_, 1
	note E_, 2
	note F#, 1
	intensity $62
	note A_, 2
	note D_, 1
	note E_, 2
	note F#, 1
	intensity $42
	note A_, 2
	note D_, 1
	note E_, 2
	note F#, 1
	intensity $a2
	note A_, 2
	note D_, 1
	note F_, 2
	note A_, 1
	intensity $82
	note A_, 2
	note D_, 1
	note F_, 2
	note A_, 1
	intensity $62
	note A_, 2
	note D_, 1
	note F_, 2
	note A_, 1
	intensity $42
	note A_, 2
	note D_, 1
	note F_, 2
	note A_, 1
	intensity $a2
	note B_, 2
	note D_, 1
	note G_, 2
	note B_, 1
	intensity $82
	note B_, 2
	note D_, 1
	note G_, 2
	note B_, 1
	intensity $62
	note B_, 2
	note D_, 1
	note G_, 2
	note B_, 1
	intensity $42
	note B_, 2
	note D_, 1
	note G_, 2
	note B_, 1
	intensity $a2
	octave 4
	note C_, 2
	octave 3
	note C_, 1
	note G_, 2
	octave 4
	note C_, 1
	intensity $82
	note C_, 2
	octave 3
	note C_, 1
	note G_, 2
	octave 4
	note C_, 1
	intensity $62
	note C_, 2
	octave 3
	note C_, 1
	note G_, 2
	octave 4
	note C_, 1
	notetype $4, $a7
	dutycycle 1
	octave 3
	note C#, 2
	note D_, 2
	note E_, 2
	note F#, 2
	note G_, 2
	note A_, 2
	note A#, 1
	note B_, 6
	note D_, 5
	callchannel .sub2
	notetype $c, $a7
	note C#, 6
	notetype $4, $a7
	octave 4
	note C_, 1
	note C#, 4
	octave 3
	note A#, 1
	note A_, 4
	note F#, 2
	octave 4
	note D_, 10
	octave 3
	note B_, 6
	note G_, 6
	note F_, 6
	note E_, 2
	note D_, 4
	note E_, 2
	note F_, 4
	note G_, 2
	note A#, 4
	note A_, 2
	note A#, 1
	note B_, 5
	note A_, 6
	note G_, 4
	note A_, 8
	note B_, 4
	octave 4
	note C#, 1
	octave 3
	note B_, 1
	note A_, 6
	note B_, 4
	octave 4
	note C#, 6
	octave 3
	note A_, 14
	callchannel .sub2
	note C#, 6
	octave 4
	note D#, 6
	note F#, 4
	note G_, 6
	note F#, 2
	note F#, 4
	note F_, 2
	note F#, 10
	note E_, 6
	note D_, 6
	octave 3
	note B_, 2
	note B_, 4
	octave 4
	note C#, 1
	octave 3
	note B_, 1
	note G_, 6
	note G_, 6
	note E_, 4
	octave 2
	note A#, 6
	octave 4
	note C#, 6
	octave 3
	note F#, 6
	octave 4
	note D_, 8
	note D_, 4
	octave 3
	note A#, 6
	note G_, 2
	note E_, 4
	octave 2
	note F#, 2
	note G#, 2
	octave 3
	note D_, 2
	note E_, 2
	jumpchannel .loop

.sub1
	intensity $a6
	octave 2
	note D_, 4
	octave 3
	note E_, 16
	note __, 16
	note __, 1
	endchannel

.sub2
	note F#, 1
	note G_, 5
	notetype $c, $a7
	note D_, 6
	notetype $4, $a7
	note F#, 1
	note G_, 3
	note B_, 2
	note A#, 2
	note A_, 2
	note G_, 2
	note F#, 6
	note C#, 6
	note F_, 1
	note F#, 5
	endchannel

Music_Route216_Ch2:
	notetype $6, $b2
	dutycycle 1
	stereopanning $f
	tone $0002
	note __, 13
	note __, 16
	callchannel Music_Route216_Common_1
	intensity $b6
	octave 1
	note D_, 4
	octave 3
	note C#, 16
	note __, 16
	note __, 1
	callchannel Music_Route216_Common_2
	intensity $b6
	octave 1
	note D_, 4
	octave 3
	note C_, 16
	note __, 16
	note __, 1
	callchannel Music_Route216_Common_3
	intensity $b6
	octave 1
	note D_, 4
	octave 2
	note B_, 16
	note __, 16
	note __, 1
	callchannel Music_Route216_Common_4
	notetype $c, $b7
	octave 1
	note C_, 2
	octave 2
	note A#, 16
	notetype $2, $b7
	vibrato $00, $12
	octave 3
	note A_, 7
	note B_, 5
	notetype $6, $b7
	octave 4
	note C_, 1
	note C#, 11
	note C_, 1
	octave 3
	note B_, 1
	note A#, 2
	note A_, 4
	note F#, 6
	note G_, 1
	note G#, 1
	notetype $c, $b7
	note A_, 16
	notetype $6, $b7
	note A_, 1
	note B_, 1
	note A_, 1
	note G_, 1
	note F_, 4
	note A_, 4
	octave 4
	note C_, 4
	note D#, 1
	note E_, 6
	note D#, 1
	note D_, 4
	note C_, 2
	octave 3
	note A_, 2
	note B_, 10
	note A#, 1
	note B_, 1
	octave 4
	note C_, 8
	note D_, 12
	note C_, 1
	note D_, 1
	note C_, 2
	octave 3
	note B_, 4
	note G_, 6
	note F#, 1
	note E_, 1
	note D_, 4
	note F#, 1
	note G_, 7
	notetype $4, $b7
	note C#, 1
	note D_, 5
	notetype $c, $b7
	note G_, 16
	note G_, 1
	note F_, 1
	note D#, 4
	note G_, 3
	notetype $6, $b7
	note B_, 1
	octave 4
	note C_, 1
	note D_, 8
	note C_, 6
	octave 3
	note G_, 1
	note A_, 1
	note A#, 6
	octave 4
	note C_, 1
	octave 3
	note A#, 1
	note A_, 8
	note A#, 8
	notetype $8, $b7
	octave 4
	note C_, 4
	octave 3
	note D_, 1
	note E_, 1
.loop
	dutycycle 2
	vibrato $00, $34
	note F#, 9
	note F_, 1
	note E_, 1
	note D#, 1
	note D_, 12
	callchannel .sub1
	note D_, 6
	note D_, 2
	note F_, 4
	note F_, 2
	note G_, 4
	note F_, 2
	note A_, 4
	note G_, 2
	note A_, 4
	octave 4
	note C_, 2
	callchannel .sub2
	note F_, 3
	note D_, 1
	note F_, 2
	note D_, 1
	note F_, 2
	note D_, 3
	note F_, 1
	note G_, 2
	note A_, 1
	note A#, 3
	intensity $b7
	dutycycle 2
	octave 3
	note A_, 10
	note G#, 1
	note G_, 1
	note F#, 12
	callchannel .sub1
	note A_, 3
	note G_, 1
	note F_, 2
	note D_, 2
	note F_, 4
	note F_, 2
	note G_, 4
	note F_, 2
	note A_, 4
	note G#, 2
	note A_, 4
	octave 4
	note C#, 2
	callchannel .sub2
	note A_, 3
	note D_, 1
	note F_, 2
	note D_, 1
	note G_, 2
	note D_, 3
	note F_, 1
	note G_, 2
	note A_, 1
	note A#, 3
	intensity $b7
	dutycycle 1
	note F#, 16
	note __, 1
	notetype $4, $b7
	note G_, 1
	note G#, 1
	note A_, 6
	note G#, 2
	note G_, 2
	callchannel .sub3
	octave 5
	note C_, 5
	notetype $c, $b7
	octave 4
	note B_, 12
	note D_, 2
	note E_, 2
	note F_, 2
	note G_, 2
	note A_, 2
	note G_, 6
	note F#, 2
	notetype $4, $b7
	note G_, 4
	dutycycle 2
	octave 3
	note F#, 1
	note F_, 1
	note F#, 16
	note __, 16
	note __, 2
	note G_, 1
	note G#, 1
	note A_, 6
	note G_, 4
	callchannel .sub3
	octave 4
	note C_, 5
	notetype $c, $b7
	octave 3
	note B_, 12
	note D_, 2
	note E_, 2
	note F_, 2
	note G_, 2
	note A_, 2
	note G_, 6
	note A_, 2
	note A#, 2
	notetype $4, $b7
	octave 4
	note A#, 1
	note B_, 6
	note D_, 16
	note __, 1
	note E_, 4
	note F#, 1
	note E_, 1
	note C#, 4
	note D_, 2
	octave 3
	note B_, 4
	octave 4
	note C#, 2
	note D_, 4
	note B_, 2
	note A_, 6
	note F_, 1
	note F#, 16
	note __, 1
	note D#, 6
	note F#, 6
	note A_, 4
	note B_, 1
	note A_, 1
	note F#, 4
	note A_, 2
	note G_, 10
	note F#, 6
	note D#, 1
	note E_, 5
	note D_, 8
	octave 3
	note A#, 6
	octave 4
	note D_, 6
	octave 3
	note A#, 6
	octave 4
	note C#, 1
	note D_, 5
	note C#, 6
	octave 3
	note B_, 4
	octave 4
	note C#, 8
	note D_, 4
	note E_, 1
	note D_, 1
	note C#, 6
	note D_, 4
	note E_, 6
	note D_, 2
	note A#, 1
	note B_, 5
	notetype $c, $b7
	note D_, 6
	notetype $4, $b7
	note E_, 4
	note F#, 1
	note E_, 1
	note C#, 4
	note D_, 2
	octave 3
	note B_, 4
	octave 4
	note C#, 2
	note D_, 4
	note B_, 2
	octave 5
	note C#, 6
	notetype $c, $b7
	octave 4
	note A_, 6
	notetype $4, $b7
	note F#, 6
	note A_, 4
	octave 5
	note D_, 6
	note E_, 2
	octave 4
	note B_, 4
	note A#, 2
	note A_, 10
	note G_, 6
	note F#, 8
	note D_, 4
	note E_, 1
	note D_, 1
	octave 3
	note B_, 6
	note A#, 6
	octave 4
	note C#, 10
	note E_, 6
	octave 3
	note A_, 6
	octave 4
	note E_, 8
	note F#, 4
	note D_, 6
	octave 3
	note A#, 2
	note A_, 2
	note B_, 2
	octave 4
	note C#, 2
	note D_, 2
	note D#, 2
	note E_, 2
	octave 3
	notetype $8, $b7
	jumpchannel .loop

.sub1
	notetype $4, $b7
	note E_, 1
	note F_, 5
	note G_, 4
	note F_, 2
	note A_, 4
	endchannel

.sub2
	notetype $8, $b7
	note D_, 10
	note C#, 1
	note C_, 1
	octave 3
	note B_, 12
	intensity $b2
	dutycycle 0
	octave 4
	note F_, 3
	note D_, 2
	endchannel

.sub3
	note F#, 2
	note F_, 9
	note D_, 9
	note G#, 1
	note A_, 11
	note D_, 6
	note A_, 6
	note B_, 1
	endchannel

Music_Route216_Common_1:
	octave 5
	note E_, 1
	note C#, 1
	octave 4
	note A_, 1
	note F#, 5
	intensity $82
	octave 5
	note E_, 1
	note C#, 1
	octave 4
	note A_, 1
	note F#, 5
	intensity $52
	octave 5
	note E_, 1
	note C#, 1
	octave 4
	note A_, 1
	note F#, 8
	endchannel

Music_Route216_Common_2:
	intensity $b2
	octave 5
	note E_, 1
	note C_, 1
	octave 4
	note A_, 1
	note F_, 5
	intensity $82
	octave 5
	note E_, 1
	note C_, 1
	octave 4
	note A_, 1
	note F_, 5
	intensity $52
	octave 5
	note E_, 1
	note C_, 1
	octave 4
	note A_, 1
	note F_, 8
	endchannel

Music_Route216_Common_3:
	intensity $b2
	octave 5
	note D_, 1
	octave 4
	note B_, 1
	note G_, 1
	note D_, 5
	intensity $82
	octave 5
	note D_, 1
	octave 4
	note B_, 1
	note G_, 1
	note D_, 5
	intensity $52
	octave 5
	note D_, 1
	octave 4
	note B_, 1
	note G_, 1
	note D_, 8
	endchannel

Music_Route216_Common_4:
	intensity $b2
	octave 5
	note D_, 1
	octave 4
	note B_, 1
	note G_, 1
	note C_, 5
	intensity $82
	octave 5
	note D_, 1
	octave 4
	note B_, 1
	note G_, 1
	note C_, 5
	intensity $52
	octave 5
	note D_, 1
	octave 4
	note B_, 1
	note G_, 1
	note C_, 8
	endchannel

Music_Route216_Ch3:
	notetype $4, $12
	octave 2
	callchannel .sub1
	note __, 12
	note C_, 3
	note __, 3
	note C_, 6
	octave 1
	note G_, 3
	note __, 3
	octave 2
	note C_, 3
	note __, 3
	note C_, 12
	note __, 12
	note C_, 3
	note __, 3
	note C_, 12
	note C#, 6
	note D_, 12
	note __, 12
	note D_, 3
	note __, 3
	note D_, 6
	callchannel .sub2
	note __, 1
	note C_, 3
	note __, 3
	note C_, 6
	octave 1
	note A#, 3
	note __, 3
	octave 2
	note C_, 3
	note __, 9
	note C_, 6
	note __, 6
	note C_, 6
	octave 1
	note A_, 3
	note __, 3
	octave 2
	note A_, 6
	octave 1
	note A_, 3
	note __, 3
	octave 2
	note G_, 6
.loop
	callchannel .sub3
	octave 1
	note A_, 6
	octave 2
	callchannel .sub3
	note C_, 6
	callchannel .sub3
	callchannel .sub4
	note __, 4
	note C_, 2
	note G_, 6
	loopchannel 2, .loop
	callchannel .sub3
	note C#, 6
	callchannel .sub3
	note C_, 6
	note D_, 4
	note __, 8
	note D_, 2
	note __, 8
	note G_, 1
	callchannel .sub5
	callchannel .sub4
	note C_, 2
	note C#, 8
	note D_, 2
	callchannel .sub6
	note D_, 4
	note __, 2
	octave 1
	note A_, 4
	note __, 2
	octave 2
	note D_, 4
	notetype $1, $12
	note A_, 3
	note __, 5
	notetype $4, $12
	note F#, 4
	note E_, 2
	callchannel .sub6
	note D_, 3
	note __, 3
	note D_, 6
	note __, 4
	note D_, 2
	note C_, 6
	note D_, 6
	note __, 6
	octave 1
	note B_, 2
	note __, 8
	octave 2
	callchannel .sub7
	octave 1
	note B_, 6
	octave 2
	note C_, 4
	note __, 6
	note C_, 2
	octave 1
	note G_, 4
	note __, 6
	octave 2
	note G_, 1
	note __, 1
	note C_, 3
	note __, 3
	note C_, 5
	note __, 1
	octave 1
	note A_, 4
	note __, 6
	octave 2
	note C#, 2
	notetype $1, $12
	callchannel .sub8
	note F_, 7
	notetype $5, $12
	note __, 13
	callchannel .sub9
	note D#, 7
	notetype $3, $12
	note __, 11
	notetype $1, $12
	note F#, 7
	note __, 14
	note D#, 3
	note __, 8
	note E_, 15
	note __, 9
	note E_, 7
	notetype $3, $12
	note __, 11
	note E_, 8
	octave 1
	note A#, 1
	notetype $1, $12
	note __, 5
	note A#, 15
	note __, 9
	note A#, 7
	notetype $5, $12
	note __, 13
	notetype $1, $12
	note A_, 15
	note __, 9
	note A_, 7
	notetype $3, $12
	note __, 11
	notetype $1, $12
	note A_, 11
	note __, 13
	note A_, 3
	note __, 5
	note A_, 11
	note __, 5
	octave 2
	note A_, 3
	note __, 5
	notetype $b, $12
	octave 1
	note A_, 1
	note __, 3
	note A_, 2
	notetype $1, $12
	note __, 7
	octave 2
	callchannel .sub8
	octave 3
	note C#, 3
	note __, 13
	octave 2
	note C#, 3
	note __, 5
	note C#, 7
	note __, 9
	note C#, 3
	note __, 5
	notetype $c, $12
	note C#, 2
	callchannel .sub9
	octave 1
	note B_, 7
	note __, 9
	note B_, 3
	note __, 5
	note B_, 7
	note __, 9
	note B_, 3
	note __, 5
	notetype $c, $12
	note B_, 2
	notetype $1, $12
	note G_, 15
	note __, 9
	note G_, 7
	notetype $3, $12
	note __, 11
	note G_, 8
	note A_, 1
	notetype $1, $12
	note __, 5
	note A_, 15
	note __, 9
	note A_, 7
	note __, 14
	note A#, 15
	note __, 9
	note A_, 16
	octave 2
	note C#, 8
	note __, 2
	note D_, 15
	note __, 9
	note D_, 7
	notetype $3, $12
	note __, 11
	notetype $1, $12
	note D_, 11
	note __, 13
	note D_, 3
	note __, 5
	octave 1
	note G_, 11
	note __, 13
	note G_, 13
	note __, 11
	note A_, 11
	note __, 13
	notetype $4, $12
	note A_, 6
	octave 2
	jumpchannel .loop

.repeat
	note A_, 3
	note __, 3
	octave 2
	note D_, 3
	note __, 3
.sub1
	note D_, 12
	note __, 12
	note D_, 3
	note __, 3
	note D_, 6
	note __, 12
	note D_, 12
	note __, 12
	note D_, 3
	note __, 3
	note D_, 6
.sub2
	octave 1
	loopchannel 3, .repeat
	note B_, 3
	note __, 3
	octave 2
	note D_, 3
	note __, 3
	note D_, 12
	note __, 12
	note D_, 3
	note __, 3
	note D_, 6
	note __, 12
	note C_, 12
	endchannel

.sub3
	note D_, 4
	note __, 8
	note D_, 2
	note __, 8
.sub7
	note A_, 1
.sub5
	note __, 1
	note D_, 3
	note __, 3
	note D_, 6
	note __, 4
	note D_, 2
	endchannel

.sub4
	octave 1
	note B_, 6
	octave 2
	note C_, 4
	note __, 8
	note C_, 2
	note __, 8
	note G_, 1
	note __, 1
	note C_, 3
	note __, 3
	note C_, 6
	endchannel

.sub6
	note D_, 6
	note __, 6
	octave 1
	note A_, 2
	note __, 8
	octave 2
	note A_, 1
	note __, 1
	endchannel

.sub8
	note G_, 15
	note __, 9
	note G_, 7
	notetype $5, $12
	note __, 13
	notetype $1, $12
	note F_, 15
	note __, 9
	endchannel

.sub9
	notetype $1, $12
	note F#, 15
	note __, 9
	note F#, 7
	notetype $5, $12
	note __, 13
	notetype $1, $12
	note D#, 15
	note __, 9
	endchannel

Music_Route216_Ch4:
	togglenoise 0
	notetype $8
.repeat1
	note F#, 12
	note F#, 3
	note F#, 9
	loopchannel 16, .repeat1
	note G_, 3
	note F#, 3
	note G_, 3
	note F#, 3
	note G_, 3
	note A_, 3
	note A_, 2
	note A_, 4
.loop
	callchannel .sub1
	callchannel .sub1
	callchannel .sub2
	callchannel .sub2
	callchannel .sub3
	callchannel .sub3
	jumpchannel .loop

.repeat2
	note A_, 6
.sub1
	note D_, 6
	note A_, 6
	note D_, 2
	note D_, 1
	note D_, 3
	loopchannel 4, .repeat2
	note A_, 3
	note A_, 3
	endchannel

.repeat3
	note B_, 6
.sub2
	note F_, 3
	note G_, 3
	note F_, 2
	note F_, 1
	note F_, 3
	note F_, 3
	note G_, 2
	note G_, 1
	loopchannel 4, .repeat3
	note B_, 3
	note B_, 3
	endchannel

.repeat4
	note G#, 3
.sub3
	note G_, 3
	note G_, 3
	note D_, 2
	note A_, 1
	note A_, 3
	note D_, 3
	note D_, 3
	note A_, 3
	loopchannel 4, .repeat4
	note G#, 2
	note G#, 1
	endchannel
