Music_Route120:
	channelcount 4
	channel 1, Music_Route120_Ch1
	channel 2, Music_Route120_Ch2
	channel 3, Music_Route120_Ch3
	channel 4, Music_Route120_Ch4

Music_Route120_Ch1:
	tempo $96
	volume $77
	stereopanning $f
Music_Route120_Ch1_loop:
	dutycycle 2
	octave 4
	notetype $8, $91
	note A_, 2
	note B_, 2
	octave 5
	note C#, 2
	note D_, 2
	note C#, 2
	octave 4
	note B_, 2
	note A_, 2
	note B_, 2
	octave 5
	note C#, 2
	note D_, 2
	note C#, 2
	octave 4
	note B_, 2
	note A_, 2
	note B_, 2
	octave 5
	note C#, 2
	note D_, 2
	note C#, 2
	octave 4
	note B_, 2
	note A_, 2
	note B_, 2
	octave 5
	note C#, 2
	note D_, 2
	note C#, 2
	octave 4
	note B_, 2
	note G_, 2
	note B_, 2
	octave 5
	note C#, 2
	note D_, 2
	note C#, 2
	octave 4
	note B_, 2
	note G_, 2
	note B_, 2
	octave 5
	note C#, 2
	note D_, 2
	note C#, 2
	octave 4
	note B_, 2
	note G_, 2
	note B_, 2
	octave 5
	note C#, 2
	note D_, 2
	note C#, 2
	octave 4
	note B_, 2
	note G_, 2
	note B_, 2
	octave 5
	note C#, 2
	note D_, 2
	note C#, 2
	octave 4
	note B_, 2
	note A_, 2
	note B_, 2
	octave 5
	note C_, 2
	note D_, 2
	note C_, 2
	octave 4
	note B_, 2
	note A_, 2
	note B_, 2
	octave 5
	note C_, 2
	note D_, 2
	note C_, 2
	octave 4
	note B_, 2
	note A_, 2
	note B_, 2
	octave 5
	note C_, 2
	note D_, 2
	note C_, 2
	octave 4
	note B_, 2
	note A_, 2
	note B_, 2
	octave 5
	note C_, 2
	note D_, 2
	note C_, 2
	octave 4
	note B_, 2
	note G#, 2
	note B_, 2
	octave 5
	note C_, 2
	note D_, 2
	note C_, 2
	octave 4
	note B_, 2
	note G#, 2
	note B_, 2
	octave 5
	note C_, 2
	note D_, 2
	note C_, 2
	octave 4
	note B_, 2
	note G#, 2
	note B_, 2
	octave 5
	note D_, 2
	note E_, 2
	note D_, 2
	note C#, 2
	note D_, 2
	note C#, 2
	octave 4
	note B_, 2
	octave 5
	note C#, 2
	octave 4
	note B_, 2
	note G#, 2
	note __, 14
	dutycycle 1
	intensity $A3
	octave 2
	note A_, 2
	note __, 4
	intensity $A1
	note A_, 2
	note A_, 2
	intensity $A0
	note A_, 12
	intensity $A7
	vibrato $00, $34
	note A_, 12
	intensity $A5
	vibrato $00, $00
	note G_, 6
	intensity $C1
	octave 4
	note G_, 2
	note G_, 2
	note G_, 2
	intensity $A5
	octave 3
	note C#, 6
	octave 2
	note B_, 6
	note G_, 6
	note A_, 6
	note B_, 6
	octave 3
	note D_, 6
	intensity $A0
	note C_, 12
	intensity $A7
	vibrato $00, $34
	note C_, 12
	intensity $A0
	vibrato $00, $00
	octave 2
	note A_, 12
	intensity $A7
	vibrato $00, $34
	note A_, 12
	intensity $A5
	octave 3
	note A_, 6
	intensity $C1
	vibrato $00, $00
	octave 4
	note A_, 2
	note A_, 2
	note A_, 2
	intensity $A5
	octave 3
	note B_, 6
	note A_, 6
	note B_, 4
	octave 4
	note E_, 4
	note F#, 4
	intensity $A7
	vibrato $00, $34
	note G#, 12
	dutycycle 0
	vibrato $00, $00
	octave 1
	note A_, 8
	intensity $C2
	vibrato $00, $04
	octave 2
	note C#, 2
	note E_, 2
	intensity $C5
	note A_, 4
	note G#, 4
	note A_, 4
	intensity $C0
	note E_, 12
	intensity $C5
	vibrato $00, $24
	note E_, 12
	vibrato $00, $00
	note E_, 8
	intensity $C2
	vibrato $00, $04
	note E_, 2
	note F#, 2
	intensity $C5
	note G_, 4
	note A_, 4
	note C#, 4
	intensity $C0
	note D_, 12
	intensity $C5
	vibrato $00, $24
	note D_, 12
	vibrato $00, $00
	note E_, 8
	intensity $C2
	vibrato $00, $04
	note D_, 2
	note E_, 2
	intensity $C5
	note F_, 4
	note G_, 4
	note F_, 4
	vibrato $00, $00
	note A_, 8
	intensity $C2
	vibrato $00, $04
	note G#, 2
	note A_, 2
	intensity $C7
	vibrato $06, $24
	note E_, 12
	intensity $A7
	note F#, 6
	note C#, 6
	note F#, 4
	note G#, 4
	note F#, 4
	note G#, 6
	octave 1
	note B_, 6
	intensity $C7
	octave 2
	note E_, 12
	intensity $C5
	vibrato $00, $00
	octave 1
	note A_, 8
	intensity $C2
	vibrato $00, $04
	octave 2
	note C#, 2
	note E_, 2
	intensity $C5
	note A_, 4
	note G#, 4
	note A_, 4
	intensity $C0
	note E_, 12
	intensity $C5
	vibrato $00, $24
	note E_, 12
	vibrato $00, $00
	note E_, 8
	intensity $C2
	vibrato $00, $04
	note E_, 2
	note F#, 2
	intensity $C5
	note G_, 4
	note A_, 4
	note G_, 4
	intensity $C0
	note F#, 12
	intensity $C5
	vibrato $00, $24
	note F#, 12
	vibrato $00, $00
	note F_, 6
	note __, 2
	intensity $C2
	vibrato $00, $04
	note F_, 2
	note G_, 2
	intensity $C5
	note A_, 4
	note B_, 4
	note A_, 4
	vibrato $00, $00
	octave 3
	note C#, 8
	intensity $C2
	vibrato $00, $04
	note D_, 2
	note C#, 2
	intensity $C7
	vibrato $06, $24
	octave 2
	note A_, 12
	intensity $C5
	vibrato $00, $00
	note B_, 6
	note __, 2
	intensity $C2
	vibrato $00, $04
	note F#, 2
	note G#, 2
	intensity $C5
	note A_, 4
	note B_, 4
	note A_, 4
	vibrato $00, $00
	note B_, 6
	note __, 2
	intensity $C2
	vibrato $00, $04
	note B_, 2
	octave 3
	note C#, 2
	intensity $C7
	vibrato $06, $24
	note D_, 12
	vibrato $00, $00
	jumpchannel Music_Route120_Ch1_loop

Music_Route120_Ch2:
Music_Route120_Ch2_loop:
	notetype $C, $00
	note __, 4
	dutycycle 1
	intensity $C4
	octave 4
	note E_, 4
	note D_, 4
	note C#, 4
	octave 3
	note B_, 4
	octave 4
	note C#, 4
	octave 3
	note B_, 4
	note A_, 4
	intensity $C7
	vibrato $04, $23
	note G_, 8
	vibrato $00, $00
	notetype $8, $C7
	note B_, 4
	octave 4
	note C#, 4
	note D_, 4
	intensity $C5
	octave 3
	note B_, 9
	note A_, 9
	note G_, 6
	note A_, 12
	intensity $C7
	note A_, 4
	note B_, 4
	note A_, 4
	note F_, 4
	note G_, 4
	note A_, 4
	octave 4
	note C_, 4
	octave 3
	note B_, 4
	note A_, 4
	note B_, 12
	octave 4
	note G#, 4
	note A_, 4
	note F#, 4
	intensity $C0
	note G#, 12
	intensity $C5
	vibrato $00, $34
	note G#, 12
	note __, 6
	intensity $C4
	vibrato $00, $00
	note E_, 6
	note D_, 6
	note C#, 6
	octave 3
	note B_, 6
	octave 4
	note C#, 6
	note D_, 6
	note E_, 6
	intensity $C7
	vibrato $04, $23
	octave 3
	note B_, 12
	vibrato $00, $00
	octave 5
	note D_, 4
	note C#, 4
	octave 4
	note A_, 4
	intensity $C0
	note B_, 12
	intensity $C5
	vibrato $00, $23
	note B_, 12
	note __, 6
	intensity $C4
	vibrato $00, $00
	note F_, 6
	note G_, 6
	note F_, 6
	note E_, 6
	note D_, 6
	note C_, 6
	note F_, 6
	intensity $C7
	vibrato $04, $23
	note E_, 12
	vibrato $00, $00
	note B_, 4
	note A_, 4
	note F#, 4
	intensity $C0
	note G#, 12
	intensity $C5
	vibrato $00, $23
	note G#, 12
	vibrato $00, $00
	octave 3
	note A_, 8
	intensity $C2
	vibrato $00, $04
	octave 4
	note C#, 2
	note E_, 2
	intensity $C5
	note A_, 4
	note G#, 4
	note A_, 4
	intensity $C0
	note E_, 12
	intensity $C5
	vibrato $00, $24
	note E_, 12
	vibrato $00, $00
	note E_, 8
	intensity $C2
	vibrato $00, $04
	note E_, 2
	note F#, 2
	intensity $C5
	note G_, 4
	note A_, 4
	note C#, 4
	intensity $C0
	note D_, 12
	intensity $C5
	vibrato $00, $24
	note D_, 12
	vibrato $00, $00
	note F_, 8
	intensity $C2
	vibrato $00, $04
	note D_, 2
	note E_, 2
	intensity $C5
	note F_, 4
	note G_, 4
	note F_, 4
	vibrato $00, $00
	note A_, 8
	intensity $C2
	vibrato $00, $04
	note G#, 2
	note A_, 2
	intensity $C7
	vibrato $06, $24
	note E_, 12
	dutycycle 0
	intensity $D5
	vibrato $00, $00
	note F#, 6
	note __, 2
	intensity $D2
	vibrato $00, $04
	note G#, 2
	note A_, 2
	intensity $D5
	octave 5
	note D_, 4
	note C#, 4
	octave 4
	note B_, 4
	octave 5
	note E_, 4
	note D_, 4
	intensity $D2
	note C#, 2
	octave 4
	note A_, 2
	intensity $C7
	vibrato $06, $24
	note B_, 12
	dutycycle 1
	intensity $C5
	vibrato $00, $00
	octave 3
	note A_, 8
	intensity $C2
	vibrato $00, $04
	octave 4
	note C#, 2
	note E_, 2
	intensity $C5
	note A_, 4
	note G#, 4
	note A_, 4
	intensity $C0
	note E_, 12
	intensity $C5
	vibrato $00, $24
	note E_, 12
	vibrato $00, $00
	note E_, 8
	intensity $C2
	vibrato $00, $04
	note E_, 2
	note F#, 2
	intensity $C5
	note G_, 4
	note A_, 4
	note G_, 4
	intensity $C0
	note F#, 12
	intensity $C5
	vibrato $00, $24
	note F#, 12
	vibrato $00, $00
	note F_, 6
	note __, 2
	intensity $C2
	vibrato $00, $04
	note F_, 2
	note G_, 2
	intensity $C5
	note A_, 4
	note B_, 4
	note A_, 4
	vibrato $00, $00
	octave 5
	note C#, 8
	intensity $C2
	vibrato $00, $04
	note D_, 2
	note C#, 2
	intensity $C7
	vibrato $06, $24
	octave 4
	note A_, 12
	intensity $C5
	vibrato $00, $00
	note B_, 6
	note __, 2
	intensity $C2
	vibrato $00, $04
	note F#, 2
	note G#, 2
	intensity $C5
	note A_, 4
	note B_, 4
	note A_, 4
	vibrato $00, $00
	note B_, 6
	note __, 2
	intensity $C2
	vibrato $00, $04
	note B_, 2
	octave 5
	note C#, 2
	intensity $C7
	vibrato $06, $24
	note D_, 12
	vibrato $00, $00
	jumpchannel Music_Route120_Ch2_loop

Music_Route120_Ch3:
	stereopanning $f0
Music_Route120_Ch3_loop:
	dutycycle 4
	octave 2
	notetype $F, $14
	note A_, 12
	notetype $C, $14
	note __, 1
	note A_, 12
	note E_, 4
	notetype $8, $14
	note B_, 4
	note A_, 4
	note G_, 4
	octave 3
	note D_, 9
	notetype $C, $14
	note __, 1
	note D_, 1
	octave 2
	note G_, 6
	note D_, 6
	note B_, 4
	note F_, 15
	note __, 1
	note F_, 8
	notetype $8, $14
	note F_, 4
	note G_, 4
	note A_, 4
	note E_, 12
	note G#, 12
	note E_, 6
	note B_, 6
	note A_, 6
	note F#, 6
	dutycycle 5
	intensity $25
	octave 3
	note A_, 2
	octave 4
	note C#, 2
	note E_, 2
	note A_, 2
	octave 5
	note C#, 2
	note E_, 2
	note A_, 2
	note E_, 2
	note C#, 2
	note E_, 2
	note C#, 2
	octave 4
	note A_, 2
	octave 5
	note C#, 2
	octave 4
	note A_, 2
	note E_, 2
	note A_, 2
	note E_, 2
	note C#, 2
	octave 3
	note A_, 2
	octave 4
	note C#, 2
	note E_, 2
	note A_, 2
	note E_, 2
	note C#, 2
	octave 3
	note G_, 2
	note A_, 2
	octave 4
	note D_, 2
	note G_, 2
	note A_, 2
	octave 5
	note D_, 2
	note G_, 2
	note D_, 2
	octave 4
	note B_, 2
	octave 5
	note D_, 2
	octave 4
	note B_, 2
	note G_, 2
	note B_, 2
	note G_, 2
	note D_, 2
	note G_, 2
	note D_, 2
	octave 3
	note B_, 2
	note G_, 2
	note B_, 2
	octave 4
	note D_, 2
	note G_, 2
	note D_, 2
	octave 3
	note B_, 2
	note F_, 2
	note A_, 2
	octave 4
	note C_, 2
	note F_, 2
	note A_, 2
	octave 5
	note C_, 2
	note F_, 2
	note C_, 2
	octave 4
	note A_, 2
	octave 5
	note C_, 2
	octave 4
	note A_, 2
	note F_, 2
	note A_, 2
	note F_, 2
	note C_, 2
	note F_, 2
	note C_, 2
	octave 3
	note A_, 2
	note F_, 2
	note A_, 2
	octave 4
	note C_, 2
	note F_, 2
	note C_, 2
	octave 3
	note A_, 2
	octave 4
	note E_, 2
	note A_, 2
	note B_, 2
	octave 5
	note E_, 2
	note B_, 2
	octave 6
	note E_, 2
	octave 5
	note B_, 2
	note A_, 2
	note E_, 2
	note D_, 2
	octave 4
	note B_, 2
	note A_, 2
	note G#, 2
	note E_, 2
	octave 3
	note B_, 2
	octave 4
	note E_, 2
	octave 3
	note B_, 2
	note G#, 2
	octave 4
	note G_, 1
	note A_, 1
	note B_, 1
	octave 5
	note C#, 1
	note D_, 1
	note E_, 1
	note G_, 1
	note B_, 1
	octave 6
	note D_, 1
	note F_, 1
	note G_, 1
	note A#, 1
	dutycycle 6
	intensity $16
	octave 3
	note E_, 6
	note __, 2
	vibrato $00, $04
	note F#, 2
	note A_, 2
	octave 4
	note C#, 4
	octave 3
	note B_, 4
	octave 4
	note C#, 4
	note G#, 12
	intensity $26
	vibrato $00, $24
	note G#, 6
	dutycycle 5
	intensity $25
	vibrato $00, $00
	octave 5
	note A_, 2
	octave 6
	note C#, 2
	note E_, 2
	dutycycle 6
	intensity $16
	octave 3
	note C#, 6
	note __, 2
	vibrato $00, $04
	note C#, 2
	note E_, 2
	note A_, 6
	note G_, 6
	octave 4
	note F#, 12
	intensity $26
	vibrato $00, $24
	note F#, 6
	dutycycle 5
	intensity $25
	vibrato $00, $00
	octave 5
	note F#, 2
	note A_, 2
	octave 6
	note D_, 2
	dutycycle 6
	intensity $16
	octave 3
	note A_, 6
	note __, 2
	vibrato $00, $04
	note F_, 2
	note G_, 2
	note A_, 4
	note B_, 4
	note A_, 4
	vibrato $00, $00
	octave 4
	note C#, 6
	note __, 2
	vibrato $00, $04
	octave 3
	note B_, 2
	octave 4
	note C#, 2
	octave 3
	note A_, 6
	dutycycle 5
	intensity $25
	vibrato $00, $00
	octave 5
	note E_, 2
	note A_, 2
	octave 6
	note C#, 2
	dutycycle 6
	intensity $16
	octave 3
	note D_, 6
	octave 2
	note A_, 6
	octave 3
	note D_, 4
	note E_, 4
	note D_, 4
	note E_, 6
	vibrato $00, $24
	note G#, 6
	vibrato $00, $00
	octave 2
	note B_, 2
	octave 3
	note C#, 2
	note D_, 2
	note E_, 2
	note F#, 2
	note G#, 2
	note E_, 6
	note __, 2
	vibrato $00, $04
	note F#, 2
	note A_, 2
	octave 4
	note C#, 4
	octave 3
	note B_, 4
	octave 4
	note C#, 4
	octave 3
	note G#, 12
	vibrato $00, $24
	note G#, 12
	vibrato $00, $00
	octave 2
	note A_, 6
	note __, 2
	vibrato $00, $04
	octave 3
	note C#, 2
	note E_, 2
	note C#, 6
	note G_, 6
	note D_, 12
	vibrato $00, $24
	note D_, 12
	vibrato $00, $00
	octave 2
	note A_, 12
	octave 3
	note F_, 4
	note G_, 4
	note F_, 4
	note A_, 6
	note __, 2
	vibrato $00, $04
	note A_, 2
	note G#, 2
	note D_, 6
	vibrato $00, $24
	octave 2
	note A_, 6
	vibrato $00, $00
	octave 3
	note E_, 8
	vibrato $00, $04
	note D_, 2
	note E_, 2
	note F#, 4
	note G#, 4
	note F#, 4
	vibrato $00, $00
	note G#, 8
	vibrato $00, $04
	note G#, 2
	note A_, 2
	note B_, 6
	vibrato $00, $24
	note B_, 6
	vibrato $00, $00
	jumpchannel Music_Route120_Ch3_loop

Music_Route120_Ch4:
	togglenoise 3
	notetype $8
Music_Route120_Ch4_loop:
	note B_, 1
	note __, 5
	intensity $71
	note C#, 1
	note __, 1
	note C#, 1
	note __, 1
	note C#, 1
	note __, 1
	note C_, 1
	note __, 3
	note C#, 1
	note C#, 1
	note C#, 1
	note __, 1
	note C#, 1
	note __, 1
	note C#, 1
	note __, 1
	note C_, 1
	note __, 5
	note C#, 1
	note __, 1
	note C#, 1
	note __, 1
	note C#, 1
	note __, 1
	note C_, 1
	note __, 1
	note C_, 1
	note __, 1
	note C_, 1
	note __, 1
	note C#, 1
	note __, 1
	note C#, 1
	note __, 1
	note C#, 1
	note __, 1
	note C_, 1
	note __, 5
	note C#, 1
	note __, 1
	note C#, 1
	note __, 1
	note C#, 1
	note __, 1
	note C_, 1
	note __, 3
	note C#, 1
	note C#, 1
	note C#, 1
	note __, 1
	note C#, 1
	note __, 1
	note C#, 1
	note __, 1
	note C_, 1
	note __, 5
	note C#, 1
	note __, 1
	note C#, 1
	note __, 1
	note C#, 1
	note __, 1
	note C_, 1
	note __, 1
	note C_, 1
	note __, 1
	note C_, 1
	note __, 1
	note C#, 1
	note __, 1
	note C#, 1
	note __, 1
	note C#, 1
	note __, 1
	note C_, 1
	note __, 5
	note C#, 1
	note __, 1
	note C#, 1
	note __, 1
	note C#, 1
	note __, 1
	note C_, 1
	note __, 3
	note C#, 1
	note C#, 1
	note C#, 1
	note __, 1
	note C#, 1
	note __, 1
	note C#, 1
	note __, 1
	note C_, 1
	note __, 5
	note C#, 1
	note __, 1
	note C#, 1
	note __, 1
	note C#, 1
	note __, 1
	note C_, 1
	note __, 1
	note C_, 1
	note __, 1
	note C_, 1
	note __, 1
	note C#, 1
	note __, 1
	note C#, 1
	note __, 1
	note C#, 1
	note __, 1
	note C_, 1
	note __, 5
	note C#, 1
	note __, 1
	note C#, 1
	note __, 1
	note C#, 1
	note __, 1
	note C_, 1
	note __, 3
	note C#, 1
	note C#, 1
	note C#, 1
	note __, 1
	note C#, 1
	note __, 1
	note C#, 1
	note __, 1
	note C_, 1
	note __, 5
	note C#, 1
	note __, 1
	note C#, 1
	note __, 1
	note C#, 1
	note __, 1
	note C_, 1
	note __, 1
	note C_, 1
	note __, 1
	note C_, 1
	note __, 1
	note D#, 1
	note __, 1
	note D#, 1
	note __, 1
	note D#, 1
	note __, 1
	note B_, 1
	note __, 5
	note C#, 1
	note __, 1
	note C#, 1
	note __, 1
	note C#, 1
	note __, 1
	note C_, 1
	note __, 3
	note C#, 1
	note C#, 1
	note C#, 1
	note __, 1
	note C#, 1
	note __, 1
	note C#, 1
	note __, 1
	note C_, 1
	note __, 5
	note C#, 1
	note __, 1
	note C#, 1
	note __, 1
	note C#, 1
	note __, 1
	note C_, 1
	note __, 1
	note C_, 1
	note __, 1
	note C_, 1
	note __, 1
	note C#, 1
	note __, 1
	note C#, 1
	note __, 1
	note C#, 1
	note __, 1
	note C_, 1
	note __, 5
	note C#, 1
	note __, 1
	note C#, 1
	note __, 1
	note C#, 1
	note __, 1
	note C_, 1
	note __, 3
	note C#, 1
	note C#, 1
	note C#, 1
	note __, 1
	note C#, 1
	note __, 1
	note C#, 1
	note __, 1
	note C_, 1
	note __, 5
	note C#, 1
	note __, 1
	note C#, 1
	note __, 1
	note C#, 1
	note __, 1
	note C_, 1
	note __, 1
	note C_, 1
	note __, 1
	note C_, 1
	note __, 1
	note C#, 1
	note __, 1
	note C#, 1
	note __, 1
	note C#, 1
	note __, 1
	note C_, 1
	note __, 5
	note C#, 1
	note __, 1
	note C#, 1
	note __, 1
	note C#, 1
	note __, 1
	note C_, 1
	note __, 3
	note C#, 1
	note C#, 1
	note C#, 1
	note __, 1
	note C#, 1
	note __, 1
	note C#, 1
	note __, 1
	note C_, 1
	note __, 5
	note C#, 1
	note __, 1
	note C#, 1
	note __, 1
	note C#, 1
	note __, 1
	note C_, 1
	note __, 1
	note C_, 1
	note __, 1
	note C_, 1
	note __, 1
	note C#, 1
	note __, 1
	note C#, 1
	note __, 1
	note C#, 1
	note __, 1
	note C_, 1
	note __, 5
	note C#, 1
	note __, 1
	note C#, 1
	note __, 1
	note C#, 1
	note __, 1
	note C_, 1
	note __, 3
	note C#, 1
	note C#, 1
	note C#, 1
	note __, 1
	note C#, 1
	note __, 1
	note C#, 1
	note __, 1
	note C_, 1
	note __, 5
	note C#, 1
	note __, 1
	note C#, 1
	note __, 1
	note C#, 1
	note __, 1
	note C_, 1
	note __, 1
	note C_, 1
	note __, 1
	note C_, 1
	note __, 1
	note D#, 1
	note __, 1
	note D#, 1
	note __, 1
	note D#, 1
	note __, 1
	note B_, 1
	note __, 3
	note C#, 1
	note C#, 1
	note C#, 1
	note __, 3
	note C#, 1
	note C#, 1
	note D#, 1
	note __, 1
	note C_, 1
	note __, 1
	note C_, 1
	note __, 1
	note D_, 1
	note __, 1
	note C#, 1
	note __, 1
	note C#, 1
	note __, 1
	note C_, 1
	note __, 3
	note C#, 1
	note C#, 1
	note C#, 1
	note __, 3
	note C#, 1
	note C#, 1
	note D#, 1
	note __, 1
	note C_, 1
	note __, 1
	note C_, 1
	note __, 1
	note D_, 1
	note __, 1
	note C#, 1
	note __, 1
	note C#, 1
	note __, 1
	note C_, 1
	note __, 3
	note C#, 1
	note C#, 1
	note C#, 1
	note __, 3
	note C#, 1
	note C#, 1
	note D#, 1
	note __, 1
	note C_, 1
	note __, 1
	note C_, 1
	note __, 1
	note D_, 1
	note __, 1
	note C#, 1
	note __, 1
	note C#, 1
	note __, 1
	note C_, 1
	note __, 3
	note C#, 1
	note C#, 1
	note C#, 1
	note __, 3
	note C#, 1
	note C#, 1
	note D#, 1
	note __, 1
	note C_, 1
	note __, 1
	note C_, 1
	note __, 1
	note D_, 1
	note __, 1
	note C#, 1
	note __, 1
	note C#, 1
	note __, 1
	note C_, 1
	note __, 3
	note C#, 1
	note C#, 1
	note C#, 1
	note __, 3
	note C#, 1
	note C#, 1
	note D#, 1
	note __, 1
	note C_, 1
	note __, 1
	note C_, 1
	note __, 1
	note D_, 1
	note __, 1
	note C#, 1
	note __, 1
	note C#, 1
	note __, 1
	note C_, 1
	note __, 3
	note C#, 1
	note C#, 1
	note C#, 1
	note __, 3
	note C#, 1
	note C#, 1
	note D#, 1
	note __, 1
	note C_, 1
	note __, 1
	note C_, 1
	note __, 1
	note D_, 1
	note __, 1
	note C#, 1
	note __, 1
	note C#, 1
	note __, 1
	note C_, 1
	note __, 3
	note C#, 1
	note C#, 1
	note C#, 1
	note __, 3
	note C#, 1
	note C#, 1
	note D#, 1
	note __, 1
	note C_, 1
	note __, 1
	note C_, 1
	note __, 1
	note D_, 1
	note __, 1
	note D#, 1
	note __, 1
	note D#, 1
	note __, 1
	note B_, 1
	note __, 11
	note C#, 1
	note C#, 1
	note C#, 1
	note C#, 1
	note C#, 1
	note C#, 1
	note C#, 1
	note C#, 1
	note C#, 1
	note C#, 1
	note C#, 1
	note C#, 1
	note B_, 1
	note __, 3
	note C#, 1
	note C#, 1
	note C#, 1
	note __, 3
	note C#, 1
	note C#, 1
	note D#, 1
	note __, 1
	note C_, 1
	note __, 1
	note C_, 1
	note __, 1
	note D#, 1
	note __, 1
	note C_, 1
	note __, 1
	note C_, 1
	note __, 1
	note D#, 1
	note __, 2
	note C#, 1
	note C#, 1
	note C#, 1
	note C#, 1
	note __, 2
	note C#, 1
	note C#, 1
	note C#, 1
	note C_, 1
	note __, 3
	note D#, 1
	note __, 3
	note C_, 1
	note __, 1
	note C_, 1
	note __, 1
	note D#, 1
	note __, 3
	note C#, 1
	note C#, 1
	note C#, 1
	note __, 3
	note C#, 1
	note C#, 1
	note D#, 1
	note __, 1
	note C_, 1
	note __, 1
	note C_, 1
	note __, 1
	note D#, 1
	note __, 1
	note C_, 1
	note __, 1
	note C_, 1
	note __, 1
	note D#, 1
	note __, 2
	note C#, 1
	note C#, 1
	note C#, 1
	note C#, 1
	note __, 2
	note C#, 1
	note C#, 1
	note C#, 1
	note C_, 1
	note __, 3
	note D#, 1
	note __, 3
	note C_, 1
	note __, 1
	note C_, 1
	note __, 1
	note D#, 1
	note __, 3
	note C#, 1
	note C#, 1
	note C#, 1
	note __, 3
	note C#, 1
	note C#, 1
	note D#, 1
	note __, 1
	note C_, 1
	note __, 1
	note C_, 1
	note __, 1
	note D#, 1
	note __, 1
	note C_, 1
	note __, 1
	note C_, 1
	note __, 1
	note D#, 1
	note __, 2
	note C#, 1
	note C#, 1
	note C#, 1
	note C#, 1
	note __, 2
	note C#, 1
	note C#, 1
	note C#, 1
	note C_, 1
	note __, 3
	note D#, 1
	note __, 3
	note C_, 1
	note __, 1
	note C_, 1
	note __, 1
	note B_, 1
	note __, 11
	note C#, 1
	note __, 1
	note C#, 1
	note __, 1
	note C#, 1
	note __, 1
	note C#, 1
	note __, 1
	note D#, 1
	note __, 1
	note C_, 1
	note __, 1
	note B_, 1
	note __, 11
	note C_, 1
	note __, 1
	note C_, 1
	note __, 1
	note C_, 1
	note __, 1
	note C_, 1
	note __, 1
	note C_, 1
	note __, 1
	note C_, 1
	note __, 1
	jumpchannel Music_Route120_Ch4_loop

