Music_Route104:
	channelcount 4
	channel 1, Music_Route104_Ch1
	channel 2, Music_Route104_Ch2
	channel 3, Music_Route104_Ch3
	channel 4, Music_Route104_Ch4

Music_Route104_Ch1:
	tempo $97
	volume $77
	stereopanning $f
	notetype $8, $81
	note __, 16
	note __, 16
	note __, 16
.loop
	dutycycle 1
	octave 4
	note C_, 2
	note __, 4
	note C_, 2
	note __, 6
	note C_, 2
	note C_, 2
	note A#, 2
	note __, 2
	intensity $87
	note G#, 5
	notetype $2, $87
	note __, 3
	intensity $86
	note G_, 3
	note G#, 3
	note G_, 3
	intensity $82
	note F_, 16
	intensity $81
	note D#, 8
	intensity $82
	note C#, 16
	intensity $81
	note C_, 8
	octave 3
	note G#, 8
	note __, 8
	note A#, 8
	octave 4
	notetype $10, $97
	note C_, 9
	note __, 10
	tone $0002
	octave 2
	notetype $8, $71
	note F#, 2
	intensity $81
	note F#, 2
	intensity $91
	note F#, 2
	intensity $a1
	note F#, 2
	intensity $b1
	note G_, 2
	tone $0000
	intensity $81
	octave 4
	note C_, 2
	note __, 10
	note D#, 2
	note __, 2
	note C_, 2
	octave 5
	note D#, 2
	note __, 2
	intensity $87
	note C#, 5
	notetype $6, $86
	note C#, 1
	note C_, 1
	note C#, 1
	note C_, 1
	octave 4
	notetype $8, $82
	note A#, 4
	intensity $81
	note G#, 2
	intensity $87
	note F#, 12
	note __, 6
	intensity $81
	note F_, 2
	note __, 2
	note F#, 2
	intensity $87
	note G#, 12
	note C#, 12
	octave 3
	note A#, 12
	note G#, 12
	dutycycle 0
	intensity $91
	note C_, 2
	note G#, 2
	octave 4
	note C_, 2
	intensity $94
	vibrato $08, $24
	note F_, 6
	dutycycle 1
	intensity $71
	note A#, 1
	octave 5
	note C_, 1
	octave 4
	note A#, 1
	note G#, 1
	note A#, 1
	note G#, 1
	note G_, 1
	note G#, 1
	note G_, 1
	note F_, 1
	note G_, 1
	note F_, 1
	note D#, 1
	note F_, 1
	note D#, 1
	note C#, 1
	note D#, 1
	note C#, 1
	note C_, 1
	note C#, 1
	note C_, 1
	octave 3
	note A#, 1
	octave 4
	note C_, 1
	octave 3
	note A#, 1
	intensity $87
	note A#, 11
	note __, 1
	intensity $91
	note A#, 2
	octave 4
	note F_, 2
	note G_, 2
	note G_, 2
	tone $0002
	octave 5
	note C#, 2
	octave 4
	note G_, 2
	tone $0000
	intensity $72
	note A#, 2
	note F_, 2
	note C_, 2
	note A_, 2
	note E_, 2
	note C_, 2
	note G#, 2
	note D#, 2
	note C_, 2
	note A_, 2
	note D_, 2
	note C_, 2
	intensity $87
	octave 3
	note G#, 12
	tone $0001
	intensity $81
	octave 4
	note D#, 2
	note F_, 2
	note G_, 2
	note G_, 2
	note F_, 2
	note D#, 2
	tone $0000
	intensity $83
	vibrato $00, $00
	note D#, 6
	note C#, 4
	note C_, 2
	note C#, 4
	note F_, 2
	intensity $81
	note D#, 2
	note G_, 2
	octave 3
	note A#, 2
	intensity $87
	octave 4
	note C_, 12
	note __, 12
	intensity $72
	octave 3
	note F_, 2
	octave 4
	note C_, 2
	note F_, 2
	note A_, 2
	note F_, 2
	note A_, 2
	octave 5
	note C_, 2
	octave 4
	note A_, 2
	note A_, 2
	note A_, 2
	note F_, 2
	note F_, 2
	intensity $71
	octave 2
	note G#, 1
	octave 3
	note C#, 1
	note F_, 1
	note C#, 1
	note F_, 1
	note G#, 1
	note F_, 1
	note G#, 1
	octave 4
	note C#, 1
	octave 3
	note G#, 1
	octave 4
	note C#, 1
	note F_, 1
	note C#, 1
	note F_, 1
	note G#, 1
	note F_, 1
	note G#, 1
	octave 5
	note C#, 1
	octave 4
	note G#, 1
	octave 5
	note C#, 1
	note F_, 1
	note C#, 1
	note F_, 1
	note G#, 1
	note A#, 1
	note G_, 1
	note D#, 1
	note G_, 1
	note D#, 1
	octave 4
	note A#, 1
	octave 5
	note D#, 1
	octave 4
	note A#, 1
	note G_, 1
	note A#, 1
	note G_, 1
	note D#, 1
	note G_, 1
	note D#, 1
	octave 3
	note A#, 1
	octave 4
	note D#, 1
	octave 3
	note A#, 1
	note G_, 1
	note A#, 1
	note G_, 1
	note D#, 1
	note G_, 1
	note D#, 1
	octave 2
	note A#, 1
	jumpchannel .skip
.repeat
	octave 3
	note A_, 1
	note F_, 1
	note D#, 1
	note C_, 1
	octave 2
	note A_, 1
.skip
	note F_, 1
	note A_, 1
	octave 3
	note C_, 1
	note D#, 1
	note F_, 1
	note A_, 1
	octave 4
	note C_, 1
	loopchannel 4, .repeat
	note D#, 1
	note F_, 1
	note G#, 1
	note A#, 1
	octave 5
	note C#, 1
	intensity $81
	jumpchannel .loop

Music_Route104_Ch2:
	stereopanning $f0
	notetype $8, $b1
	note __, 16
	note __, 16
	note __, 14
.loop
	dutycycle 0
	octave 3
	note C_, 1
	note C#, 1
	note D#, 2
	note __, 2
	note C_, 2
	note A#, 2
	note __, 2
	intensity $b4
	note G#, 5
	notetype $2, $41
	note G#, 3
	intensity $b6
	note G_, 3
	intensity $b1
	note G#, 3
	note G_, 3
	note F_, 8
	note __, 8
	note D#, 8
	notetype $c, $b7
	note C#, 12
	notetype $8, $b1
	note C_, 2
	note __, 2
	note C#, 2
	intensity $b6
	note D#, 12
	notetype $2, $b1
	note __, 16
	note __, 2
	octave 4
	note C_, 3
	note C#, 3
	note D#, 8
	note __, 10
	note C#, 3
	note D_, 3
	notetype $8, $b6
	note D#, 12
	note __, 2
	dutycycle 1
	intensity $71
	octave 3
	note F#, 2
	intensity $81
	note F#, 2
	intensity $91
	note F#, 2
	intensity $a1
	note F#, 2
	intensity $b1
	note G_, 2
	note D#, 2
	note __, 2
	note C_, 2
	octave 4
	note D#, 2
	note __, 2
	intensity $b4
	note C#, 5
	notetype $2, $41
	note C#, 3
	intensity $b6
	note C_, 3
	intensity $b1
	note C#, 3
	note C_, 3
	octave 3
	note A#, 8
	note __, 8
	note G#, 8
	notetype $10, $b7
	note F#, 9
	intensity $b1
	note F_, 1
	note __, 1
	note F#, 1
	intensity $b7
	note G#, 9
	octave 4
	notetype $8, $b1
	note C#, 2
	note __, 2
	note D#, 2
	intensity $b4
	note E_, 8
	intensity $b1
	note F#, 2
	note E_, 2
	intensity $b3
	note D#, 6
	dutycycle 0
	note D#, 6
	dutycycle 1
	note C_, 4
	intensity $b1
	note C#, 2
	note D#, 2
	note __, 2
	intensity $b3
	note C#, 6
	intensity $b1
	note C_, 2
	octave 3
	note A#, 2
	octave 4
	note C_, 2
	octave 3
	note G#, 2
	intensity $b0
	note A#, 12
	intensity $b7
	vibrato $00, $24
	note A#, 12
	intensity $b3
	vibrato $00, $00
	note G_, 4
	intensity $b1
	note G#, 2
	note A#, 2
	note __, 2
	intensity $b3
	octave 4
	note D#, 6
	intensity $b1
	note C#, 2
	note C_, 2
	note C#, 2
	octave 3
	note G_, 2
	intensity $b3
	note A#, 4
	intensity $b1
	octave 4
	note C_, 1
	octave 3
	note A#, 1
	intensity $b3
	note A_, 6
	note A#, 6
	octave 4
	note C_, 6
	intensity $b5
	note G#, 12
	intensity $b3
	note F_, 4
	intensity $b1
	note G_, 2
	note __, 4
	note G#, 2
	intensity $b3
	note G#, 6
	note G_, 4
	intensity $b1
	note F_, 2
	intensity $b3
	note F_, 4
	intensity $b1
	note G#, 2
	intensity $b3
	note G_, 6
	intensity $b4
	note F_, 10
	note D#, 8
	intensity $b3
	note C_, 5
	notetype $4, $b0
	note A#, 1
	note B_, 1
	octave 5
	notetype $10, $b0
	note C_, 6
	intensity $b7
	vibrato $00, $24
	note C_, 6
	vibrato $00, $00
	intensity $b3
	note C_, 2
	intensity $b1
	octave 4
	note A#, 1
	note G#, 1
	note __, 1
	intensity $b3
	note G#, 3
	intensity $b1
	note G_, 1
	intensity $b3
	note F_, 3
	note G_, 2
	intensity $b1
	note G#, 1
	note A#, 1
	note __, 1
	intensity $b3
	note A#, 3
	intensity $b1
	note G#, 1
	intensity $b3
	note G_, 3
	intensity $b7
	note A_, 9
	note G_, 3
	note F_, 6
	notetype $8, $b1
	note D#, 1
	note F_, 1
	intensity $a1
	note D#, 1
	note F_, 1
	intensity $91
	note D#, 1
	note F_, 1
	intensity $81
	note D#, 1
	intensity $71
	note F_, 1
	intensity $61
	note D#, 1
	intensity $51
	note F_, 1
	intensity $b1
	jumpchannel .loop

Music_Route104_Ch3:
	notetype $8, $14
	note __, 16
	note __, 16
	note __, 10
.loop
	dutycycle 4
	octave 2
	note D#, 6
	callchannel .sub
	note G_, 2
	note G#, 2
	note __, 10
	note D#, 2
	note __, 10
	note G#, 2
	note __, 4
	note D#, 2
	note __, 4
	note F#, 2
	note __, 4
	note C#, 2
	note __, 2
	note G_, 2
	callchannel .sub
	note D#, 2
	note F_, 2
	note __, 10
	note C_, 2
	note __, 10
	note E_, 2
	note __, 4
	note C#, 2
	note __, 4
	note D#, 2
	note __, 4
	octave 3
	note D#, 2
	octave 2
	note __, 4
	note C#, 2
	note __, 2
	note C#, 2
	note __, 2
	octave 1
	note G#, 2
	octave 2
	note C#, 2
	note D#, 2
	note __, 2
	note F_, 2
	note G#, 2
	octave 3
	note C_, 2
	note D#, 2
	octave 2
	note D#, 2
	note __, 2
	note D#, 2
	note __, 6
	note D#, 2
	note __, 2
	note D#, 2
	note A#, 2
	octave 3
	note F_, 2
	note G_, 2
	octave 1
	note A#, 2
	note __, 2
	note A#, 2
	note __, 2
	note G_, 2
	note A_, 2
	note A#, 2
	note __, 2
	octave 2
	note B_, 2
	octave 3
	note C_, 2
	note E_, 2
	note G_, 2
	note F_, 2
	note __, 2
	octave 2
	note F_, 2
	note __, 4
	note E_, 2
	octave 3
	note D#, 2
	note __, 2
	octave 2
	note D#, 2
	octave 3
	note C_, 2
	octave 2
	note C#, 2
	note D#, 2
	octave 3
	note C#, 2
	note __, 2
	note C#, 2
	octave 2
	note G#, 2
	note A#, 2
	octave 3
	note C_, 2
	note C#, 4
	note G_, 2
	note __, 4
	note C_, 2
	note D#, 2
	note __, 2
	octave 2
	note D#, 2
	note __, 6
	note D#, 2
	note __, 2
	note D#, 2
	note __, 4
	note A#, 2
	note C_, 2
	note __, 2
	note C_, 2
	note __, 2
	octave 1
	note G#, 2
	note B_, 2
	octave 2
	note C_, 2
	note __, 8
	octave 3
	note C_, 2
	octave 2
	note F_, 2
	note __, 2
	note F_, 2
	note __, 4
	note E_, 2
	note D#, 2
	note __, 2
	octave 3
	note D#, 2
	octave 2
	note D_, 2
	note __, 2
	octave 3
	note C_, 2
	note C#, 14
	note __, 2
	note C#, 2
	octave 2
	note D#, 5
	note __, 1
	octave 3
	note D#, 14
	intensity $24
	note D#, 10
	intensity $14
	note F_, 14
	intensity $24
	note F_, 10
	intensity $14
	note F_, 12
	note D#, 6
	jumpchannel .loop

.sub
	note G#, 2
	note __, 10
	note D#, 2
	note __, 10
	note F#, 2
	note __, 10
	note C#, 2
	note __, 8
	endchannel

Music_Route104_Ch4:
	togglenoise 3
	notetype $8
	note C_, 2
	note __, 2
	note C_, 2
	note C_, 1
	note C#, 1
	note C#, 1
	note C#, 1
	note C#, 1
	note C#, 1
	note C_, 2
	note __, 2
	note C_, 2
	note __, 2
	note C_, 2
	note __, 2
	note C_, 2
	callchannel .sub1
	note C_, 2
	note C_, 1
	note C#, 1
	note C#, 1
	note C#, 1
	note C#, 1
	note C#, 1
.loop
	note C_, 2
	note __, 2
	note C_, 2
	note __, 2
	note C_, 2
	note C_, 2
	note C_, 2
	note __, 2
	note C_, 2
	note C#, 1
	note C#, 1
	note C#, 1
	note C#, 1
	note C#, 1
	note C#, 1
	loopchannel 8, .loop
.repeat1
	note B_, 4
	callchannel .sub2
	callchannel .sub3
	note C_, 2
	note D#, 2
	note C#, 2
	note D#, 2
	note __, 2
	callchannel .sub2
	callchannel .sub3
	note C_, 2
	note D#, 2
	note C#, 2
	loopchannel 2, .repeat1
	note B_, 2
	callchannel .sub1
	intensity $61
	note C_, 1
	intensity $51
	note C_, 1
	note C_, 2
	note __, 2
	note C_, 2
	note C_, 2
	callchannel .sub1
	intensity $61
	note C_, 1
	intensity $51
	note C_, 1
	note C_, 2
	note __, 2
	note C_, 2
	note C_, 2
.repeat2
	note __, 2
	note C_, 2
	note C_, 2
	note C#, 2
	note C_, 2
	note C_, 2
	loopchannel 3, .repeat2
	note C#, 2
	note C_, 2
	note C_, 2
	note C#, 2
	note C_, 2
	jumpchannel .loop

.sub1
	note __, 2
	note C_, 2
	note C_, 2
	note C_, 2
	note C_, 2
	note C_, 2
	note __, 2
	endchannel

.sub3
	note C_, 2
	note __, 2
	note C#, 2
	note D#, 2
	note __, 2
.sub2
	note D#, 2
	note C_, 2
	note __, 2
	note C#, 2
	note D#, 2
	note C#, 2
	note D#, 2
	endchannel
