Music_Route210:
	channelcount 4
	channel 1, Music_Route210_Ch1
	channel 2, Music_Route210_Ch2
	channel 3, Music_Route210_Ch3
	channel 4, Music_Route210_Ch4

Music_Route210_Ch1:
	tempo $98
	volume $77
	dutycycle 3
	stereopanning $f0
	tone $0001
	octave 3
.loop
	notetype $c, $b4
	note __, 6
	note E_, 4
	note G#, 4
	octave 4
	note C_, 4
	intensity $a8
	note D#, 16
	intensity $b3
	dutycycle 2
	octave 3
	note F_, 3
	note C#, 3
	note F_, 6
	note F_, 1
	note F_, 3
	note F#, 3
	note C#, 3
	note F#, 6
	note F#, 1
	note F#, 3
	note F_, 3
	note C#, 3
	note F_, 6
	note F_, 1
	note F_, 3
	dutycycle 0
	octave 4
	note F_, 4
	note C#, 4
	note D#, 4
	note G#, 4
	notetype $8, $b8
	dutycycle 2
	note E_, 1
	notetype $a, $b7
	note F_, 16
	notetype $c, $b4
	note D#, 1
	note C#, 1
	note D#, 2
	note C#, 1
	intensity $b7
	note C_, 11
	intensity $b4
	note C#, 1
	note D#, 1
	note C#, 1
	note C_, 2
	intensity $b7
	octave 3
	note G#, 11
	notetype $6, $91
	octave 4
	note G#, 1
	octave 5
	note C_, 1
	note F#, 1
	note G#, 1
.repeat1
	octave 6
	note D#, 1
	octave 5
	note D#, 1
	octave 6
	note C#, 1
	octave 5
	note C#, 1
	octave 6
	note C_, 1
	octave 5
	note C_, 1
	loopchannel 2, .repeat1
	note A#, 1
	octave 4
	note A#, 1
	octave 6
	note C_, 1
	octave 5
	note C_, 1
	callchannel .sub1
	note F_, 1
	octave 4
	note F_, 1
	octave 5
	callchannel .sub1
	note D#, 1
	octave 4
	note D#, 1
	octave 5
	note F_, 1
	octave 4
	note F_, 1
	octave 5
	note C#, 1
	octave 4
	note C#, 1
	intensity $b4
	note C#, 2
	note C_, 4
	notetype $c, $b7
	note C#, 9
	intensity $b4
	note C_, 2
	note C#, 2
	octave 3
	note A#, 2
	octave 4
	note C#, 1
	intensity $b7
	octave 3
	note A#, 7
	intensity $b4
	note G#, 2
	note F#, 2
	note A#, 2
	note G#, 1
	note A#, 2
	intensity $b7
	note G#, 5
	intensity $b1
	octave 2
	note G#, 1
	octave 3
	note D#, 1
	note C#, 1
	note D#, 1
	octave 2
	note G#, 1
	octave 3
	note F_, 1
	note C#, 1
	note F_, 1
	note A#, 1
	note G#, 2
	note A#, 1
	intensity $b4
	octave 4
	note D#, 8
	octave 3
	note G#, 1
	octave 4
	note C_, 1
	note C#, 1
	note D#, 1
	intensity $b7
	note F_, 14
	intensity $b4
	note D#, 1
	note C#, 1
	note D#, 2
	note C#, 1
	intensity $b7
	octave 3
	note A#, 11
	intensity $b4
	octave 4
	note C#, 1
	note D#, 1
	note C#, 1
	note C_, 2
	intensity $b7
	octave 3
	note G#, 11
	notetype $6, $b1
	note G#, 1
	octave 4
	note C_, 1
	note F#, 1
	note G#, 1
	octave 5
	note D#, 2
	note C#, 2
	note C_, 2
	note D#, 2
	note C#, 2
	note C_, 2
	octave 4
	note A#, 2
	octave 5
	note C_, 2
	octave 4
	note G#, 2
	note F#, 2
	note F_, 2
	note G#, 2
	note F#, 2
	note D#, 2
	note F_, 2
	note G#, 6
	intensity $b4
	octave 3
	note A#, 4
	octave 1
	note F#, 2
	octave 3
	note A#, 6
	octave 1
	note E_, 2
	octave 4
	note E_, 4
	octave 3
	note A#, 6
	octave 4
	note E_, 8
	octave 3
	note G#, 4
	octave 1
	note F_, 2
	octave 3
	note G#, 8
	octave 4
	note F_, 4
	octave 3
	note G#, 6
	note B_, 8
	note F#, 4
	octave 1
	note D#, 2
	octave 3
	note F#, 6
	octave 2
	note G#, 2
	octave 3
	note G#, 6
	note F#, 4
	note D#, 4
	note F_, 6
	note F#, 6
	note G_, 12
	note G#, 8
	intensity $b1
	dutycycle 0
	note F#, 2
	octave 4
.repeat2
	note F_, 2
	octave 3
	note A#, 2
	octave 4
	note C#, 2
	loopchannel 2, .repeat2
	octave 3
	note F#, 2
	note E_, 2
	octave 4
	note G#, 1
	note E_, 1
	octave 3
	note A#, 2
	octave 4
	note D#, 2
	note G#, 2
	note E_, 2
	octave 3
	note A#, 2
	octave 4
	note D#, 2
	octave 3
	note F_, 2
	octave 4
	note G#, 2
	note C_, 2
	note D#, 2
	note G#, 2
	note C_, 2
	note D#, 2
	octave 3
	note F_, 2
	note D_, 2
	octave 4
	note G#, 1
	note D#, 1
	note D_, 2
	note F#, 2
	note G#, 2
	octave 3
	note G#, 2
	octave 4
	note D_, 2
	octave 3
	note D_, 2
	note D#, 2
	octave 4
	note C#, 2
	octave 3
	note F#, 2
	note A#, 2
	octave 4
	note C#, 1
	octave 3
	note A#, 1
	note F#, 2
	note A#, 2
	note D#, 2
	note F_, 2
	octave 4
	note D#, 2
	octave 3
	note G#, 2
	octave 4
	note C_, 2
	note D#, 1
	note C_, 1
	octave 3
	note G#, 2
	octave 4
	note C_, 2
	octave 3
	note F_, 2
	note F#, 2
	octave 4
	note E_, 2
	octave 3
	note A_, 2
	octave 4
	note C#, 2
	note E_, 2
	note F#, 2
	note G#, 2
	note A_, 2
	dutycycle 1
	octave 3
	note C#, 1
	note D#, 1
	note F_, 1
	note F#, 1
	note G#, 1
	note A#, 1
	octave 4
	note C_, 1
	note C#, 1
	note D#, 1
	note F_, 1
	note F#, 1
	note G#, 1
	note A#, 1
	octave 5
	note C_, 1
	note C#, 1
	note D#, 1
	notetype $8, $b3
	octave 3
	note C#, 3
	note C#, 9
	callchannel .sub2
	octave 3
	note C#, 3
	octave 2
	note F_, 1
	note F_, 1
	note F_, 1
	octave 3
	note C#, 6
	callchannel .sub2
	notetype $6, $b3
	dutycycle 2
	octave 4
	note C#, 2
	note C_, 2
	octave 3
	note A#, 2
	octave 4
	note C_, 2
	note C#, 12
	octave 3
	note F_, 4
	note A_, 4
	octave 4
	note C#, 4
	note C#, 4
	note C_, 1
	note C#, 1
	note C_, 2
	octave 3
	note A#, 4
	octave 4
	note C#, 4
	note F_, 4
	note D#, 4
	note F_, 4
	note G#, 4
	intensity $b2
	dutycycle 3
	octave 3
	note C#, 4
	note C#, 8
	note C#, 4
	note D#, 2
	note D#, 2
	note D#, 4
	note D#, 4
	note D#, 4
	note E_, 4
	note E_, 8
	note E_, 4
	note F#, 2
	note F#, 2
	note F#, 4
	note F#, 4
	note F#, 4
	note F#, 2
	note F#, 2
	note F#, 8
	note F#, 2
	note F#, 2
	note F#, 4
	note F#, 4
	note F#, 2
	note F#, 6
	note F_, 2
	note F_, 2
	note F_, 8
	note F_, 2
	note F_, 2
	intensity $b5
	note F_, 12
	jumpchannel .loop

.sub1
	note G#, 1
	octave 4
	note G#, 1
	octave 5
	note F#, 1
	octave 4
	note F#, 1
	octave 5
	endchannel

.sub2
	octave 2
	note B_, 3
	note B_, 9
	note A#, 3
	note A#, 3
	note F#, 6
	note A_, 3
	note A_, 3
	note B_, 3
	note B_, 3
	endchannel

Music_Route210_Ch2:
	notetype $6, $c1
	dutycycle 1
	stereopanning $f
	tone $0002
	vibrato $08, $24
	octave 4
	note __, 4
.loop
	note __, 16
	note __, 16
.repeat
	octave 3
	note A#, 1
	octave 4
	note C_, 1
	loopchannel 10, .repeat
	octave 3
	note A#, 1
	note G#, 1
	note F#, 1
	note D#, 1
	note G#, 1
	note A#, 1
	octave 4
	note C_, 1
	note C#, 1
	note D#, 1
	note F_, 1
	note F#, 1
	note G_, 1
	notetype $c, $c8
	note G#, 12
	intensity $c5
	note F#, 2
	note F_, 2
	note F#, 2
	note F_, 1
	intensity $c8
	note D#, 7
	intensity $c5
	note F_, 1
	note D#, 2
	note C#, 2
	note D#, 1
	note F_, 1
	octave 3
	note G#, 2
	intensity $c7
	octave 4
	note F_, 16
	note __, 9
	notetype $8, $c1
	note F#, 1
	note F_, 1
	note D#, 1
	note C#, 1
	note D#, 1
	note F_, 1
	note G_, 1
	notetype $a, $c8
	note G#, 16
	callchannel .sub
	note __, 1
	notetype $8, $c1
	dutycycle 0
	octave 3
	note F#, 1
	note F_, 1
	note D#, 1
	note C_, 1
	note C#, 1
	note D#, 1
	octave 4
	note C_, 1
	octave 3
	note A#, 1
	note G#, 1
	note F#, 1
	note G#, 1
	note A#, 1
	octave 4
	note D#, 1
	note C#, 1
	note C_, 1
	octave 3
	note A#, 1
	octave 4
	note D#, 1
	note F#, 1
	notetype $c, $c5
	dutycycle 1
	note G#, 1
	note A#, 2
	intensity $c8
	note G#, 9
	intensity $c5
	note F#, 2
	note F_, 2
	note F#, 2
	note F_, 1
	intensity $c8
	note D#, 7
	intensity $c5
	note F_, 1
	note D#, 2
	note C#, 2
	octave 3
	note G#, 1
	octave 4
	note F_, 1
	note D#, 2
	note F_, 3
	intensity $c7
	note F_, 10
	intensity $c2
	dutycycle 0
	note F_, 4
	note C#, 4
	note D#, 4
	octave 3
	note G#, 2
	intensity $c5
	dutycycle 1
	octave 4
	note F_, 1
	note F#, 1
	intensity $c8
	note G#, 14
	callchannel .sub
	note __, 11
	intensity $c5
	dutycycle 0
	octave 3
	note F#, 1
	note G#, 1
	note A#, 6
	note F#, 2
	note E_, 1
	octave 4
	note C#, 3
	note C_, 2
	octave 3
	note A#, 2
	note G#, 1
	note F#, 1
	note F_, 1
	note F#, 1
	note G#, 2
	note F_, 2
	octave 4
	note D#, 2
	note F_, 1
	note D_, 3
	octave 3
	note F_, 2
	note F#, 6
	note D#, 2
	note C_, 1
	note A#, 3
	note G#, 2
	note F#, 2
	note F_, 3
	note F#, 3
	note G_, 6
	note G#, 2
	dutycycle 2
	note F#, 1
	note G#, 1
	note A#, 6
	octave 4
	note C_, 2
	note C#, 1
	note D#, 3
	note C_, 2
	octave 3
	note A#, 2
	octave 4
	note C_, 6
	octave 3
	note G#, 2
	notetype $6, $c5
	octave 4
	note E_, 1
	note F_, 3
	note D_, 2
	note G#, 6
	octave 3
	note G#, 4
	note F#, 12
	note F_, 2
	note F#, 2
	note G#, 12
	note F#, 2
	note G#, 2
	note A_, 12
	octave 4
	note C#, 4
	octave 3
	note B_, 2
	octave 4
	note C#, 4
	octave 3
	note B_, 6
	note A_, 4
	intensity $c8
	vibrato $04, $35
	octave 4
	note G#, 2
	note F_, 2
	note C#, 2
	note F_, 2
	note G#, 6
	note E_, 2
	note C#, 2
	note E_, 2
	note G#, 4
	note F#, 2
	note G#, 2
	note F#, 2
	note E_, 2
	note C#, 4
	octave 3
	note A#, 2
	octave 4
	note C#, 2
	note D#, 2
	note E_, 2
	note F_, 2
	note F#, 2
	note G_, 2
	note G#, 2
	note A_, 2
	note A#, 2
	note B_, 2
	octave 5
	note C#, 2
	note D#, 4
	note C#, 4
	notetype $8, $c8
	octave 4
	note C#, 1
	note F_, 1
	note G#, 1
	octave 5
	note C#, 6
	notetype $6, $c8
	octave 4
	note C#, 2
	note E_, 2
	octave 5
	note C#, 12
	octave 4
	note C#, 2
	note E_, 2
	octave 5
	note C#, 4
	note C#, 2
	octave 4
	note E_, 6
	octave 5
	note C_, 1
	note C#, 7
	note D#, 8
	dutycycle 1
	vibrato $08, $24
	octave 4
	note F_, 2
	note D#, 2
	note C#, 2
	note D#, 2
	note F_, 12
	octave 3
	note A_, 4
	octave 4
	note C#, 4
	note D#, 4
	note F_, 4
	note D#, 1
	note F_, 1
	note D#, 2
	note C#, 4
	note F_, 4
	note A#, 4
	note A_, 4
	note A#, 4
	octave 5
	note C_, 4
	intensity $c7
	note C#, 2
	note C_, 2
	octave 4
	note A#, 2
	octave 5
	note C_, 2
	note C#, 12
	note C_, 4
	octave 4
	note A#, 4
	octave 5
	note C_, 4
	note C#, 2
	octave 4
	note B_, 2
	note A_, 2
	note B_, 2
	octave 5
	note C#, 12
	note D#, 4
	note E_, 4
	note F#, 4
	notetype $10, $c8
	note C#, 12
	note C#, 4
	intensity $c7
	note C#, 8
	notetype $6, $c1
	jumpchannel .loop

.sub
	notetype $c, $c5
	note F#, 1
	note F_, 1
	note F#, 2
	note F_, 1
	intensity $c8
	note D#, 11
	intensity $c5
	note F_, 1
	note F#, 1
	note F_, 1
	note D#, 2
	intensity $c7
	note C#, 16
	endchannel

Music_Route210_Ch3:
	notetype $6, $12
	octave 1
	note G#, 1
	note __, 1
	note G#, 1
	note __, 1
.loop
	notetype $c, $12
	note G#, 16
	note __, 2
	note G#, 2
	note __, 2
	note G#, 2
	note __, 2
	note G#, 2
	octave 2
	note C_, 2
	notetype $6, $12
	note G#, 1
	note __, 1
	callchannel .sub1
	note G#, 2
	note C#, 4
	note __, 8
	note C_, 2
	note C#, 1
	note __, 1
	note G_, 2
	callchannel .sub1
	note A#, 2
	note C#, 4
	octave 1
	note A#, 2
	octave 2
	note A#, 1
	note __, 3
	note A#, 1
	note __, 5
	note G_, 2
	callchannel .sub1
	note G#, 2
	note C#, 4
	octave 3
	note C#, 1
	note __, 1
	octave 2
	note G#, 2
	note F_, 1
	note F#, 1
	note D#, 1
	octave 1
	note G#, 1
	octave 2
	note C#, 1
	note __, 1
	note C#, 1
	note __, 1
	note G_, 2
	callchannel .sub1
	note A#, 2
	note C#, 4
	octave 1
	note A#, 2
	octave 2
	note A#, 2
	note __, 2
	note A#, 2
	note F#, 2
	octave 1
	note A#, 2
	callchannel .sub2
	note G#, 2
	note C#, 6
	note __, 6
	note C_, 2
	note C#, 2
	callchannel .sub2
	note A#, 2
	note C#, 4
	note A_, 2
	note A#, 2
	note F_, 2
	note F#, 2
	note D_, 2
	note D#, 2
	callchannel .sub2
	note G#, 2
	note C#, 4
	note __, 8
	note C_, 2
	note C#, 1
	note __, 1
	note G_, 2
	note G#, 1
	note __, 1
	note G#, 4
	octave 3
	note G#, 1
	note __, 1
	octave 2
	note D#, 4
	octave 3
	note D#, 1
	note __, 1
	octave 2
	note G#, 4
	note D#, 2
	octave 3
	note C_, 4
	octave 2
	note D#, 2
	note B_, 2
	octave 3
	note C_, 2
	callchannel .sub2
	callchannel .sub3
	note A#, 2
	note C#, 6
	note __, 10
	note G_, 2
	callchannel .sub1
	note G#, 2
	note C#, 4
	octave 1
	note G#, 2
	octave 2
	note G#, 1
	note __, 3
	note G#, 1
	note __, 1
	note C_, 2
	note C#, 1
	note __, 1
	note G_, 2
	callchannel .sub1
	note A#, 2
	note C#, 4
	note A#, 2
	note C#, 4
	note A_, 2
	note A#, 2
	note __, 2
	note G_, 2
	callchannel .sub1
	callchannel .sub3
	note G#, 2
	note C#, 6
	octave 1
	note A#, 2
	note __, 2
	note A#, 2
	note __, 2
	note A#, 2
	octave 2
	note G_, 2
	callchannel .sub1
	note G#, 2
	note C#, 4
	octave 3
	note C#, 1
	note __, 1
	octave 2
	note G#, 2
	note F_, 1
	note F#, 1
	note D#, 1
	octave 1
	note G#, 1
	octave 2
	note C#, 1
	note __, 1
	note C#, 1
	note __, 1
	note G#, 1
	note __, 1
	note G#, 1
	note __, 1
	note G#, 4
	octave 3
	note G#, 1
	note __, 1
	octave 2
	note D#, 4
	octave 3
	note D#, 1
	note __, 1
	octave 2
	note G#, 4
	octave 3
	note C#, 2
	octave 2
	note D#, 2
	note __, 2
	note A#, 2
	note D_, 2
	note D#, 2
	intensity $16
	note G_, 2
	note G#, 2
	note F#, 6
	note C#, 2
	note __, 2
	note A#, 2
	note E_, 6
	octave 3
	note C#, 2
	note __, 2
	octave 2
	note E_, 2
	note D#, 2
	note E_, 1
	note __, 3
	note E_, 2
	note F_, 6
	note C_, 2
	note __, 2
	note G#, 2
	note D_, 7
	note __, 1
	note D_, 1
	note __, 3
	note C#, 2
	note D_, 1
	note __, 1
	note G_, 2
	note G#, 1
	note __, 1
	note D#, 6
	octave 1
	note A#, 2
	note __, 2
	octave 2
	note F#, 2
	octave 1
	note G#, 8
	note __, 2
	note G#, 2
	octave 2
	note G#, 4
	note D#, 4
	note C#, 6
	note D#, 6
	note E_, 6
	note G_, 2
	note C#, 4
	note G_, 2
	note G#, 2
	note E_, 2
	note F_, 2
	note F#, 6
	note C#, 2
	note __, 2
	note A#, 2
	note C_, 7
	note __, 1
	note G_, 2
	note G#, 2
	octave 1
	note B_, 2
	octave 2
	note C_, 1
	note __, 1
	octave 1
	note A#, 4
	octave 2
	note F_, 6
	note C_, 2
	note __, 2
	note G#, 2
	octave 1
	note A#, 2
	octave 2
	note F#, 2
	octave 1
	note A#, 2
	note __, 2
	octave 2
	note A#, 2
	octave 1
	note A#, 4
	note __, 2
	note A_, 2
	note A#, 2
	octave 2
	note D#, 2
	octave 1
	note A#, 4
	octave 3
	note C#, 2
	note __, 4
	octave 2
	note D#, 2
	note __, 2
	note F_, 2
	note C_, 2
	note G#, 2
	note C_, 6
	note E_, 2
	note F_, 2
	note F#, 2
	note C#, 2
	note G#, 2
	note A_, 2
	note __, 4
	note F#, 4
	octave 1
	note B_, 2
	note A_, 2
	note __, 2
	note A_, 4
	octave 2
	note A_, 1
	note __, 1
	octave 1
	note B_, 4
	octave 2
	note C#, 6
	note __, 2
	octave 1
	note G#, 6
	note __, 2
	note B_, 6
	note __, 2
	note G#, 6
	note __, 2
	note A#, 6
	note __, 2
	note F#, 6
	note __, 2
	note A_, 2
	octave 2
	note A_, 2
	note __, 2
	note A_, 2
	octave 1
	note B_, 2
	octave 2
	note F#, 2
	note A_, 2
	note B_, 2
	note C#, 3
	note __, 1
	notetype $2, $16
	note C#, 2
	note __, 2
	note C#, 2
	note __, 2
	note C#, 2
	note __, 2
	octave 1
	note G#, 6
	octave 2
	note G#, 6
	note C#, 12
	octave 1
	note B_, 12
	octave 2
	note B_, 6
	octave 1
	note G#, 12
	octave 2
	note G#, 6
	note E_, 12
	octave 1
	note A#, 9
	note __, 3
	note A#, 6
	octave 2
	note A#, 6
	octave 1
	note F#, 6
	octave 2
	note F#, 6
	note __, 6
	octave 1
	note A_, 12
	octave 2
	note A_, 6
	octave 1
	note A_, 12
	note A#, 6
	octave 2
	note C#, 6
	note F_, 6
	note A#, 6
	notetype $6, $12
	note A#, 16
	note A_, 16
	note G#, 16
	note G_, 1
	note __, 1
	note G_, 2
	note F_, 4
	note D#, 4
	note F_, 4
	octave 1
	note A#, 6
	octave 2
	note A#, 1
	note __, 1
	octave 1
	note A#, 2
	octave 2
	note F#, 2
	note C#, 4
	note G#, 2
	note C_, 2
	note __, 2
	note C_, 1
	note __, 1
	note C_, 2
	note G#, 2
	note C_, 2
	octave 1
	note B_, 2
	note A_, 4
	octave 2
	note A_, 2
	note __, 2
	octave 1
	note A_, 4
	octave 2
	note A_, 2
	note __, 2
	octave 1
	note B_, 4
	octave 2
	note B_, 2
	note __, 2
	octave 1
	note B_, 4
	octave 2
	note B_, 2
	note __, 2
.repeat1
	note C#, 4
	octave 3
	note C#, 2
	note __, 2
	octave 2
	loopchannel 3, .repeat1
	note C#, 2
	note E_, 2
	note B_, 2
	octave 3
	note C#, 2
.repeat2
	octave 2
	note C#, 4
	octave 3
	note C#, 2
	note __, 2
	loopchannel 2, .repeat2
	octave 2
	note C#, 2
	octave 3
	note C#, 2
	note __, 2
	note C#, 2
	octave 2
	note C#, 4
	octave 1
	note G#, 1
	note __, 1
	note G#, 1
	note __, 1
	jumpchannel .loop

.sub3
	note G#, 2
	note C#, 6
	note __, 6
	note C_, 2
	note C#, 1
	note __, 1
	note G_, 2
.sub1
	note G#, 1
	note __, 1
	note C#, 4
	octave 3
	note C#, 1
	note __, 1
	octave 1
	note G#, 4
	octave 2
	endchannel

.sub2
	octave 2
	note G_, 2
	note G#, 2
	note C#, 4
	octave 3
	note C#, 1
	note __, 1
	octave 1
	note G#, 4
	octave 2
	endchannel

Music_Route210_Ch4:
	togglenoise 0
	notetype $6
	note __, 4
.loop
	note __, 16
	note __, 16
	note __, 16
	note __, 8
	note D_, 2
	note D_, 2
	note D_, 2
	note D_, 2
.repeat1
	note C#, 6
	note C#, 6
	note C#, 4
	note G_, 2
	note A#, 8
	note C#, 6
	loopchannel 7, .repeat1
	note C#, 6
	note C#, 6
	note C#, 4
	note G_, 2
	note A#, 4
	note C#, 2
	note C#, 4
	note A#, 4
.repeat2
	note C#, 6
	note C#, 6
	note C#, 4
	note G_, 2
	note A#, 8
	note C#, 6
	loopchannel 3, .repeat2
	note C#, 6
	note C#, 2
	note A#, 4
	note C#, 4
	note G_, 2
	note A#, 6
	note A#, 4
	note C#, 4
	note C#, 6
	note C#, 6
	note C#, 4
	note G_, 2
	note A#, 8
	note C#, 6
	note C#, 6
	note C#, 6
	note A#, 4
	note C#, 2
	note A#, 4
	note C#, 6
	note A#, 4
	note C#, 6
	note C#, 6
	note C#, 4
	note G_, 2
	note A#, 8
	note C#, 6
	note A#, 6
	note C#, 6
	note C#, 4
	note G_, 2
	note A#, 4
	note C#, 6
	note A#, 4
	callchannel .sub1
	note C_, 4
	note C_, 2
	note C_, 4
	note C_, 2
.repeat3
	callchannel .sub1
	note C_, 4
	note C_, 2
	note C_, 2
	note D#, 1
	note D#, 1
	note D#, 1
	note D#, 1
	loopchannel 2, .repeat3
	callchannel .sub2
	callchannel .sub1
	note C_, 4
	note C_, 2
	note C_, 6
.repeat4
	callchannel .sub1
	note C_, 4
	note C_, 2
	note C_, 2
	note D#, 1
	note D#, 1
	note D#, 1
	note D#, 1
	loopchannel 2, .repeat4
	callchannel .sub2
	callchannel .sub4
	callchannel .sub4
	callchannel .sub5
	note C_, 4
	notetype $8
	note C_, 1
	note C_, 1
	note C_, 1
	notetype $6
	note D#, 1
	note D#, 1
	note D#, 2
	note D#, 1
	note D#, 1
	note D#, 1
	note D#, 1
	callchannel .sub4
	callchannel .sub5
	callchannel .sub4
	callchannel .sub6
	callchannel .sub5
	note C_, 2
	note C_, 2
	note C_, 8
	note D#, 1
	note D#, 1
	note D#, 1
	note D#, 1
	callchannel .sub6
	callchannel .sub4
	callchannel .sub4
.repeat5
	note C_, 4
	note C_, 4
	callchannel .sub7
	note D#, 1
	note D#, 1
	note C_, 2
	note C_, 2
	note C_, 4
	note C_, 4
	note C_, 2
	note C_, 2
	loopchannel 2, .repeat5
	jumpchannel .loop

.sub1
	note C_, 2
	note C_, 4
	note C_, 2
	note C_, 4
.sub3
	note C_, 2
	note C_, 2
	note D#, 1
	note D#, 1
	note D#, 1
	note D#, 1
	endchannel

.sub2
	note C_, 4
	note C_, 2
	note C_, 6
	note C_, 2
	note C_, 2
	note C_, 2
	note C_, 2
	note D#, 1
	note D#, 1
	note D#, 1
	note D#, 1
	jumpchannel .sub3

.sub4
	note C_, 4
	note C_, 8
	note D#, 1
	note D#, 1
	note D#, 1
	note D#, 1
	endchannel

.sub5
	note C_, 4
	note C_, 4
	rept 8
		note D#, 1
	endr
	note C_, 2
	note C_, 2
	note C_, 4
	note C_, 4
	note D#, 1
	note D#, 1
	note D#, 1
	note D#, 1
	endchannel

.sub6
	note C_, 4
	note C_, 4
	note C_, 2
.sub7
	rept 6
		note D#, 1
	endr
	endchannel
