Music_SeviiSouth:
	channelcount 4
	channel 1, Music_SeviiSouth_Ch1
	channel 2, Music_SeviiSouth_Ch2
	channel 3, Music_SeviiSouth_Ch3
	channel 4, Music_SeviiSouth_Ch4

Music_SeviiSouth_Ch1:
	tempo $90
	volume $77
	stereopanning $f
	notetype $C, $00
	note __, 4
	dutycycle 3
	tone $0002
	intensity $B4
	vibrato $08, $22
	octave 2
	note G_, 6
	note G_, 10
	note G_, 6
	note G_, 6
	note A_, 4
Music_SeviiSouth_Ch1_loop:
	intensity $B5
	note B_, 6
	note A_, 6
	note G_, 4
	octave 3
	note G_, 6
	note F_, 4
	note A_, 2
	note G_, 4
	note E_, 6
	note C_, 2
	octave 2
	notetype $8, $B5
	note G_, 4
	octave 3
	note C_, 4
	note E_, 4
	octave 2
	notetype $C, $B4
	note G_, 3
	note B_, 1
	intensity $B7
	octave 3
	note D_, 8
	note D_, 4
	octave 2
	note B_, 8
	octave 3
	note D_, 4
	note C_, 4
	note G_, 6
	note F_, 4
	note A_, 2
	note G_, 4
	note E_, 6
	note C_, 2
	octave 2
	notetype $8, $B5
	note G_, 4
	octave 3
	note C_, 4
	note E_, 4
	octave 2
	notetype $C, $B4
	note G_, 3
	note B_, 1
	intensity $B7
	octave 3
	note D_, 8
	octave 2
	note B_, 4
	octave 3
	note D_, 3
	note F#, 1
	note G_, 12
	octave 2
	notetype $8, $B4
	note F_, 4
	note E_, 4
	note D_, 4
	intensity $B7
	note D_, 12
	notetype $C, $B7
	note F_, 12
	intensity $B4
	note A_, 4
	note G_, 2
	intensity $B7
	note D_, 10
	intensity $B4
	note A_, 4
	note G_, 3
	note A_, 1
	intensity $B7
	note B_, 8
	note G_, 6
	note F_, 1
	note A_, 1
	note F_, 8
	note A_, 6
	note A_, 1
	octave 3
	note C_, 1
	octave 2
	note A_, 8
	octave 3
	note C_, 6
	octave 2
	note B_, 1
	octave 3
	note C_, 1
	intensity $A0
	note D_, 7
	intensity $A7
	note D_, 7
	note D_, 1
	note F_, 1
	intensity $A0
	note G_, 6
	intensity $A7
	note G_, 6
	octave 2
	jumpchannel Music_SeviiSouth_Ch1_loop

Music_SeviiSouth_Ch2:
	stereopanning $f0
	notetype $C, $00
	note __, 4
	intensity $90
	vibrato $20, $44
	octave 4
	note C_, 8
	intensity $97
	note C_, 8
	intensity $A0
	note D_, 8
	intensity $A7
	note D_, 8
Music_SeviiSouth_Ch2_loop:
	notetype $8, $C7
	note G_, 16
	note D_, 4
	note G_, 4
	octave 5
	note D_, 16
	note F_, 4
	note E_, 4
	notetype $C, $C7
	note C_, 12
	note E_, 4
	note D_, 3
	note C_, 1
	intensity $B7
	octave 4
	note B_, 8
	note B_, 1
	note A_, 1
	note G_, 1
	note A_, 1
	note B_, 8
	notetype $8, $B7
	note G_, 4
	note D_, 4
	note G_, 4
	octave 5
	note D_, 16
	note F_, 4
	note E_, 4
	notetype $C, $C7
	note C_, 12
	note E_, 4
	note D_, 3
	note C_, 1
	intensity $B0
	octave 4
	note B_, 12
	intensity $B7
	note B_, 16
	notetype $8, $C3
	note C_, 4
	octave 3
	note B_, 4
	note A_, 4
	note F_, 15
	octave 4
	notetype $C, $C3
	note F_, 1
	note A_, 1
	octave 5
	note C_, 1
	note __, 1
	octave 4
	note A_, 1
	octave 5
	note C_, 1
	intensity $C5
	note F_, 10
	intensity $C3
	note D_, 4
	note C_, 4
	octave 4
	note B_, 4
	note A_, 2
	notetype $8, $C3
	note G_, 4
	note A_, 4
	note B_, 4
	intensity $C7
	octave 5
	note D_, 12
	intensity $C3
	octave 4
	note C_, 4
	octave 3
	note B_, 4
	note A_, 4
	octave 4
	note F_, 4
	note E_, 4
	note D_, 4
	note A_, 4
	note G_, 4
	note F_, 4
	octave 5
	note C_, 4
	octave 4
	note B_, 4
	note A_, 4
	intensity $C7
	note B_, 16
	note G_, 4
	note B_, 4
	octave 5
	notetype $C, $C7
	note D_, 16
	octave 4
	jumpchannel Music_SeviiSouth_Ch2_loop

Music_SeviiSouth_Ch3:
	notetype $C, $00
	note __, 4
	dutycycle 6
	intensity $16
	octave 3
	note C_, 4
	note __, 2
	note C_, 4
	note __, 6
	octave 2
	note B_, 4
	note __, 2
	note B_, 4
	note __, 2
	note A_, 4
Music_SeviiSouth_Ch3_loop:
	note G_, 4
	note D_, 2
	note G_, 4
	note D_, 2
	note G_, 2
	note A_, 2
	note A#, 4
	note F_, 2
	note A#, 4
	note F_, 2
	note A#, 2
	note B_, 2
	octave 3
	note C_, 4
	octave 2
	note G_, 2
	octave 3
	note C_, 4
	octave 2
	note G_, 2
	octave 3
	note C_, 2
	note E_, 2
	note D_, 2
	octave 2
	note G_, 2
	note B_, 2
	octave 3
	note D_, 4
	octave 2
	note G_, 2
	note A_, 2
	note B_, 2
	octave 3
	note D_, 2
	octave 2
	note B_, 2
	octave 3
	note D_, 2
	note G_, 6
	octave 2
	note G_, 4
	note A#, 4
	note F_, 2
	note A#, 4
	note F_, 2
	note A#, 2
	note B_, 2
	octave 3
	note C_, 4
	octave 2
	note G_, 2
	octave 3
	note C_, 4
	octave 2
	note G_, 2
	octave 3
	note C_, 2
	note E_, 2
	note D_, 2
	octave 2
	note G_, 2
	note B_, 2
	octave 3
	note D_, 4
	octave 2
	note G_, 2
	note A_, 2
	note B_, 2
	octave 3
	note D_, 2
	octave 2
	note B_, 2
	octave 3
	note D_, 2
	note G_, 4
	note D_, 2
	note G_, 2
	note B_, 2
	octave 2
	note A_, 4
	note F_, 2
	note A_, 4
	note F_, 2
	note A_, 2
	note F_, 2
	octave 3
	note C_, 4
	octave 2
	note F_, 2
	octave 3
	note C_, 4
	octave 2
	note F_, 2
	octave 3
	note C_, 2
	octave 2
	note F_, 2
	note B_, 4
	note G_, 2
	note B_, 4
	note G_, 2
	note B_, 2
	note G_, 2
	octave 3
	note D_, 2
	octave 2
	note G_, 2
	note B_, 2
	octave 3
	note G_, 4
	octave 2
	note G_, 2
	note A_, 2
	note B_, 2
	octave 3
	note C_, 4
	octave 2
	note F_, 2
	octave 3
	note C_, 4
	octave 2
	note F_, 2
	octave 3
	note C_, 2
	octave 2
	note F_, 2
	octave 3
	note C_, 4
	octave 2
	note F_, 2
	octave 3
	note C_, 4
	octave 2
	note F_, 2
	octave 3
	note C_, 2
	octave 2
	note F_, 2
	note B_, 4
	note G_, 2
	note B_, 4
	note G_, 2
	note B_, 2
	note G_, 2
	note G_, 4
	note D_, 2
	note G_, 4
	note D_, 2
	note G_, 2
	note D_, 2
	jumpchannel Music_SeviiSouth_Ch3_loop

Music_SeviiSouth_Ch4:
	togglenoise 3
	notetype $C
	note D_, 2
	note D_, 1
	note D_, 1
Music_SeviiSouth_Ch4_loop:
	note D_, 2
	note D_, 1
	note D_, 1
	note G_, 2
	note D_, 2
	note D_, 1
	note D_, 1
	note F#, 6
	note D_, 2
	note D_, 1
	note D_, 1
	note G_, 2
	note D_, 2
	note D_, 1
	note D_, 1
	note F#, 3
	note D_, 1
	note D_, 1
	note D_, 1
	jumpchannel Music_SeviiSouth_Ch4_loop
