Music_NaljoTrainerBattle:
	channelcount 3
	channel 1, Music_NaljoTrainerBattle_Ch1
	channel 2, Music_NaljoTrainerBattle_Ch2
	channel 3, Music_NaljoTrainerBattle_Ch3

Music_NaljoTrainerBattle_Ch1:
	sound_duty 1, 1, 1, 1
	tempo $65
	dutycycle $1
	notetype $c, $c7
	stereopanning $ff
	octave 3
	note G_, 1
	note F#, 1
	note F_, 1
	note E_, 1
	note F_, 1
	note E_, 1
	note D#, 1
	note D_, 1
	note D#, 1
	note D_, 1
	note C#, 1
	note C_, 1
	note C#, 1
	note C_, 1
	octave 2
	note B_, 1
	note A#, 1
	note B_, 1
	note A#, 1
	note A_, 1
	note G#, 1
	note A_, 1
	note G#, 1
	note G_, 1
	note F#, 1
	note G_, 1
	note F#, 1
	note F_, 1
	note E_, 1
	note F_, 1
	note E_, 1
	note D#, 1
	note D_, 1
	dutycycle $3
	intensity $c4
	vibrato $11, $12
	octave 3
	note G_, 6
	note C_, 6
	note G_, 4
	note F_, 6
	note D_, 6
	octave 2
	note A#, 4
	octave 3
	note C_, 6
	octave 2
	note G_, 10
	note F_, 6
	note A#, 10
	dutycycle $1
	intensity $c7
	vibrato $0, $0
	octave 3
	note G_, 6
	note C_, 6
	note G_, 4
	note F_, 6
	note F_, 6
	note F_, 4
	dutycycle $0
	vibrato $9, $12
	octave 5
	note C_, 6
	octave 4
	note G_, 6
	octave 5
	note C_, 4
	dutycycle $3
	sound_duty 0, 1, 1, 0
	intensity $c2
	vibrato $0, $0
	octave 3
	note A#, 2
	dutycycle $1
	sound_duty 1, 1, 1, 1
	intensity $c8
	octave 4
	note A#, 2
	dutycycle $3
	sound_duty 0, 1, 1, 0
	intensity $c2
	octave 3
	note A_, 2
	dutycycle $1
	sound_duty 1, 1, 1, 1
	intensity $c8
	octave 4
	note A_, 2
	dutycycle $3
	sound_duty 0, 1, 1, 0
	intensity $c2
	octave 3
	note A#, 2
	dutycycle $1
	sound_duty 1, 1, 1, 1
	intensity $c8
	octave 4
	note A#, 2
	dutycycle $3
	sound_duty 0, 1, 1, 0
	intensity $c2
	octave 3
	note B_, 2
	dutycycle $1
	sound_duty 1, 1, 1, 1
	intensity $c8
	octave 4
	note B_, 2
.loop
	sound_duty 0, 1, 1, 0
	stereopanning $f0
	dutycycle $3
	intensity $c2
	note A#, 2
	stereopanning $f
	note G#, 2
	stereopanning $f0
	note A#, 2
	octave 5
	stereopanning $f
	note C#, 4
	stereopanning $f0
	octave 4
	note F_, 2
	stereopanning $f
	note G#, 2
	stereopanning $f0
	note A_, 2
	stereopanning $f
	note A#, 2
	stereopanning $f0
	note G#, 2
	stereopanning $f
	note A#, 2
	stereopanning $f0
	octave 5
	note C#, 4
	stereopanning $f
	octave 4
	note F_, 2
	stereopanning $f0
	note G#, 2
	stereopanning $f
	note A_, 2
	stereopanning $f0
	note B_, 2
	stereopanning $f
	note A_, 2
	stereopanning $f0
	note B_, 2
	octave 5
	stereopanning $f
	note D#, 4
	stereopanning $f0
	octave 4
	note A_, 2
	stereopanning $f
	note B_, 2
	stereopanning $f0
	note F#, 2
	stereopanning $f
	note B_, 2
	stereopanning $f0
	note A_, 2
	stereopanning $f
	note B_, 2
	stereopanning $f0
	note F#, 2
	octave 5
	stereopanning $f
	note D#, 2
	stereopanning $f0
	octave 4
	note F#, 2
	stereopanning $f
	note B_, 2
	stereopanning $f0
	note F#, 2
	sound_duty 1, 1, 1, 1
	dutycycle $0
	intensity $c7
	vibrato $9, $12
	note A#, 2
	stereopanning $f
	note G#, 2
	stereopanning $f0
	note A#, 2
	stereopanning $f
	octave 5
	note C#, 4
	stereopanning $f
	octave 4
	note F_, 2
	stereopanning $f0
	note G#, 2
	stereopanning $f
	note A_, 2
	stereopanning $f0
	note A#, 2
	stereopanning $f
	note G#, 2
	stereopanning $f0
	note A#, 2
	octave 5
	stereopanning $f
	note C#, 4
	stereopanning $f0
	octave 4
	note F_, 2
	stereopanning $f
	note G#, 2
	stereopanning $f0
	note A#, 2
	stereopanning $f
	note B_, 2
	stereopanning $f0
	octave 3
	note B_, 2
	stereopanning $f
	octave 4
	note E_, 2
	stereopanning $f0
	octave 3
	note E_, 2
	stereopanning $f
	note G#, 2
	stereopanning $f0
	octave 4
	note E_, 2
	stereopanning $f
	octave 3
	note E_, 2
	stereopanning $f0
	note G#, 2
	dutycycle $3
	sound_duty 0, 1, 1, 0
	intensity $c5
	vibrato $0, $0
	octave 4
	stereopanning $f
	note A#, 2
	stereopanning $f0
	octave 3
	note A#, 2
	octave 4
	stereopanning $f
	note F#, 2
	stereopanning $f0
	note A#, 2
	intensity $c2
	octave 5
	stereopanning $f
	note C#, 2
	stereopanning $f0
	note C_, 2
	octave 4
	stereopanning $f
	note A#, 2
	stereopanning $f0
	octave 5
	note C#, 2
	stereopanning $ff
	note C_, 1
	note __, 1
	sound_duty 1, 1, 1, 1
	octave 3
	note G_, 1
	note __, 1
	dutycycle $0
	intensity $a2
	note G_, 1
	note __, 1
	intensity $c7
	vibrato $9, $12
	octave 4
	note G_, 4
	intensity $a2
	vibrato $0, $0
	octave 3
	note G_, 1
	note __, 1
	intensity $c7
	vibrato $9, $12
	octave 4
	note G_, 4
	octave 3
	intensity $a2
	vibrato $0, $0
	note D#, 1
	note __, 1
	note D#, 1
	note __, 1
	note D#, 1
	note __, 1
	dutycycle $3
	intensity $c7
	vibrato $11, $12
	octave 4
	note D#, 4
	dutycycle $0
	intensity $a2
	vibrato $0, $0
	octave 3
	note D#, 2
	dutycycle $3
	intensity $c7
	vibrato $11, $12
	octave 4
	note D#, 4
	octave 2
	dutycycle $0
	intensity $a2
	vibrato $0, $0
	note G#, 1
	note __, 1
	note G#, 1
	note __, 1
	note G#, 1
	note __, 1
	dutycycle $3
	intensity $c7
	vibrato $11, $12
	octave 3
	note G#, 4
	dutycycle $0
	intensity $a2
	vibrato $0, $0
	octave 2
	note G#, 1
	note __, 1
	dutycycle $3
	intensity $c7
	vibrato $11, $12
	octave 3
	note G#, 4
	dutycycle $0
	intensity $a2
	vibrato $0, $0
	octave 2
	note A#, 1
	note __, 1
	note A#, 1
	note __, 1
	note A#, 1
	note __, 1
	intensity $c7
	vibrato $9, $12
	octave 3
	note A#, 1
	note __, 1
	octave 2
	note A#, 1
	note __, 1
	octave 3
	note A#, 1
	note __, 1
	octave 4
	note D_, 1
	note __, 1
	octave 3
	note A#, 1
	note __, 1
	octave 4
	note C_, 16
	dutycycle $1
	intensity $c8
	vibrato $0, $0
	dutycycle $3
	intensity $c7
	vibrato $11, $12
	note C_, 16
	sound_duty 0, 1, 1, 0
	intensity $f
	vibrato $0, $0
	octave 5
	note C_, 16
	intensity $c7
	note C_, 16
	sound_duty 1, 1, 1, 1
	intensity $c2
	octave 3
	note G#, 1
	note __, 1
	note G#, 1
	note __, 1
	note G#, 1
	note __, 1
	dutycycle $0
	intensity $c7
	vibrato $9, $12
	octave 4
	note G#, 4
	intensity $a2
	vibrato $0, $0
	octave 3
	note G#, 1
	note __, 1
	intensity $c7
	vibrato $9, $12
	octave 4
	note G#, 4
	octave 3
	intensity $a2
	vibrato $0, $0
	note E_, 1
	note __, 1
	note E_, 1
	note __, 1
	note E_, 1
	note __, 1
	dutycycle $3
	intensity $c7
	vibrato $11, $12
	octave 4
	note E_, 4
	dutycycle $0
	intensity $a2
	vibrato $0, $0
	octave 3
	note E_, 1
	note __, 1
	dutycycle $3
	intensity $c7
	vibrato $11, $12
	octave 4
	note E_, 4
	octave 2
	dutycycle $0
	intensity $a2
	vibrato $0, $0
	note A_, 1
	note __, 1
	note A_, 1
	note __, 1
	note A_, 1
	note __, 1
	dutycycle $3
	intensity $c7
	vibrato $11, $12
	octave 3
	note A_, 4
	dutycycle $0
	intensity $a2
	vibrato $0, $0
	octave 2
	note A_, 1
	note __, 1
	dutycycle $3
	intensity $c7
	vibrato $11, $12
	octave 3
	note A_, 4
	dutycycle $0
	intensity $a2
	vibrato $0, $0
	octave 2
	note B_, 1
	note __, 1
	note B_, 1
	note __, 1
	note B_, 1
	note __, 1
	intensity $c7
	vibrato $9, $12
	octave 3
	note B_, 1
	note __, 1
	octave 2
	note B_, 1
	note __, 1
	octave 3
	note B_, 1
	note __, 1
	octave 4
	note D#, 1
	note __, 1
	octave 3
	note B_, 1
	note __, 1
	octave 4
	note C#, 16
	dutycycle $1
	intensity $c8
	vibrato $0, $0
	dutycycle $3
	intensity $c7
	vibrato $11, $12
	note C#, 16
	sound_duty 0, 1, 1, 0
	intensity $f
	vibrato $0, $0
	note C#, 16
	intensity $c7
	note C#, 6
	stereopanning $f0
	intensity $c2
	octave 3
	note C#, 4
	stereopanning $f
	octave 2
	note G#, 2
	stereopanning $f0
	octave 3
	note C#, 2
	stereopanning $f
	note E_, 2
	stereopanning $f0
	octave 2
	note B_, 16
	note B_, 2
	intensity $f
	intensity $c2
	note B_, 4
	stereopanning $f
	note B_, 4
	stereopanning $f0
	note G#, 2
	stereopanning $f
	note B_, 2
	octave 3
	stereopanning $f0
	note C#, 2
	octave 2
	stereopanning $f
	intensity $f
	note A#, 16
	note A#, 6
	intensity $c2
	stereopanning $f0
	note A#, 4
	stereopanning $f
	note G_, 2
	stereopanning $f0
	note A#, 2
	octave 3
	stereopanning $f
	note C_, 2
	stereopanning $f0
	intensity $f
	octave 2
	note A_, 16
	stereopanning $f
	intensity $c5
	note G#, 8
	stereopanning $f0
	octave 3
	note C_, 8
	stereopanning $f
	note C#, 16
	note C#, 2
	intensity $f
	intensity $c2
	note C#, 4
	intensity $c5
	stereopanning $f0
	note C#, 6
	dutycycle $1
	intensity $c7
	vibrato $11, $12
	octave 4
	sound_duty 1, 1, 1, 1
	stereopanning $ff
	note C#, 2
	note B_, 2
	note G_, 16
	note D#, 10
	dutycycle $2
	intensity $b5
	vibrato $0, $0
	note D#, 2
	note G_, 4
	note D_, 16
	octave 3
	note A#, 8
	octave 4
	note F_, 8
	dutycycle $3
	intensity $c5
	octave 3
	note D#, 16
	octave 2
	note G_, 16
	intensity $f
	octave 3
	stereopanning $f
	sound_duty 0, 1, 1, 0
	note G_, 16
	note A#, 16
	sound_duty 1, 1, 1, 1
	stereopanning $ff
	dutycycle $2
	intensity $b5
	octave 2
	note A#, 2
	dutycycle $0
	intensity $a2
	octave 3
	note D#, 2
	octave 2
	note A#, 2
	dutycycle $2
	intensity $b5
	octave 3
	note G_, 4
	dutycycle $0
	intensity $a2
	note D#, 2
	dutycycle $2
	intensity $b5
	note G_, 4
	dutycycle $3
	sound_duty 0, 1, 1, 0
	intensity $c5
	note F#, 8
	note F_, 8
	dutycycle $0
	intensity $a2
	sound_duty 1, 1, 1, 1
	note D#, 2
	dutycycle $3
	intensity $c7
	vibrato $11, $12
	octave 2
	note G_, 4
	dutycycle $0
	intensity $a2
	vibrato $0, $0
	octave 3
	note D#, 4
	dutycycle $3
	intensity $c7
	vibrato $11, $12
	octave 2
	note G_, 2
	octave 3
	note D#, 4
	dutycycle $0
	intensity $a2
	vibrato $0, $0
	note D#, 2
	dutycycle $3
	intensity $c7
	vibrato $11, $12
	octave 2
	note G_, 4
	dutycycle $0
	intensity $a2
	vibrato $0, $0
	octave 3
	note D#, 4
	dutycycle $3
	intensity $c7
	vibrato $11, $12
	octave 2
	note G_, 2
	dutycycle $0
	intensity $a2
	vibrato $0, $0
	octave 3
	note D#, 4
	dutycycle $2
	intensity $b5
	octave 2
	note A#, 2
	dutycycle $0
	intensity $a2
	octave 3
	note D#, 2
	octave 2
	note A#, 2
	dutycycle $2
	intensity $b5
	octave 3
	note G_, 4
	dutycycle $0
	intensity $a2
	note D#, 2
	dutycycle $2
	intensity $b5
	note G_, 4
	dutycycle $3
	sound_duty 0, 1, 1, 0
	intensity $c5
	note F#, 8
	note F_, 8
	sound_duty 1, 1, 1, 1
	dutycycle $0
	intensity $a2
	note D#, 2
	dutycycle $3
	intensity $c7
	vibrato $11, $12
	octave 2
	note G_, 4
	dutycycle $0
	intensity $a2
	vibrato $0, $0
	octave 3
	note D#, 4
	dutycycle $3
	intensity $c7
	vibrato $11, $12
	octave 2
	note G_, 2
	octave 3
	note D#, 4
	dutycycle $0
	intensity $a2
	vibrato $0, $0
	note D#, 2
	dutycycle $3
	intensity $c7
	vibrato $11, $12
	octave 2
	note G_, 4
	dutycycle $0
	intensity $a2
	vibrato $0, $0
	octave 3
	note D#, 4
	dutycycle $3
	intensity $c7
	vibrato $11, $12
	octave 2
	note G_, 2
	octave 3
	note D#, 4
	jumpchannel .loop

Music_NaljoTrainerBattle_Ch2:
	sound_duty 1, 1, 1, 1
	tempo $65
	dutycycle $0
	notetype $c, $a2
	stereopanning $ff
	octave 5
	note C_, 1
	octave 4
	note G_, 1
	note C_, 1
	note G_, 1
	octave 5
	note C_, 1
	octave 4
	note G_, 1
	note C_, 1
	note G_, 1
	octave 5
	note C_, 1
	octave 4
	note G_, 1
	note C_, 1
	note G_, 1
	octave 5
	note C_, 1
	octave 4
	note G_, 1
	note C_, 1
	note G_, 1
	octave 5
	note C_, 1
	octave 4
	note G_, 1
	note C_, 1
	note G_, 1
	octave 5
	note C_, 1
	octave 4
	note G_, 1
	note C_, 1
	note G_, 1
	octave 5
	note C_, 1
	octave 4
	note G_, 1
	note C_, 1
	note G_, 1
	octave 5
	note C_, 1
	octave 4
	note G_, 1
	note C_, 1
	note G_, 1
	dutycycle $3
	intensity $c4
	vibrato $11, $12
	note C_, 6
	octave 3
	note G_, 6
	octave 4
	note C_, 4
	octave 3
	note A#, 4
	note A#, 2
	note G#, 4
	note G#, 2
	note F_, 2
	note F#, 2
	note G_, 6
	note C_, 4
	octave 2
	note G_, 2
	note A#, 2
	octave 3
	note C_, 2
	note D#, 6
	note F_, 4
	octave 2
	note F_, 2
	note G#, 2
	note A#, 2
	dutycycle $0
	intensity $c7
	vibrato $9, $12
	octave 4
	note C_, 6
	octave 3
	note G_, 6
	octave 4
	note C_, 4
	octave 3
	note A#, 4
	note A#, 2
	octave 4
	note D_, 4
	note D_, 2
	octave 3
	note A#, 2
	note B_, 2
	intensity $a2
	vibrato $0, $0
	note G_, 2
	note C_, 2
	note F_, 2
	note A#, 2
	note G_, 2
	note C#, 2
	note G#, 2
	note C_, 2
	dutycycle $3
	intensity $c2
	note F_, 4
	note D_, 4
	octave 2
	note A#, 4
	note B_, 4
.loop
	sound_duty 1, 1, 1, 1
	stereopanning $ff
	intensity $c7
	vibrato $11, $12
	dutycycle $3
	octave 4
	note F_, 6
	octave 3
	note A#, 4
	note F_, 2
	note A#, 2
	octave 4
	note F_, 2
	note D#, 4
	octave 3
	note A#, 4
	octave 4
	note D#, 4
	note F_, 4
	dutycycle $1
	vibrato $0, $0
	note F#, 16
	dutycycle $3
	vibrato $11, $12
	octave 3
	note B_, 4
	note F#, 2
	note B_, 2
	octave 4
	note F#, 2
	note D#, 2
	octave 3
	note B_, 2
	octave 4
	note D#, 2
	dutycycle $0
	vibrato $9, $12
	octave 3
	note F_, 6
	octave 2
	note A#, 4
	note F_, 2
	note A#, 2
	octave 3
	note F_, 2
	note D#, 4
	octave 2
	note A#, 4
	octave 3
	note D#, 4
	note F_, 4
	note E_, 8
	note B_, 4
	octave 4
	note C#, 4
	note D#, 8
	octave 3
	note A#, 8
	dutycycle $3
	vibrato $11, $12
	note C_, 2
	note C_, 2
	note C_, 2
	octave 4
	note C_, 4
	octave 3
	note C_, 2
	octave 4
	note C_, 4
	dutycycle $0
	intensity $a2
	vibrato $0, $0
	octave 2
	note G_, 2
	note G_, 2
	note G_, 2
	dutycycle $3
	intensity $c7
	vibrato $11, $12
	octave 4
	note G_, 4
	dutycycle $0
	intensity $a2
	vibrato $0, $0
	octave 2
	note G_, 2
	dutycycle $3
	intensity $c7
	vibrato $11, $12
	octave 4
	note G_, 4
	dutycycle $0
	intensity $a2
	vibrato $0, $0
	octave 2
	note F_, 2
	note F_, 2
	note F_, 2
	intensity $c7
	vibrato $9, $12
	octave 4
	note F_, 4
	intensity $a2
	vibrato $0, $0
	octave 2
	note F_, 2
	intensity $c7
	vibrato $9, $12
	octave 4
	note F_, 4
	dutycycle $3
	vibrato $11, $12
	octave 2
	note D_, 2
	note D_, 2
	note D_, 2
	dutycycle $0
	vibrato $9, $12
	octave 3
	note D_, 2
	octave 2
	note D_, 2
	octave 3
	note D_, 2
	note A#, 2
	note D_, 2
	intensity $a2
	vibrato $0, $0
	note D#, 2
	dutycycle $3
	intensity $c7
	vibrato $11, $12
	octave 2
	note G_, 4
	dutycycle $0
	intensity $a2
	vibrato $0, $0
	octave 3
	note D#, 4
	dutycycle $3
	intensity $c7
	vibrato $11, $12
	octave 2
	note G_, 2
	octave 3
	note D#, 4
	dutycycle $0
	intensity $a2
	vibrato $0, $0
	note D#, 2
	dutycycle $3
	intensity $c7
	vibrato $11, $12
	octave 2
	note G_, 4
	dutycycle $0
	intensity $a2
	vibrato $0, $0
	octave 3
	note D#, 4
	dutycycle $3
	intensity $c7
	vibrato $11, $12
	octave 2
	note G_, 2
	octave 3
	note D#, 4
	dutycycle $0
	intensity $a2
	vibrato $0, $0
	note D#, 2
	dutycycle $3
	intensity $c7
	vibrato $11, $12
	octave 2
	note G_, 4
	dutycycle $0
	intensity $a2
	vibrato $0, $0
	octave 3
	note D#, 4
	dutycycle $3
	intensity $c7
	vibrato $11, $12
	octave 2
	note G_, 2
	dutycycle $0
	intensity $a2
	vibrato $0, $0
	octave 3
	note D#, 6
	octave 2
	note G_, 2
	octave 3
	note D#, 2
	note F#, 2
	note G_, 2
	octave 2
	note G_, 2
	octave 3
	note C_, 2
	note D#, 2
	dutycycle $3
	intensity $c7
	vibrato $11, $12
	note C#, 2
	note C#, 2
	note C#, 2
	octave 4
	note C#, 4
	octave 3
	note C#, 2
	octave 4
	note C#, 4
	dutycycle $0
	intensity $a2
	vibrato $0, $0
	octave 2
	note G#, 2
	note G#, 2
	note G#, 2
	dutycycle $3
	intensity $c7
	vibrato $11, $12
	octave 4
	note G#, 4
	dutycycle $0
	intensity $a2
	vibrato $0, $0
	octave 2
	note G#, 2
	dutycycle $3
	intensity $c7
	vibrato $11, $12
	octave 4
	note G#, 4
	dutycycle $0
	intensity $a2
	vibrato $0, $0
	octave 2
	note F#, 2
	note F#, 2
	note F#, 2
	intensity $c7
	vibrato $9, $12
	octave 4
	note F#, 4
	intensity $a2
	vibrato $0, $0
	octave 2
	note F#, 2
	intensity $c7
	vibrato $9, $12
	octave 4
	note F#, 4
	dutycycle $3
	vibrato $11, $12
	octave 2
	note D#, 2
	note D#, 2
	note D#, 2
	dutycycle $0
	vibrato $9, $12
	octave 3
	note D#, 2
	octave 2
	note D#, 2
	octave 3
	note D#, 2
	note B_, 2
	note D#, 2
	intensity $a2
	vibrato $0, $0
	note E_, 2
	dutycycle $3
	intensity $c7
	vibrato $11, $12
	octave 2
	note G#, 4
	dutycycle $0
	intensity $a2
	vibrato $0, $0
	octave 3
	note E_, 4
	dutycycle $3
	intensity $c7
	vibrato $11, $12
	octave 2
	note G#, 2
	octave 3
	note E_, 4
	dutycycle $0
	intensity $a2
	vibrato $0, $0
	note E_, 2
	dutycycle $3
	intensity $c7
	vibrato $11, $12
	octave 2
	note G#, 4
	dutycycle $0
	intensity $a2
	vibrato $0, $0
	octave 3
	note E_, 4
	dutycycle $3
	intensity $c7
	vibrato $11, $12
	octave 2
	note G#, 2
	octave 3
	note E_, 4
	dutycycle $0
	intensity $a2
	vibrato $0, $0
	note E_, 2
	dutycycle $3
	intensity $c7
	vibrato $11, $12
	octave 2
	note G#, 4
	dutycycle $0
	intensity $a2
	vibrato $0, $0
	octave 3
	note E_, 4
	dutycycle $3
	intensity $c7
	vibrato $11, $12
	octave 2
	note G#, 2
	octave 3
	note E_, 4
	dutycycle $0
	intensity $a2
	vibrato $0, $0
	note E_, 2
	dutycycle $3
	intensity $c7
	vibrato $11, $12
	octave 2
	note G#, 4
	dutycycle $0
	intensity $a2
	vibrato $0, $0
	octave 3
	note E_, 4
	dutycycle $3
	intensity $c7
	vibrato $11, $12
	octave 2
	note G#, 2
	dutycycle $0
	intensity $a2
	vibrato $0, $0
	octave 3
	note E_, 4
	note E_, 2
	dutycycle $3
	intensity $c7
	vibrato $11, $12
	octave 2
	note B_, 4
	dutycycle $0
	intensity $a2
	vibrato $0, $0
	octave 3
	note E_, 4
	dutycycle $3
	intensity $c7
	vibrato $11, $12
	octave 2
	note B_, 2
	octave 3
	note E_, 4
	dutycycle $0
	intensity $a2
	vibrato $0, $0
	note E_, 2
	dutycycle $3
	intensity $c7
	vibrato $11, $12
	octave 2
	note B_, 4
	dutycycle $0
	intensity $a2
	vibrato $0, $0
	octave 3
	note E_, 4
	dutycycle $3
	intensity $c7
	vibrato $11, $12
	octave 2
	note B_, 2
	octave 3
	note E_, 4
	dutycycle $0
	intensity $a2
	vibrato $0, $0
	note E_, 2
	dutycycle $3
	intensity $c7
	vibrato $11, $12
	octave 2
	note A#, 4
	dutycycle $0
	intensity $a2
	vibrato $0, $0
	octave 3
	note E_, 4
	dutycycle $3
	intensity $c7
	vibrato $11, $12
	octave 2
	note A#, 2
	octave 3
	note E_, 4
	dutycycle $0
	intensity $a2
	vibrato $0, $0
	note E_, 2
	dutycycle $3
	intensity $c7
	vibrato $11, $12
	octave 2
	note A#, 4
	dutycycle $0
	intensity $a2
	vibrato $0, $0
	octave 3
	note E_, 4
	dutycycle $3
	intensity $c7
	vibrato $11, $12
	octave 2
	note A#, 2
	dutycycle $0
	intensity $a2
	vibrato $0, $0
	octave 3
	note E_, 4
	note E_, 2
	dutycycle $3
	intensity $c7
	vibrato $11, $12
	octave 2
	note A_, 4
	dutycycle $0
	intensity $a2
	vibrato $0, $0
	octave 3
	note E_, 4
	dutycycle $3
	intensity $c7
	vibrato $11, $12
	octave 2
	note A_, 2
	octave 3
	note E_, 4
	dutycycle $0
	intensity $a2
	vibrato $0, $0
	note E_, 2
	dutycycle $3
	intensity $c7
	vibrato $11, $12
	octave 2
	note G#, 4
	dutycycle $0
	intensity $a2
	vibrato $0, $0
	octave 3
	note E_, 6
	dutycycle $0
	intensity $a2
	vibrato $0, $0
	note C_, 4
	note E_, 2
	dutycycle $3
	intensity $c7
	vibrato $11, $12
	note C#, 4
	dutycycle $0
	intensity $a2
	vibrato $0, $0
	note E_, 4
	dutycycle $3
	intensity $c7
	vibrato $11, $12
	note C#, 2
	note E_, 4
	dutycycle $0
	intensity $a2
	vibrato $0, $0
	note E_, 2
	dutycycle $3
	intensity $c7
	vibrato $11, $12
	note C#, 4
	dutycycle $0
	intensity $a2
	vibrato $0, $0
	note E_, 4
	dutycycle $3
	intensity $c7
	vibrato $11, $12
	note C#, 2
	note E_, 2
	note F#, 2
	octave 5
	note C_, 16
	octave 4
	note G_, 12
	octave 5
	note C_, 4
	octave 4
	note A#, 16
	note F_, 8
	note G#, 8
	note G_, 16
	octave 3
	note A#, 16
	stereopanning $f0
	intensity $f
	vibrato $0, $0
	octave 4
	sound_duty 0, 1, 1, 0
	note D#, 16
	note F_, 16
	stereopanning $ff
	intensity $c7
	vibrato $11, $12
	note A#, 2
	dutycycle $0
	intensity $a2
	vibrato $0, $0
	note D#, 2
	octave 3
	note A#, 2
	dutycycle $3
	intensity $c7
	vibrato $11, $12
	note A#, 4
	dutycycle $0
	intensity $a2
	vibrato $0, $0
	octave 4
	note D#, 2
	dutycycle $3
	intensity $c7
	vibrato $11, $12
	octave 3
	note A#, 4
	note A_, 2
	note D_, 2
	octave 2
	note A_, 2
	octave 3
	note D_, 2
	note G#, 2
	note C#, 2
	octave 2
	note G#, 2
	octave 3
	note C#, 2
	sound_duty 0, 1, 1, 0
	intensity $f
	vibrato $0, $0
	note C_, 16
	dutycycle $0
	intensity $a2
	sound_duty 1, 1, 1, 1
	octave 2
	note C_, 2
	note C_, 2
	note C_, 2
	dutycycle $3
	intensity $c2
	octave 4
	note C_, 4
	intensity $c7
	vibrato $11, $12
	octave 2
	note C_, 2
	intensity $c2
	vibrato $0, $0
	octave 4
	note C_, 4
	intensity $c7
	vibrato $11, $12
	note A#, 2
	dutycycle $0
	intensity $a2
	vibrato $0, $0
	note D#, 2
	octave 3
	note A#, 2
	dutycycle $3
	intensity $c7
	vibrato $11, $12
	note A#, 4
	dutycycle $0
	intensity $a2
	vibrato $0, $0
	octave 4
	note D#, 2
	dutycycle $3
	intensity $c7
	vibrato $11, $12
	octave 3
	note A#, 4
	note A_, 2
	note D_, 2
	octave 2
	note A_, 2
	octave 3
	note D_, 2
	note G#, 2
	note C#, 2
	octave 2
	note G#, 2
	octave 3
	note C#, 2
	sound_duty 0, 1, 1, 0
	intensity $f
	vibrato $0, $0
	octave 4
	note C_, 16
	dutycycle $0
	intensity $a2
	sound_duty 1, 1, 1, 1
	octave 3
	note C_, 2
	note C_, 2
	note C_, 2
	dutycycle $3
	sound_duty 0, 1, 1, 0
	intensity $c2
	stereopanning $f
	octave 4
	note C_, 4
	intensity $c7
	sound_duty 1, 1, 1, 1
	vibrato $11, $12
	stereopanning $ff
	octave 3
	note C_, 2
	sound_duty 0, 1, 1, 0
	stereopanning $f0
	octave 4
	note C_, 4
	jumpchannel .loop

Music_NaljoTrainerBattle_Ch3:
	tempo $65
	notetype $c, $19
	stereopanning $ff
	octave 3
	note G_, 2
	octave 4
	note C_, 2
	octave 3
	note F#, 2
	note B_, 2
	note F_, 2
	note A#, 2
	note E_, 2
	note A_, 2
	note D#, 2
	note G#, 2
	note D_, 2
	note G_, 2
	octave 2
	note G_, 4
	octave 3
	note G_, 2
	octave 2
	note G_, 2
	octave 3
	note C_, 2
	note G_, 2
	octave 4
	note C_, 2
	octave 3
	note C_, 2
	note G_, 2
	octave 4
	note C_, 2
	octave 3
	note C_, 2
	octave 4
	note C_, 2
	octave 2
	note A#, 2
	octave 3
	note F_, 2
	note A#, 2
	octave 2
	note A#, 2
	octave 3
	note F_, 2
	note A#, 2
	octave 2
	note A#, 2
	octave 3
	note A#, 2
	note C_, 2
	note G_, 2
	octave 4
	note C_, 2
	octave 3
	note C_, 2
	note G_, 2
	octave 4
	note C_, 2
	octave 3
	note C_, 2
	octave 4
	note C_, 2
	octave 2
	note A#, 2
	octave 3
	note F_, 2
	note A#, 2
	octave 2
	note A#, 2
	octave 3
	note D_, 2
	note F_, 2
	octave 2
	note F_, 2
	octave 3
	note D_, 2
	note C_, 2
	note G_, 2
	octave 4
	note C_, 2
	octave 3
	note C_, 2
	note G_, 2
	octave 4
	note C_, 2
	octave 3
	note C_, 2
	octave 4
	note C_, 2
	octave 2
	note A#, 2
	octave 3
	note F_, 2
	note A#, 2
	octave 2
	note A#, 2
	octave 3
	note F_, 2
	note A#, 2
	octave 2
	note A#, 2
	octave 3
	note A#, 2
	note C_, 2
	note F#, 2
	note F_, 2
	note D#, 2
	note F_, 2
	note D#, 2
	note D#, 2
	note F_, 2
	note C_, 2
	note F#, 2
	note F_, 2
	note D#, 2
	note F_, 2
	note D#, 2
	note D#, 2
	note C#, 2
.loop
	octave 2
	note A#, 2
	octave 3
	note F_, 2
	octave 2
	note A#, 2
	octave 3
	note F_, 2
	octave 2
	note A#, 2
	octave 3
	note F_, 2
	octave 2
	note A#, 2
	octave 3
	note F_, 2
	note D#, 2
	note A#, 2
	note D#, 2
	note A#, 2
	note D#, 2
	note A#, 2
	note D#, 2
	note A#, 2
	octave 2
	note B_, 2
	octave 3
	note F#, 2
	octave 2
	note B_, 2
	octave 3
	note F#, 2
	octave 2
	note B_, 2
	octave 3
	note F#, 2
	octave 2
	note B_, 2
	octave 3
	note F#, 2
	octave 2
	note B_, 2
	octave 3
	note F#, 2
	octave 2
	note B_, 2
	octave 3
	note F#, 2
	octave 2
	note B_, 2
	octave 3
	note F#, 2
	octave 2
	note B_, 2
	octave 3
	note F#, 2
	octave 2
	note A#, 2
	octave 3
	note F_, 2
	octave 2
	note A#, 2
	octave 3
	note F_, 2
	octave 2
	note A#, 2
	octave 3
	note F_, 2
	octave 2
	note A#, 2
	octave 3
	note F_, 2
	note D#, 2
	note A#, 2
	note D#, 2
	note A#, 2
	note D#, 2
	note A#, 2
	note D#, 2
	note A#, 2
	note E_, 2
	note B_, 2
	note E_, 2
	note B_, 2
	note E_, 2
	note B_, 2
	note E_, 2
	note B_, 2
	note F#, 2
	octave 4
	note C#, 2
	octave 3
	note F#, 2
	octave 4
	note C#, 2
	octave 3
	note F#, 2
	octave 4
	note C#, 2
	octave 3
	note F#, 2
	octave 4
	note C#, 2
	octave 3
	note C_, 2
	note G_, 2
	note C_, 2
	note G_, 2
	note C_, 2
	note G_, 2
	note C_, 2
	note G_, 2
	note D#, 2
	note A#, 2
	note D#, 2
	note A#, 2
	note D#, 2
	note A#, 2
	note D#, 2
	note A#, 2
	octave 2
	note G#, 2
	octave 3
	note D#, 2
	octave 2
	note G#, 2
	octave 3
	note D#, 2
	octave 2
	note G#, 2
	octave 3
	note D#, 2
	octave 2
	note G#, 2
	octave 3
	note D#, 2
	octave 2
	note A#, 2
	octave 3
	note F_, 2
	octave 2
	note A#, 2
	octave 3
	note F_, 2
	octave 2
	note A#, 2
	octave 3
	note F_, 2
	octave 2
	note A#, 2
	octave 3
	note F_, 2
	note C_, 2
	note G_, 2
	note C_, 2
	note G_, 2
	note C_, 2
	note G_, 2
	note C_, 2
	note G_, 2
	note C_, 2
	note G_, 2
	note C_, 2
	note G_, 2
	note C_, 2
	note G_, 2
	note C_, 2
	note G_, 2
	note C_, 2
	note G_, 2
	note C_, 2
	note G_, 2
	note C_, 2
	note G_, 2
	note C_, 2
	note G_, 2
	note C_, 2
	note G_, 2
	note C_, 2
	note G_, 2
	note C_, 2
	note G_, 2
	note C_, 2
	note G_, 2
	note C#, 2
	note G#, 2
	note C#, 2
	note G#, 2
	note C#, 2
	note G#, 2
	note C#, 2
	note G#, 2
	note E_, 2
	note B_, 2
	note E_, 2
	note B_, 2
	note E_, 2
	note B_, 2
	note E_, 2
	note B_, 2
	octave 2
	note A_, 2
	octave 3
	note E_, 2
	octave 2
	note A_, 2
	octave 3
	note E_, 2
	octave 2
	note A_, 2
	octave 3
	note E_, 2
	octave 2
	note A_, 2
	octave 3
	note E_, 2
	octave 2
	note B_, 2
	octave 3
	note F#, 2
	octave 2
	note B_, 2
	octave 3
	note F#, 2
	octave 2
	note B_, 2
	octave 3
	note F#, 2
	octave 2
	note B_, 2
	octave 3
	note F#, 2
	note C#, 2
	note G#, 2
	note C#, 2
	note G#, 2
	note C#, 2
	note G#, 2
	note C#, 2
	note G#, 2
	note C#, 2
	note G#, 2
	note C#, 2
	note G#, 2
	note C#, 2
	note G#, 2
	note C#, 2
	note G#, 2
	note C#, 2
	note G#, 2
	note C#, 2
	note G#, 2
	note C#, 2
	note G#, 2
	note C#, 2
	note G#, 2
	note C#, 2
	note G#, 2
	note C#, 2
	note G#, 2
	note C#, 2
	note G#, 2
	note C#, 2
	note G#, 2
	note C#, 2
	note G#, 2
	octave 4
	note C#, 2
	octave 3
	note C#, 2
	note G#, 2
	octave 4
	note C#, 2
	octave 3
	note C#, 2
	octave 4
	note C#, 2
	octave 3
	note C#, 2
	note G#, 2
	octave 4
	note C#, 2
	octave 3
	note C#, 2
	note G#, 2
	octave 4
	note C#, 2
	octave 3
	note C#, 2
	octave 4
	note C#, 2
	octave 3
	note C#, 2
	note G#, 2
	octave 4
	note C#, 2
	octave 3
	note C#, 2
	note G#, 2
	octave 4
	note C#, 2
	octave 3
	note C#, 2
	octave 4
	note C#, 2
	octave 3
	note C#, 2
	note G#, 2
	octave 4
	note C#, 2
	octave 3
	note C#, 2
	note G#, 2
	octave 4
	note C#, 2
	octave 3
	note C#, 2
	octave 4
	note C#, 2
	octave 3
	note C#, 2
	note A_, 2
	octave 4
	note C#, 2
	octave 3
	note C#, 2
	note A_, 2
	octave 4
	note C#, 2
	octave 3
	note C#, 2
	octave 4
	note C#, 2
	octave 3
	note C#, 2
	note G#, 2
	octave 4
	note C#, 2
	octave 3
	note C#, 2
	note E_, 2
	octave 4
	note C_, 2
	octave 3
	note C_, 2
	octave 4
	note C_, 2
	octave 3
	note C#, 2
	note G#, 2
	note C#, 2
	note G#, 2
	note C#, 2
	note G#, 2
	note C#, 2
	note G#, 2
	note C#, 2
	note G#, 2
	note C#, 2
	note G#, 2
	note C#, 2
	note G#, 2
	note C#, 2
	note G#, 2
	note C_, 2
	note C_, 2
	note G_, 2
	note G_, 2
	note C_, 2
	note A#, 2
	note D#, 2
	octave 4
	note C_, 2
	octave 3
	note C_, 2
	note D#, 2
	note G_, 2
	octave 4
	note C_, 2
	note D#, 2
	note C_, 2
	octave 3
	note G_, 2
	note D#, 2
	octave 2
	note A#, 2
	note A#, 2
	octave 3
	note A#, 2
	octave 2
	note A#, 2
	octave 4
	note D_, 2
	note D_, 2
	octave 3
	note A#, 2
	note F_, 2
	octave 4
	note F_, 2
	note C_, 2
	note G#, 2
	note F_, 2
	note G#, 2
	note G#, 2
	note G_, 2
	note F_, 2
	note D#, 6
	octave 3
	note D#, 2
	note A#, 6
	octave 2
	note A#, 2
	octave 3
	note G_, 6
	octave 2
	note G_, 2
	octave 3
	note D#, 4
	octave 2
	note A#, 2
	note A#, 2
	octave 3
	note D#, 2
	note D#, 2
	octave 4
	note C_, 2
	octave 3
	note D#, 2
	note D#, 2
	note D#, 2
	octave 4
	note C_, 2
	octave 3
	note D#, 2
	note F_, 2
	note F_, 2
	note A#, 2
	note F_, 2
	note F_, 2
	note B_, 2
	note F_, 2
	note B_, 2
	note D#, 2
	note A#, 2
	note D#, 2
	note A#, 2
	note D#, 2
	note A#, 2
	note D#, 2
	note A#, 2
	note D_, 2
	note A_, 2
	note D_, 2
	note A_, 2
	note C#, 2
	note G#, 2
	note C#, 2
	note G#, 2
	note C_, 2
	note G_, 2
	note C_, 2
	note G_, 2
	note C_, 2
	note G_, 2
	note C_, 2
	note G_, 2
	note C_, 2
	note G_, 2
	note C_, 2
	note G_, 2
	note C_, 2
	note G_, 2
	note C_, 2
	note G_, 2
	note D#, 2
	note A#, 2
	note D#, 2
	note A#, 2
	note D#, 2
	note A#, 2
	note D#, 2
	note A#, 2
	note D_, 2
	note A_, 2
	note D_, 2
	note A_, 2
	note C#, 2
	note G#, 2
	note C#, 2
	note G#, 2
	note C_, 2
	note G_, 2
	note C_, 2
	note G_, 2
	note C_, 2
	note G_, 2
	note C_, 2
	note G_, 2
	note C_, 2
	note G_, 2
	note C_, 2
	note G_, 2
	note C_, 2
	note G_, 2
	note C_, 2
	note G_, 2
	jumpchannel .loop
