Music_SeviiTrainerBattle:
	channelcount 4
	channel 1, Music_SeviiTrainerBattle_Ch1
	channel 2, Music_SeviiTrainerBattle_Ch2
	channel 3, Music_SeviiTrainerBattle_Ch3
	channel 4, Music_SeviiTrainerBattle_Ch4

Music_SeviiTrainerBattle_Ch1:
	tempo $70
	volume $77
	stereopanning $77
	notetype $C, $00
	note __, 8
	intensity $C1
	octave 3
	note A#, 1
	note A_, 1
	note A#, 1
	note A_, 1
	note G#, 1
	note A_, 1
	note G#, 1
	note G_, 1
	note G#, 1
	note G_, 1
	note F#, 1
	note G_, 1
	note F#, 1
	note F_, 1
	note F#, 1
	note F_, 1
	note E_, 1
	note F_, 1
	note E_, 1
	note D#, 1
	note E_, 1
	note D#, 1
	note D_, 1
	note D#, 1
	dutycycle 1
	tone $0002
	intensity $D3
	note G_, 6
	intensity $D1
	octave 2
	note A_, 2
	note __, 4
	intensity $D2
	note A#, 4
	note G_, 2
	intensity $D1
	note A_, 2
	note __, 2
	note A#, 2
	note __, 4
	octave 3
	note F_, 4
	intensity $D3
	note G_, 6
	intensity $D1
	octave 2
	note A_, 2
	note __, 4
	intensity $D2
	note A#, 4
	note G_, 2
	intensity $D1
	note A_, 2
	note __, 2
	intensity $D2
	octave 3
	note C_, 4
	octave 2
	note A#, 2
	octave 3
	notetype $6, $D2
	note E_, 1
	note F_, 1
	note D#, 1
	note E_, 5
	dutycycle 2
	intensity $C1
	note G_, 8
	note __, 4
	note A_, 8
	note __, 4
	note A#, 8
	note G_, 4
	note A_, 4
	note __, 4
	intensity $D3
	note A#, 6
	note A_, 1
	note G#, 1
	note G_, 1
	note F_, 1
	intensity $D1
	note E_, 10
	octave 4
	note G_, 4
	note __, 4
	note G_, 4
	note A_, 4
	note __, 4
	note A_, 4
	note A#, 8
	note G_, 4
	note A_, 4
	note __, 4
	intensity $D3
	note A#, 8
	note A_, 1
	note G#, 1
	note G_, 1
	note F#, 1
	note F_, 8
Music_SeviiTrainerBattle_Ch1_loop:
	dutycycle 1
	intensity $90
	octave 1
	note D#, 2
	note E_, 2
	note B_, 4
	note E_, 4
	note A#, 4
	note E_, 4
	note A_, 4
	note E_, 4
	note G#, 4
	note E_, 4
	note G_, 4
	note E_, 4
	note A_, 4
	note E_, 4
	note A#, 4
	note E_, 4
	note B_, 4
	note E_, 4
	octave 2
	note C_, 4
	octave 1
	note F_, 4
	note B_, 4
	note F_, 4
	note A#, 4
	note F_, 4
	note B_, 4
	note F_, 4
	octave 2
	note C_, 4
	note D_, 4
	note C_, 4
	octave 1
	note B_, 4
	note A_, 4
	note G_, 4
	note F_, 4
	octave 2
	note E_, 4
	octave 1
	note B_, 4
	note A#, 4
	note B_, 4
	note E_, 4
	note B_, 4
	note A_, 4
	note B_, 4
	note E_, 4
	note B_, 4
	note E_, 4
	note B_, 4
	note E_, 4
	note B_, 4
	octave 2
	note E_, 4
	octave 1
	note B_, 4
	note E_, 4
	note A_, 4
	note G_, 4
	note A_, 4
	note G#, 4
	note A_, 4
	note D_, 4
	note A_, 4
	note D_, 4
	note A_, 4
	note G_, 4
	note F#, 4
	note G_, 4
	note F#, 4
	note D_, 4
	note C#, 4
	octave 2
	note C_, 4
	note __, 8
	note G_, 4
	octave 3
	note D_, 4
	note E_, 4
	octave 2
	note B_, 4
	octave 3
	note C_, 4
	note __, 4
	octave 2
	note C_, 4
	note __, 4
	note C_, 4
	note __, 4
	note C_, 4
	note C_, 4
	note C#, 4
	note D_, 4
	note __, 4
	note A_, 4
	note D_, 4
	note E_, 4
	note F#, 4
	note C#, 4
	note D_, 4
	note __, 4
	note D_, 4
	note __, 4
	note G#, 4
	octave 3
	note C#, 4
	note D_, 4
	octave 2
	note D_, 4
	note C#, 4
	note C_, 4
	note __, 8
	note C_, 4
	note __, 4
	note G_, 4
	octave 3
	note D_, 4
	note E_, 4
	octave 2
	note C_, 4
	note G_, 4
	note __, 4
	note G_, 4
	note C_, 4
	note G_, 4
	note C_, 4
	note C#, 4
	note D_, 4
	note A_, 4
	note D_, 4
	note A_, 4
	note D_, 4
	note A_, 4
	note G#, 4
	note A_, 4
	note __, 4
	note D_, 4
	note D_, 4
	note A_, 4
	note D_, 4
	note A_, 4
	note G_, 4
	note F#, 4
	octave 1
	note E_, 4
	note B_, 4
	note E_, 4
	note B_, 4
	note E_, 4
	note B_, 4
	note E_, 4
	note B_, 4
	note E_, 4
	note B_, 4
	note G_, 4
	note A_, 4
	note B_, 4
	note A_, 4
	note G_, 4
	note A_, 4
	note F_, 4
	octave 2
	note C_, 4
	octave 1
	note F_, 4
	octave 2
	note C_, 4
	octave 1
	note F_, 4
	octave 2
	note C_, 4
	octave 1
	note F_, 4
	octave 2
	note C_, 4
	octave 1
	note F_, 4
	octave 2
	note C_, 4
	octave 1
	note G#, 4
	note A#, 4
	octave 2
	note C_, 4
	octave 1
	note A#, 4
	note G#, 4
	note A#, 4
	note F#, 4
	octave 2
	note C#, 4
	octave 1
	note F#, 4
	octave 2
	note C#, 4
	octave 1
	note F#, 4
	octave 2
	note C#, 4
	octave 1
	note F#, 4
	octave 2
	note C#, 4
	octave 1
	note F#, 4
	octave 2
	note C#, 4
	octave 1
	note A_, 4
	note B_, 4
	octave 2
	note C#, 4
	octave 1
	note B_, 4
	note A_, 4
	note B_, 4
	note G_, 4
	octave 2
	note D_, 4
	octave 1
	note G_, 4
	octave 2
	note D_, 4
	octave 1
	note G_, 4
	octave 2
	note D_, 4
	octave 1
	note G_, 4
	octave 2
	note D_, 4
	octave 1
	note G_, 4
	octave 2
	note D_, 4
	octave 1
	note A#, 4
	octave 2
	note C_, 4
	note D_, 4
	note C_, 4
	octave 1
	note A#, 4
	note A_, 4
	tone $0000
	intensity $B5
	octave 4
	note D_, 8
	octave 3
	note A_, 8
	octave 4
	note D_, 4
	note C_, 16
	octave 3
	note E_, 16
	octave 4
	note C_, 12
	intensity $85
	octave 3
	note D_, 4
	note F_, 4
	note G_, 4
	note F_, 4
	intensity $B5
	octave 4
	note D_, 8
	octave 3
	note F_, 8
	note G_, 4
	note A#, 4
	dutycycle 0
	intensity $B1
	note D_, 2
	dutycycle 1
	intensity $B5
	note E_, 2
	note F_, 2
	note G_, 2
	note A_, 4
	note A#, 4
	note G_, 4
	note A#, 4
	note G_, 4
	note A#, 4
	note A_, 4
	note A#, 4
	note G_, 4
	octave 4
	note C_, 4
	octave 3
	note A#, 4
	note G_, 4
	note A_, 4
	note A#, 4
	note A_, 4
	note A#, 4
	note A_, 4
	note A#, 4
	intensity $A5
	note A_, 4
	note A#, 4
	intensity $95
	note A_, 4
	note A#, 4
	intensity $85
	note A_, 4
	note A#, 4
	intensity $75
	note A_, 4
	intensity $65
	note A#, 4
	intensity $75
	note A_, 4
	intensity $65
	note E_, 4
	intensity $A1
	octave 4
	note D_, 2
	note D_, 2
	note __, 4
	octave 3
	note D_, 2
	note __, 2
	note A_, 2
	note __, 2
	intensity $A4
	note A_, 8
	intensity $A1
	note F_, 2
	note E_, 2
	intensity $A4
	note D_, 8
	intensity $A1
	note C_, 2
	octave 2
	note B_, 2
	intensity $A4
	note A_, 8
	intensity $A1
	octave 3
	note C_, 2
	note D_, 2
	note E_, 2
	note F_, 2
	intensity $A4
	note A_, 8
	intensity $A1
	octave 4
	note D#, 2
	note D#, 2
	note __, 2
	octave 3
	note D#, 2
	octave 4
	note D#, 4
	note __, 4
	octave 3
	note D#, 2
	note __, 2
	octave 4
	note D#, 2
	note __, 2
	note D#, 2
	note D_, 2
	intensity $A4
	note C_, 10
	note D_, 2
	note F_, 8
	note D#, 8
	note C_, 8
	intensity $A1
	note D_, 2
	note D_, 2
	note __, 2
	octave 3
	note A_, 2
	note F_, 2
	note __, 2
	note A_, 2
	note __, 2
	octave 4
	note C#, 2
	note D_, 2
	note F_, 4
	note F_, 2
	note D#, 2
	note D_, 4
	note C#, 2
	note D_, 2
	octave 3
	note A_, 2
	note __, 2
	intensity $A4
	octave 4
	note D_, 8
	note C_, 4
	octave 3
	note A#, 4
	note A_, 4
	note G_, 4
	note A#, 4
	intensity $A2
	note G_, 8
	intensity $A4
	octave 4
	note D_, 12
	intensity $A1
	note C_, 2
	octave 3
	note A#, 2
	note G_, 4
	intensity $A4
	octave 4
	note D#, 12
	note D_, 12
	intensity $A1
	note C_, 2
	octave 3
	note A#, 2
	note G_, 2
	note D#, 2
	intensity $A0
	note G_, 16
	intensity $A5
	vibrato $00, $24
	note G_, 16
	intensity $A0
	vibrato $00, $00
	note F_, 16
	intensity $A5
	vibrato $00, $24
	note F_, 16
	intensity $A0
	vibrato $00, $00
	note D#, 16
	intensity $A5
	vibrato $00, $24
	note D#, 16
	intensity $A0
	vibrato $00, $00
	note F_, 16
	intensity $A5
	vibrato $00, $24
	note F_, 16
	intensity $B5
	note G_, 16
	note A#, 16
	note D#, 16
	note F_, 16
	note G_, 16
	note A_, 16
	note A#, 16
	octave 4
	note C_, 16
	intensity $C1
	vibrato $00, $00
	octave 3
	note A_, 4
	note __, 4
	note A_, 2
	note __, 2
	note A_, 4
	note __, 4
	note A_, 2
	note __, 2
	note A_, 4
	note __, 4
	note A_, 4
	note __, 4
	note A_, 2
	note __, 2
	note A_, 4
	note __, 4
	note A_, 2
	note __, 2
	note A_, 4
	note __, 4
	note A_, 4
	note __, 4
	note A_, 2
	note __, 2
	note A_, 4
	note __, 4
	note A_, 2
	note __, 2
	note A_, 4
	note __, 4
	note A_, 4
	note __, 4
	note A_, 2
	note __, 2
	note A_, 4
	note __, 4
	note A_, 2
	note __, 2
	note A_, 4
	note __, 4
	intensity $C0
	octave 1
	note D_, 4
	note A_, 4
	note D_, 4
	note A_, 4
	note D_, 4
	note A_, 4
	note D_, 4
	note A_, 4
	note D_, 4
	note A_, 4
	note D_, 4
	note A_, 4
	note D_, 4
	note A_, 4
	note D_, 4
	note A_, 4
	note D#, 4
	note A#, 4
	note D#, 4
	note A#, 4
	note D#, 4
	note A#, 4
	note D#, 4
	note A#, 4
	note D#, 4
	note A#, 4
	note D#, 4
	note A#, 4
	note D#, 4
	note A#, 4
	note D#, 4
	note A#, 4
	note E_, 4
	note B_, 4
	note E_, 4
	note B_, 4
	note E_, 4
	note B_, 4
	note E_, 4
	note B_, 4
	note E_, 4
	note B_, 4
	note E_, 4
	note B_, 4
	note E_, 4
	note B_, 4
	note E_, 4
	note B_, 4
	note F_, 4
	octave 2
	note C_, 4
	octave 1
	note F_, 4
	octave 2
	note C_, 4
	octave 1
	note F_, 4
	octave 2
	note C_, 4
	octave 1
	note F_, 4
	octave 2
	note C_, 4
	octave 1
	note F_, 4
	octave 2
	note C_, 4
	octave 1
	note B_, 4
	note A_, 4
	note B_, 4
	note A_, 4
	note G_, 4
	note F_, 4
	jumpchannel Music_SeviiTrainerBattle_Ch1_loop

Music_SeviiTrainerBattle_Ch2:
	dutycycle 1
	octave 5
	notetype $C, $D1
	note D_, 1
	note C#, 1
	note C_, 1
	octave 4
	note B_, 1
	octave 5
	note D_, 1
	octave 4
	note A#, 1
	note B_, 1
	note A#, 1
	octave 5
	note D_, 1
	octave 4
	note A_, 1
	note A#, 1
	note A_, 1
	octave 5
	note D_, 1
	octave 4
	note G#, 1
	note A_, 1
	note G#, 1
	octave 5
	note D_, 1
	octave 4
	note G_, 1
	note G#, 1
	note G_, 1
	octave 5
	note D_, 1
	octave 4
	note F#, 1
	note G_, 1
	note F#, 1
	octave 5
	note D_, 1
	octave 4
	note F_, 1
	note F#, 1
	note F_, 1
	octave 5
	note D_, 1
	octave 4
	note E_, 1
	note F_, 1
	note F#, 1
	intensity $D4
	vibrato $04, $24
	note E_, 6
	intensity $D1
	vibrato $00, $00
	octave 3
	note A_, 2
	note __, 4
	intensity $D2
	note A#, 3
	notetype $6, $D2
	note A_, 1
	note G#, 1
	note G_, 4
	intensity $D1
	note A_, 4
	note __, 4
	note A#, 4
	note __, 8
	octave 4
	note D_, 8
	intensity $D4
	vibrato $04, $24
	note E_, 12
	intensity $D1
	vibrato $00, $00
	octave 3
	note A_, 4
	note __, 8
	intensity $D2
	note A#, 6
	note A_, 1
	note G#, 1
	note G_, 4
	intensity $D1
	note A_, 4
	note __, 4
	intensity $D2
	octave 4
	note C_, 8
	octave 3
	note G_, 4
	octave 4
	note D_, 8
	intensity $D1
	note E_, 4
	note __, 2
	intensity $A1
	note E_, 2
	intensity $81
	note E_, 4
	intensity $D1
	note F#, 4
	note __, 2
	intensity $A1
	note F#, 2
	intensity $81
	note F#, 4
	intensity $D1
	note G_, 8
	note E_, 4
	note F#, 4
	note __, 4
	intensity $D3
	note G_, 6
	note F#, 1
	note F_, 1
	note E_, 1
	note D#, 1
	note D_, 2
	note E_, 1
	note F#, 1
	note E_, 1
	note D#, 5
	intensity $D1
	note E_, 4
	note __, 4
	note E_, 4
	note F#, 4
	note __, 4
	note F#, 4
	note G_, 8
	note E_, 4
	note F#, 4
	note __, 4
	intensity $D3
	note G_, 8
	note F#, 1
	note F_, 1
	note E_, 1
	note D#, 1
	note D_, 8
	stereopanning $f
	intensity $B3
	octave 3
	note G_, 4
	note A_, 8
	note F#, 4
	note G_, 8
	note E_, 8
	octave 2
	note B_, 8
	octave 3
	note A_, 4
	note G_, 8
	note F#, 4
	note G_, 4
	note A_, 4
	intensity $B5
	vibrato $04, $24
	note A#, 16
Music_SeviiTrainerBattle_Ch2_loop:
	intensity $B1
	vibrato $00, $00
	note F_, 2
	note F#, 2
	note G_, 2
	note G#, 2
	note A_, 2
	note G#, 2
	note G_, 2
	note F_, 2
	note F_, 2
	note F#, 2
	note G_, 2
	note G#, 2
	note A_, 2
	note A#, 2
	note B_, 2
	octave 4
	note C_, 2
	note C#, 2
	note C_, 2
	octave 3
	note B_, 2
	note A#, 2
	note A_, 2
	note G#, 2
	note G_, 2
	note F#, 2
	intensity $B3
	note G_, 4
	note A_, 8
	note F#, 4
	note G_, 8
	note E_, 8
	octave 2
	note B_, 8
	octave 3
	note A_, 4
	note G_, 8
	note F#, 4
	note __, 4
	note F#, 4
	intensity $B7
	vibrato $04, $24
	note G_, 16
	note F#, 16
	note E_, 16
	note F#, 16
	intensity $B3
	octave 2
	note G_, 4
	octave 3
	note F#, 4
	note E_, 4
	note D_, 4
	note C_, 8
	note G_, 4
	note F#, 4
	note E_, 4
	note D_, 4
	note C_, 12
	note C_, 1
	note F#, 1
	note A_, 1
	note F#, 1
	note E_, 4
	note F#, 4
	note A_, 8
	note C_, 2
	note D_, 2
	note E_, 2
	note F#, 2
	note G_, 8
	octave 2
	note B_, 2
	octave 3
	note C_, 2
	note D_, 2
	note E_, 2
	note F#, 8
	note C_, 2
	note D_, 2
	note E_, 2
	note F#, 2
	note G_, 8
	note C_, 2
	note D_, 2
	note E_, 2
	note F#, 2
	octave 2
	note G_, 4
	octave 3
	note F#, 4
	note E_, 4
	note D_, 4
	note C_, 4
	note __, 4
	note G_, 4
	note F#, 4
	note E_, 4
	note D_, 4
	note E_, 4
	note C_, 4
	note G_, 4
	note A_, 4
	note B_, 4
	octave 4
	note C_, 4
	note D_, 4
	note E_, 4
	note D_, 4
	note C_, 4
	note D_, 4
	note __, 4
	note D_, 4
	note E_, 4
	note D_, 4
	note C_, 4
	octave 3
	note B_, 4
	octave 4
	note C_, 4
	note D_, 4
	octave 3
	note A_, 4
	octave 4
	note C_, 4
	octave 3
	note B_, 4
	dutycycle 0
	intensity $B1
	vibrato $00, $00
	note E_, 2
	note F_, 2
	note F#, 2
	note G_, 2
	note G#, 2
	note A_, 2
	note A#, 2
	note B_, 2
	octave 4
	note C_, 2
	note C#, 2
	note D_, 2
	note D#, 2
	note E_, 2
	note F_, 2
	note F#, 2
	note G_, 2
	note G#, 2
	note G_, 2
	note F#, 2
	note F_, 2
	note E_, 2
	note D#, 2
	note D_, 2
	note C#, 2
	note C_, 2
	octave 3
	note B_, 2
	note A#, 2
	note A_, 2
	note G#, 2
	note G_, 2
	note F#, 2
	note F_, 2
	note F_, 2
	note F#, 2
	note G_, 2
	note G#, 2
	note A_, 2
	note A#, 2
	note B_, 2
	octave 4
	note C_, 2
	note C#, 2
	note D_, 2
	note D#, 2
	note E_, 2
	note F_, 2
	note F#, 2
	note G_, 2
	note G#, 2
	note A_, 2
	note G#, 2
	note G_, 2
	note F#, 2
	note F_, 2
	note E_, 2
	note D#, 2
	note D_, 2
	note C#, 2
	note C_, 2
	octave 3
	note B_, 2
	note A#, 2
	note A_, 2
	note G#, 2
	note G_, 2
	note F#, 2
	note F#, 2
	note G_, 2
	note G#, 2
	note A_, 2
	note A#, 2
	note B_, 2
	octave 4
	note C_, 2
	note C#, 2
	note D_, 2
	note D#, 2
	note E_, 2
	note F_, 2
	note F#, 2
	note G_, 2
	note G#, 2
	note A_, 2
	note A#, 2
	note A_, 2
	note G#, 2
	note G_, 2
	note F#, 2
	note F_, 2
	note E_, 2
	note D#, 2
	note D_, 2
	note C#, 2
	note C_, 2
	octave 3
	note B_, 2
	note A#, 2
	note A_, 2
	note G#, 2
	note G_, 2
	note G_, 2
	note G#, 2
	note A_, 2
	note A#, 2
	note B_, 2
	octave 4
	note C_, 2
	note C#, 2
	note D_, 2
	note D#, 2
	note E_, 2
	note F_, 2
	note F#, 2
	note G_, 2
	note G#, 2
	note A_, 2
	note A#, 2
	note B_, 2
	note A#, 2
	note A_, 2
	note G#, 2
	note G_, 2
	note F#, 2
	note F_, 2
	note E_, 2
	octave 3
	note C_, 2
	note D#, 2
	note F#, 2
	note A_, 2
	octave 4
	note C_, 2
	note D#, 2
	intensity $91
	note F#, 2
	intensity $B1
	note A_, 2
	dutycycle 1
	intensity $D4
	note G_, 8
	note D_, 8
	note F_, 4
	notetype $F, $D7
	note E_, 8
	vibrato $00, $24
	notetype $C, $4E
	note E_, 12
	intensity $D3
	note E_, 8
	vibrato $00, $00
	note G_, 4
	note D_, 4
	note D#, 2
	intensity $D0
	note A#, 6
	intensity $D6
	vibrato $00, $24
	note A#, 8
	intensity $D7
	octave 5
	note C_, 8
	intensity $D4
	vibrato $00, $00
	octave 4
	note A#, 2
	note A_, 2
	note G_, 2
	note F_, 2
	intensity $D0
	note A_, 12
	vibrato $00, $24
	note A_, 10
	intensity $D5
	note A_, 10
	note F_, 6
	intensity $D7
	note D_, 14
	intensity $D5
	note F_, 4
	note D_, 4
	note F_, 4
	note D#, 6
	intensity $D7
	note A#, 14
	intensity $D5
	note D#, 4
	note A#, 4
	note G_, 4
	note F_, 6
	intensity $D7
	note D_, 14
	intensity $D5
	note F_, 4
	note A_, 2
	note G_, 2
	note F_, 2
	note A_, 2
	note G_, 2
	intensity $D1
	note D#, 2
	note __, 2
	intensity $D5
	note A#, 10
	octave 5
	note C_, 6
	octave 4
	note A#, 6
	note G_, 4
	intensity $D0
	vibrato $00, $00
	note A#, 8
	intensity $D5
	vibrato $00, $24
	note A#, 8
	intensity $D0
	vibrato $00, $00
	note A_, 8
	intensity $D5
	vibrato $00, $24
	note A_, 8
	intensity $D0
	vibrato $00, $00
	note G_, 8
	intensity $D5
	vibrato $00, $24
	note G_, 8
	intensity $D0
	vibrato $00, $00
	note A_, 8
	intensity $D5
	vibrato $00, $24
	note A_, 8
	intensity $D0
	vibrato $00, $00
	note A#, 8
	intensity $D5
	vibrato $00, $24
	note A#, 8
	intensity $D0
	vibrato $00, $00
	note A_, 8
	intensity $D5
	vibrato $00, $24
	note A_, 8
	intensity $D0
	vibrato $00, $00
	octave 5
	note C_, 8
	intensity $D5
	vibrato $00, $24
	note C_, 8
	intensity $D0
	vibrato $00, $00
	octave 4
	note A#, 8
	intensity $D5
	vibrato $00, $24
	note A#, 8
	dutycycle 0
	octave 3
	note D#, 6
	note D#, 6
	note D#, 4
	note D_, 6
	note D_, 6
	note D_, 4
	note F_, 6
	note F_, 6
	note F_, 4
	note D#, 6
	note D#, 6
	note D_, 4
	dutycycle 1
	octave 2
	note F_, 2
	note G_, 4
	note E_, 2
	note F#, 4
	note __, 2
	note F#, 1
	note G_, 1
	note A_, 1
	note __, 1
	note G_, 1
	note __, 1
	note E_, 1
	note __, 1
	note F#, 1
	note __, 9
	note G_, 1
	note G#, 1
	note A_, 1
	note A#, 2
	note A_, 1
	note G#, 1
	note G_, 1
	note F#, 2
	note __, 4
	note F#, 1
	note G_, 1
	note A_, 1
	note __, 1
	note A#, 1
	note __, 1
	note A_, 1
	note __, 1
	note G_, 1
	note __, 1
	note G_, 2
	note A_, 2
	note A#, 2
	octave 3
	note C_, 2
	octave 2
	note G#, 1
	note A_, 1
	note A#, 1
	note B_, 2
	note A#, 1
	note A_, 1
	note G#, 1
	note G_, 2
	note __, 8
	note B_, 2
	note A_, 4
	note G#, 2
	note A_, 2
	note B_, 2
	note A#, 2
	note A_, 8
	note B_, 8
	octave 3
	note C_, 8
	note F_, 8
	intensity $B3
	note G_, 2
	note A_, 4
	note F#, 2
	note G_, 4
	note E_, 4
	octave 2
	note B_, 4
	octave 3
	note A_, 2
	note G_, 4
	note F#, 2
	note G_, 2
	intensity $B5
	vibrato $04, $24
	note A#, 10
	notetype $6, $D2
	jumpchannel Music_SeviiTrainerBattle_Ch2_loop

Music_SeviiTrainerBattle_Ch3:
	dutycycle 6
	octave 3
	notetype $C, $16
	note E_, 1
	note D#, 1
	note D_, 1
	note C#, 1
	note D_, 1
	note C#, 1
	note C_, 1
	octave 2
	note B_, 1
	octave 3
	note C_, 1
	octave 2
	note B_, 1
	note A#, 1
	note A_, 1
	note A#, 1
	note A_, 1
	note G#, 1
	note G_, 1
	note G#, 1
	note G_, 1
	note F#, 1
	note F_, 1
	note F#, 1
	note F_, 1
	note E_, 1
	note D#, 1
	note E_, 1
	note D#, 1
	note D_, 1
	note C#, 1
	note D_, 1
	note C#, 1
	note C_, 1
	octave 1
	note B_, 1
	octave 2
	note G_, 2
	note E_, 2
	note G_, 2
	note A_, 2
	note E_, 2
	note A#, 2
	note A_, 2
	note G_, 2
	note D_, 2
	note E_, 2
	note G_, 2
	note A_, 2
	note E_, 2
	note G_, 2
	note D_, 4
	note G_, 2
	note E_, 2
	note G_, 2
	note A_, 2
	note E_, 2
	note A#, 2
	note A_, 2
	note G_, 2
	note D_, 2
	note E_, 2
	note G_, 2
	note A_, 2
	note E_, 2
	note G_, 2
	note D_, 4
	note E_, 2
	note E_, 2
	note G_, 2
	note A_, 2
	note E_, 2
	note A#, 2
	note A_, 2
	note G_, 2
	note E_, 2
	note E_, 2
	note G_, 2
	note A_, 2
	note E_, 2
	note G_, 2
	note D#, 2
	octave 3
	note D#, 2
	octave 2
	note E_, 2
	note E_, 2
	note G_, 2
	note A_, 2
	note E_, 2
	note A#, 2
	note A_, 2
	note G_, 2
	note E_, 2
	note E_, 2
	note G_, 2
	note A_, 2
	note E_, 2
	octave 3
	note C_, 2
	octave 2
	note D#, 2
	note D#, 2
	dutycycle 8
	intensity $18
	octave 4
	stereopanning $f0
	note E_, 4
	notetype $6, $18
	note D#, 1
	note D_, 1
	note C#, 1
	note C_, 1
	octave 3
	note B_, 16
	intensity $28
	note B_, 12
	intensity $18
	octave 4
	note E_, 4
	note D#, 1
	note D_, 1
	note C#, 1
	note C_, 1
	octave 3
	note B_, 8
	octave 4
	note E_, 8
	notetype $C, $18
	note F_, 16
	intensity $28
	note F_, 8
	intensity $18
	note F_, 8
Music_SeviiTrainerBattle_Ch3_loop:
	octave 5
	note E_, 4
	notetype $6, $18
	note D#, 1
	note D_, 1
	note C#, 1
	note C_, 1
	octave 4
	notetype $F, $18
	note B_, 8
	notetype $C, $28
	note B_, 4
	intensity $18
	octave 5
	note E_, 2
	notetype $6, $18
	note D#, 1
	note D_, 1
	note C#, 1
	note C_, 1
	octave 4
	note B_, 8
	octave 5
	note E_, 8
	notetype $C, $18
	note D_, 16
	intensity $28
	note D_, 8
	intensity $18
	note D_, 4
	dutycycle 2
	octave 4
	notetype $6, $12
	note E_, 1
	note F#, 1
	note G_, 1
	note A_, 1
	note B_, 1
	octave 5
	note C_, 1
	note D_, 1
	note E_, 1
	vibrato $04, $24
	notetype $D, $12
	note C_, 12
	notetype $6, $12
	note C#, 1
	note D_, 1
	note D#, 1
	note E_, 1
	note F_, 1
	note F#, 1
	note G_, 16
	note C_, 16
	notetype $C, $12
	note D_, 16
	intensity $22
	note D_, 8
	intensity $12
	note D_, 4
	note D_, 2
	note C#, 2
	note C_, 14
	notetype $6, $12
	note F_, 1
	note F#, 1
	note G_, 1
	note G#, 1
	note A_, 16
	note B_, 12
	note A#, 4
	notetype $C, $12
	note A_, 12
	intensity $22
	note A_, 4
	dutycycle 6
	intensity $16
	vibrato $00, $00
	octave 6
	note C_, 4
	note D_, 2
	note C_, 2
	octave 5
	note B_, 2
	note A_, 2
	note G_, 2
	note A_, 2
	dutycycle 5
	intensity $15
	octave 4
	note B_, 2
	note A_, 2
	note B_, 12
	intensity $25
	note B_, 8
	intensity $15
	note B_, 4
	intensity $25
	note B_, 4
	intensity $15
	octave 5
	note C_, 12
	intensity $25
	note C_, 4
	intensity $15
	note C_, 4
	note D_, 2
	note C_, 4
	octave 4
	note B_, 2
	note A_, 2
	note B_, 2
	octave 5
	note C#, 1
	octave 4
	note B_, 1
	octave 5
	note C#, 14
	intensity $25
	note C#, 8
	intensity $15
	note C#, 4
	intensity $25
	note C#, 4
	intensity $15
	note D_, 12
	intensity $25
	note D_, 4
	intensity $15
	note F#, 8
	note A_, 4
	intensity $25
	note A_, 4
	dutycycle 6
	intensity $16
	octave 2
	note G_, 4
	note D_, 4
	note E_, 2
	octave 3
	note C_, 2
	octave 2
	note E_, 2
	octave 3
	note C_, 2
	octave 2
	note E_, 2
	octave 3
	note C_, 2
	octave 2
	note E_, 2
	octave 3
	note C_, 2
	octave 2
	note E_, 2
	octave 3
	note C_, 2
	octave 2
	note A#, 2
	octave 3
	note C_, 2
	octave 2
	note E_, 2
	octave 3
	note C_, 2
	note D#, 2
	note C_, 2
	octave 2
	note G_, 4
	note D_, 4
	note D#, 2
	note A#, 2
	note D#, 2
	note A#, 2
	note D#, 2
	note A#, 2
	note D#, 2
	note A#, 2
	note D#, 2
	note A#, 2
	note D#, 2
	note A#, 2
	octave 3
	note D#, 2
	octave 2
	note A#, 2
	note D#, 2
	note A#, 2
	note E_, 2
	note A_, 2
	note E_, 2
	note A_, 2
	note E_, 2
	note A_, 2
	note E_, 2
	note A_, 2
	note E_, 2
	note A_, 2
	octave 3
	note E_, 2
	octave 2
	note A_, 2
	note E_, 2
	octave 3
	note E_, 2
	note D#, 2
	octave 2
	note G_, 2
	note F_, 2
	note D_, 2
	note A_, 2
	note F_, 2
	note D_, 2
	note A_, 2
	note F_, 2
	note D_, 2
	note A_, 2
	note F_, 2
	note D_, 2
	note A_, 2
	note F_, 1
	note E_, 1
	note D_, 2
	note F_, 1
	note E_, 1
	note A_, 1
	note G#, 1
	note G_, 2
	note D#, 2
	note A#, 2
	note G_, 2
	note D#, 2
	note A#, 2
	note G_, 2
	note D#, 2
	note A#, 2
	note G_, 2
	note D#, 2
	note A#, 2
	note G_, 1
	note F_, 1
	note D#, 2
	note G_, 1
	note D_, 1
	note A#, 1
	note G#, 1
	note F_, 2
	note D_, 2
	note A_, 2
	note F_, 2
	note D_, 2
	note A_, 2
	note F_, 2
	note D_, 2
	note A_, 2
	note F_, 2
	note D_, 2
	note A_, 2
	note F_, 1
	note E_, 1
	note D_, 2
	note F_, 1
	note E_, 1
	note A_, 1
	note G#, 1
	note G_, 2
	note D#, 2
	note A#, 2
	note G_, 2
	note D#, 2
	note A#, 2
	note G_, 2
	note D#, 2
	note A#, 2
	note G_, 2
	note D#, 2
	note A#, 2
	note G_, 1
	note F_, 1
	note D#, 2
	note F_, 1
	note G_, 1
	note A#, 1
	octave 3
	note D_, 1
	octave 2
	note D#, 4
	note A#, 4
	note D#, 4
	note A#, 4
	note D#, 4
	note A_, 4
	note D#, 4
	note A_, 4
	note D#, 4
	note G_, 4
	note D#, 4
	note G_, 4
	note D#, 4
	note A_, 4
	note D#, 4
	note A#, 4
	note D#, 4
	note A#, 4
	note D#, 4
	note A#, 4
	note D#, 4
	note A_, 4
	note D#, 4
	note A_, 4
	note D#, 4
	note G_, 4
	note D#, 4
	note G_, 4
	note D#, 4
	note A_, 4
	note D#, 4
	note A_, 4
	dutycycle 4
	intensity $14
	note D_, 2
	note A_, 2
	note A_, 2
	note D_, 2
	note A_, 2
	note A_, 2
	note D_, 1
	note A_, 1
	note D_, 1
	note A_, 1
	note A_, 2
	note D_, 2
	note A_, 2
	note A_, 2
	note D_, 2
	note A_, 2
	note A_, 2
	note E_, 2
	note D_, 2
	note A_, 2
	note A_, 2
	note D_, 2
	note A_, 2
	note A_, 2
	note D_, 2
	note A_, 2
	note D_, 2
	note A_, 2
	note A_, 2
	note D_, 2
	note A_, 2
	note A_, 2
	note D_, 1
	note A_, 1
	note D_, 1
	note A_, 1
	dutycycle 8
	octave 4
	notetype $6, $18
	note D_, 1
	note __, 1
	note D_, 1
	note __, 1
	note D_, 1
	note __, 1
	note D_, 1
	note __, 1
	note E_, 8
	note C_, 4
	note D_, 12
	intensity $28
	note D_, 8
	intensity $18
	note E_, 4
	note F#, 4
	note A_, 4
	note G_, 4
	note F#, 4
	note E_, 4
	note D#, 14
	note __, 2
	note D#, 1
	note __, 1
	note D#, 1
	note __, 1
	note D#, 1
	note __, 1
	note D#, 1
	note __, 1
	note D#, 8
	intensity $28
	note D#, 4
	intensity $18
	octave 3
	note D#, 4
	note F_, 4
	note A#, 4
	note A_, 4
	note G_, 4
	note F_, 4
	note D#, 4
	octave 4
	note E_, 8
	intensity $28
	note E_, 4
	intensity $18
	note E_, 1
	note __, 1
	note E_, 1
	note __, 1
	note E_, 12
	intensity $28
	note E_, 8
	intensity $18
	note E_, 4
	note F#, 4
	octave 5
	note C_, 4
	octave 4
	note B_, 4
	note A_, 4
	note G_, 4
	note E_, 4
	notetype $C, $18
	note F_, 12
	intensity $28
	note F_, 4
	intensity $18
	note A_, 4
	intensity $28
	note A_, 4
	intensity $18
	octave 5
	note C_, 4
	intensity $28
	note C_, 4
	intensity $18
	octave 4
	note E_, 4
	notetype $6, $18
	note D#, 1
	note D_, 1
	note C#, 1
	note C_, 1
	octave 3
	note B_, 16
	intensity $28
	note B_, 12
	intensity $18
	octave 4
	note E_, 4
	note D#, 1
	note D_, 1
	note C#, 1
	note C_, 1
	octave 3
	note B_, 8
	octave 4
	note E_, 4
	notetype $C, $18
	note F_, 16
	intensity $28
	note F_, 8
	intensity $18
	note F_, 4
	intensity $28
	note F_, 6
	jumpchannel Music_SeviiTrainerBattle_Ch3_loop

Music_SeviiTrainerBattle_Ch4:
	togglenoise 3
	notetype $C
	note D#, 1
	note __, 2
	note D#, 1
	note D#, 1
	note __, 3
	note D#, 1
	note __, 2
	note D#, 1
	note D#, 1
	note __, 3
	note D#, 1
	note __, 1
	note C_, 1
	note __, 1
	note D#, 1
	note __, 1
	note C_, 1
	note __, 1
	note D#, 1
	note C#, 1
	note C_, 1
	note C#, 1
	note D#, 1
	note C#, 1
	note C_, 1
	note C#, 1
	note D#, 2
	note C#, 2
	note D#, 2
	note C#, 2
	note D#, 2
	note C#, 2
	note D#, 2
	note C#, 2
	note D#, 2
	note C#, 2
	note D#, 2
	note C#, 2
	note D#, 2
	note C#, 2
	note D#, 2
	note C#, 2
	note D#, 2
	note C#, 2
	note D#, 2
	note C#, 2
	note D#, 2
	note C#, 2
	note D#, 2
	note C#, 2
	note D#, 2
	note C#, 2
	note D#, 2
	note C#, 2
	note D#, 2
	note C#, 2
	note D#, 2
	note C#, 2
	note D#, 2
	note C#, 2
	note D#, 2
	note C#, 2
	note D#, 2
	note C#, 2
	note D#, 2
	note C#, 2
	note D#, 2
	note C#, 2
	note D#, 2
	note C#, 2
	note D#, 2
	note C#, 2
	note D#, 2
	note C#, 2
	note E_, 1
	note __, 1
	note E_, 1
	note E_, 1
	note E_, 1
	note E_, 1
	note E_, 1
	note __, 1
	note E_, 1
	note E_, 1
	note E_, 1
	note __, 1
	note E_, 1
	note __, 1
	note E_, 1
	note __, 1
	note D_, 1
	note C#, 1
	note C_, 1
	note C#, 1
	note D_, 1
	note C#, 1
	note C_, 1
	note C#, 1
	note D_, 1
	note C#, 1
	note C_, 1
	note C#, 1
	note D_, 1
	note C#, 1
	note D#, 1
	note C_, 1
Music_SeviiTrainerBattle_Ch4_loop:
	note B_, 2
	note C#, 1
	note __, 1
	note C_, 1
	note __, 1
	note C#, 1
	note C#, 1
	note C#, 1
	note __, 1
	note C#, 1
	note __, 1
	note C_, 1
	note __, 1
	note C#, 1
	note __, 1
	note C#, 1
	note __, 1
	note C#, 1
	note __, 1
	note C_, 1
	note __, 1
	note C#, 1
	note C#, 1
	note C#, 1
	note __, 1
	note C#, 1
	note __, 1
	note C_, 1
	note __, 1
	note C#, 1
	note __, 1
	note C#, 1
	note __, 1
	note C#, 1
	note __, 1
	note C_, 1
	note __, 1
	note C#, 1
	note C#, 1
	note C#, 1
	note __, 1
	note C#, 1
	note __, 1
	note C_, 1
	note __, 1
	note C#, 1
	note __, 1
	note C#, 1
	note __, 1
	note C#, 1
	note __, 1
	note C_, 1
	note __, 1
	note C#, 1
	note __, 1
	note C#, 1
	note __, 1
	note C_, 1
	note C_, 1
	note C#, 1
	note __, 1
	note C_, 1
	note __, 1
	note C#, 1
	note __, 1
	note C#, 1
	note __, 1
	note C_, 1
	note __, 1
	note C#, 1
	note C#, 1
	note C#, 1
	note __, 1
	note C#, 1
	note __, 1
	note C_, 1
	note __, 1
	note C#, 1
	note __, 1
	note C#, 1
	note __, 1
	note C#, 1
	note __, 1
	note C_, 1
	note __, 1
	note C#, 1
	note C#, 1
	note C#, 1
	note __, 1
	note C#, 1
	note __, 1
	note C_, 1
	note __, 1
	note C#, 1
	note __, 1
	note C#, 1
	note __, 1
	note C#, 1
	note __, 1
	note C_, 1
	note __, 1
	note C#, 1
	note C#, 1
	note C#, 1
	note __, 1
	note C#, 1
	note __, 1
	note C_, 1
	note __, 1
	note C#, 1
	note __, 1
	note C#, 1
	note __, 1
	note C#, 1
	note __, 1
	note C_, 1
	note __, 1
	note C#, 1
	note __, 1
	note C#, 1
	note __, 1
	note C_, 1
	note C_, 1
	note C#, 1
	note __, 1
	note C_, 1
	note __, 1
	note C#, 1
	note __, 1
	note C#, 1
	note __, 1
	note C#, 1
	note __, 1
	note C#, 1
	note __, 1
	note C#, 1
	note __, 1
	note C#, 1
	note __, 1
	note D_, 2
	note C_, 2
	note C#, 1
	note __, 1
	note C#, 1
	note __, 1
	note C#, 1
	note __, 1
	note C#, 1
	note __, 1
	note C#, 1
	note __, 1
	note C#, 1
	note __, 1
	note D_, 2
	note C_, 2
	note C#, 1
	note __, 1
	note C#, 1
	note __, 1
	note C#, 1
	note __, 1
	note C#, 1
	note __, 1
	note C#, 1
	note __, 1
	note C#, 1
	note __, 1
	note D_, 2
	note C_, 2
	note C#, 1
	note __, 1
	note C#, 1
	note __, 1
	note C#, 1
	note __, 1
	note C#, 1
	note __, 1
	note C#, 1
	note __, 1
	note C#, 1
	note __, 1
	note D_, 2
	note C_, 2
	note C#, 1
	note __, 1
	note C#, 1
	note __, 1
	note C#, 1
	note __, 1
	note C#, 1
	note __, 1
	note C#, 1
	note __, 1
	note C#, 1
	note __, 1
	note D_, 2
	note C_, 2
	note C#, 1
	note __, 1
	note C#, 1
	note __, 1
	note C#, 1
	note __, 1
	note C#, 1
	note __, 1
	note C#, 1
	note __, 1
	note C#, 1
	note __, 1
	note D_, 2
	note C_, 2
	note C#, 1
	note __, 1
	note C#, 1
	note __, 1
	note C#, 1
	note __, 1
	note C#, 1
	note __, 1
	note C#, 1
	note __, 1
	note C#, 1
	note __, 1
	note D_, 2
	note C_, 2
	note C#, 1
	note __, 1
	note C#, 1
	note __, 1
	note D_, 2
	note C_, 2
	note C#, 1
	note __, 1
	note C#, 1
	note __, 1
	note D_, 2
	note C_, 2
	note E_, 1
	note __, 3
	note C_, 2
	note D_, 1
	note __, 1
	note E_, 1
	note __, 1
	note D#, 1
	note __, 1
	note C_, 2
	note __, 2
	note E_, 1
	note __, 1
	note E_, 1
	note __, 1
	note C_, 1
	note C#, 1
	note D_, 1
	note C_, 1
	note E_, 1
	note __, 1
	note E_, 1
	note __, 1
	note C_, 1
	note C#, 1
	note D_, 1
	note C_, 1
	note E_, 1
	note __, 3
	note C_, 2
	note __, 2
	note E_, 1
	note __, 1
	note D#, 1
	note __, 1
	note C_, 2
	note D_, 1
	note __, 1
	note E_, 1
	note __, 1
	note B_, 2
	note C_, 1
	note C#, 1
	note D_, 1
	note C_, 1
	note D#, 2
	note C_, 2
	note D#, 2
	note C_, 2
	note E_, 1
	note __, 3
	note C_, 2
	note D_, 1
	note __, 1
	note E_, 1
	note __, 1
	note D#, 1
	note __, 1
	note C_, 2
	note __, 2
	note E_, 1
	note __, 1
	note E_, 1
	note __, 1
	note C_, 1
	note C#, 1
	note D_, 1
	note C_, 1
	note E_, 1
	note __, 1
	note E_, 1
	note __, 1
	note C_, 1
	note C#, 1
	note D_, 1
	note C_, 1
	note E_, 1
	note __, 3
	note C_, 2
	note __, 2
	note E_, 1
	note __, 1
	note D#, 1
	note __, 1
	note C_, 2
	note D_, 1
	note __, 1
	note E_, 1
	note __, 1
	note B_, 2
	note C_, 1
	note C#, 1
	note D_, 1
	note C_, 1
	note D#, 2
	note C_, 2
	note D#, 2
	note C_, 2
	note D#, 2
	note C#, 2
	note D#, 2
	note C#, 2
	note C_, 2
	note C_, 2
	note D#, 2
	note C#, 2
	note D#, 2
	note C_, 2
	note D#, 2
	note C#, 2
	note C_, 2
	note C#, 2
	note C_, 2
	note C_, 2
	note C_, 4
	note D#, 4
	note D#, 2
	note C#, 2
	note D#, 2
	note C#, 2
	note D#, 2
	note C#, 2
	note D#, 2
	note C#, 2
	note D#, 2
	note C_, 2
	note D#, 2
	note C#, 2
	note D#, 2
	note C#, 2
	note C_, 2
	note C_, 2
	note D#, 2
	note C#, 2
	note D#, 2
	note C#, 2
	note D#, 2
	note C_, 2
	note D#, 2
	note C#, 2
	note D#, 2
	note C#, 2
	note D#, 2
	note C_, 2
	note D#, 2
	note C#, 2
	note D#, 2
	note C#, 2
	note D#, 2
	note C#, 2
	note C_, 2
	note C#, 2
	note D#, 2
	note C#, 1
	note C#, 1
	note D#, 2
	note C#, 1
	note C#, 1
	note D#, 2
	note C#, 1
	note C#, 1
	note D#, 2
	note C#, 1
	note C#, 1
	note D#, 2
	note C#, 1
	note C#, 1
	note D#, 2
	note C#, 1
	note C#, 1
	note D#, 2
	note C#, 1
	note C#, 1
	note D#, 2
	note C#, 1
	note C#, 1
	note D#, 2
	note C#, 1
	note C#, 1
	note D#, 2
	note C#, 1
	note C#, 1
	note D#, 2
	note C#, 1
	note C#, 1
	note D#, 2
	note C#, 1
	note C#, 1
	note D#, 2
	note C#, 1
	note C#, 1
	note D#, 2
	note C#, 1
	note C#, 1
	note D#, 2
	note C#, 1
	note C#, 1
	note D#, 2
	note C#, 1
	note C#, 1
	note D#, 2
	note C#, 1
	note C#, 1
	note D#, 2
	note C#, 1
	note C#, 1
	note D#, 2
	note C#, 1
	note C#, 1
	note D#, 2
	note C#, 1
	note C#, 1
	note D#, 2
	note C#, 1
	note C#, 1
	note D#, 2
	note C#, 1
	note C#, 1
	note D#, 2
	note C#, 1
	note C#, 1
	note D#, 2
	note C#, 1
	note C#, 1
	note D#, 2
	note C#, 1
	note C#, 1
	note D#, 2
	note C#, 1
	note C#, 1
	note D#, 2
	note C#, 1
	note C#, 1
	note D#, 2
	note C#, 1
	note C#, 1
	note D#, 2
	note C#, 1
	note C#, 1
	note D#, 2
	note C#, 1
	note C#, 1
	note D#, 2
	note C#, 1
	note C#, 1
	note D#, 2
	note C#, 1
	note C#, 1
	note B_, 4
	note C#, 4
	note D_, 4
	note C_, 4
	note B_, 4
	note C#, 4
	note D_, 4
	note C_, 4
	note B_, 4
	note C#, 4
	note D_, 4
	note C_, 4
	note B_, 4
	note C#, 4
	note D_, 4
	note C_, 4
	note D_, 2
	note C#, 2
	note D_, 2
	note C#, 2
	note D_, 2
	note C#, 2
	note D_, 2
	note C#, 2
	note D_, 2
	note C#, 2
	note D_, 2
	note C#, 2
	note D_, 2
	note C#, 2
	note D_, 2
	note C#, 2
	note D_, 2
	note C#, 2
	note D_, 2
	note C#, 2
	note D_, 2
	note C#, 2
	note D_, 2
	note C#, 2
	note D_, 2
	note C#, 2
	note D_, 2
	note C#, 2
	note C_, 2
	note C_, 2
	note D_, 2
	note C#, 2
	note E_, 1
	note __, 1
	note E_, 1
	note E_, 1
	note E_, 1
	note __, 1
	note E_, 1
	note __, 1
	note D#, 1
	note E_, 1
	note E_, 1
	note __, 1
	note C_, 1
	note __, 1
	note D_, 1
	note __, 1
	note E_, 1
	note __, 1
	note E_, 1
	note E_, 1
	note E_, 1
	note __, 1
	note E_, 1
	note __, 1
	note D#, 1
	note E_, 1
	note E_, 1
	note __, 1
	note C_, 1
	note __, 1
	note D_, 1
	note __, 1
	note E_, 1
	note __, 1
	note E_, 1
	note E_, 1
	note E_, 1
	note __, 1
	note E_, 1
	note __, 1
	note D#, 1
	note E_, 1
	note E_, 1
	note __, 1
	note C_, 1
	note __, 1
	note D_, 1
	note __, 1
	note E_, 1
	note __, 1
	note E_, 1
	note E_, 1
	note E_, 1
	note __, 1
	note E_, 1
	note __, 1
	note D#, 1
	note E_, 1
	note E_, 1
	note __, 1
	note C_, 1
	note __, 1
	note D_, 1
	note __, 1
	note D#, 1
	note __, 1
	note D_, 1
	note D_, 1
	note D#, 1
	note __, 1
	note D_, 1
	note D_, 1
	note D#, 1
	note __, 1
	note D_, 1
	note D_, 1
	note D#, 1
	note __, 1
	note D_, 1
	note D_, 1
	note D#, 1
	note __, 1
	note D_, 1
	note D_, 1
	note D#, 1
	note __, 1
	note D_, 1
	note D_, 1
	note D#, 1
	note __, 1
	note D_, 1
	note D_, 1
	note D#, 1
	note __, 1
	note D_, 2
	note D#, 1
	note __, 1
	note D_, 1
	note D_, 1
	note D#, 1
	note __, 1
	note D_, 1
	note D_, 1
	note D#, 1
	note __, 1
	note D_, 1
	note D_, 1
	note D#, 1
	note __, 1
	note D_, 1
	note D_, 1
	note D#, 1
	note __, 1
	note D_, 1
	note D_, 1
	note D#, 1
	note __, 1
	note D_, 1
	note D_, 1
	note D#, 1
	note __, 1
	note D_, 1
	note D_, 1
	note D#, 1
	note __, 1
	note D_, 2
	note D#, 1
	note __, 1
	note D_, 1
	note D_, 1
	note D#, 1
	note __, 1
	note D_, 1
	note D_, 1
	note D#, 1
	note __, 1
	note D_, 1
	note D_, 1
	note D#, 1
	note __, 1
	note D_, 1
	note D_, 1
	note D#, 1
	note __, 1
	note D_, 1
	note D_, 1
	note D#, 1
	note __, 1
	note D_, 1
	note D_, 1
	note D#, 1
	note __, 1
	note D_, 1
	note D_, 1
	note D#, 1
	note __, 1
	note D_, 2
	note D#, 1
	note __, 1
	note D_, 1
	note D_, 1
	note D#, 1
	note __, 1
	note D_, 1
	note D_, 1
	note D#, 1
	note __, 1
	note D_, 1
	note D_, 1
	note D#, 1
	note __, 1
	note D_, 1
	note D_, 1
	note D#, 1
	note __, 1
	note D_, 1
	note D_, 1
	note D#, 1
	note __, 1
	note D_, 1
	note D_, 1
	note D#, 1
	note __, 1
	note D_, 1
	note D_, 1
	note D#, 1
	note __, 1
	note D_, 2
	jumpchannel Music_SeviiTrainerBattle_Ch4_loop
