Music_EverGrandeCity:
	channelcount 4
	channel 1, Music_EverGrandeCity_Ch1
	channel 2, Music_EverGrandeCity_Ch2
	channel 3, Music_EverGrandeCity_Ch3
	channel 4, Music_EverGrandeCity_Ch4

Music_EverGrandeCity_Ch1:
	tempo 100
	volume $77
	stereopanning $f
	vibrato $12, $25
	dutycycle $2
	notetype $c, $74
	octave 3
	note F_, 1
	note G_, 1
	intensity $84
	note A_, 1
	intensity $94
	note A#, 1
	octave 4
	intensity $a4
	note C_, 1
	intensity $b4
	note C#, 1
	intensity $c0
	note D_, 16
	intensity $c7
	note D_, 16
	note __, 2
	note C_, 6
	octave 3
	note A#, 2
	note G_, 2
	note A#, 2
	note D#, 2
	intensity $c0
	note A_, 6
	intensity $c7
	note A_, 6
	intensity $c0
	note A#, 6
	intensity $c7
	note A#, 6
	intensity $c0
	note B_, 6
	intensity $c7
	note B_, 6
	octave 4
	intensity $c0
	note C_, 6
	intensity $c7
	note C_, 6
.loop
	octave 4
	callchannel .sub
	octave 3
	note A#, 6
	note A_, 1
	note __, 1
	note A#, 4
	note B_, 1
	note __, 1
	octave 4
	note C_, 16
	octave 3
	note A#, 4
	note __, 4
	note A#, 4
	note A_, 1
	note __, 1
	note A#, 2
	note __, 2
	octave 4
	note C_, 14
	callchannel .sub
	note A#, 6
	note G_, 1
	note __, 1
	note F_, 4
	note D_, 1
	note __, 1
	octave 3
	note A#, 16
	octave 4
	note C_, 4
	octave 3
	note __, 4
	note A#, 4
	note G#, 1
	note __, 1
	note F#, 2
	note __, 2
	note F_, 8
	intensity $74
	note G_, 1
	note A_, 1
	intensity $84
	note A#, 1
	intensity $94
	octave 4
	note C_, 1
	intensity $a4
	note D_, 1
	intensity $b4
	note D#, 1
	intensity $c7
	note F_, 14
	note __, 2
	note D#, 1
	note __, 5
	note C#, 1
	note __, 1
	note D#, 4
	note F_, 1
	note D#, 1
	note C#, 6
	note C_, 6
	note C#, 6
	note D#, 4
	octave 3
	note G#, 1
	note __, 5
	octave 4
	note G#, 14
	intensity $94
	note G#, 2
	note A#, 1
	note __, 1
	note F_, 1
	note __, 1
	note F#, 2
	note G#, 1
	note __, 1
	note D#, 1
	note __, 1
	note F_, 2
	note F#, 1
	note __, 1
	note C#, 1
	note __, 1
	octave 3
	note G#, 2
	intensity $a4
	note A#, 1
	note __, 1
	intensity $b4
	octave 4
	note C#, 1
	note __, 1
	intensity $c7
	note F_, 16
	note F#, 1
	note __, 5
	note F_, 1
	note __, 1
	note F#, 6
	note F_, 6
	note F#, 4
	note F_, 1
	note __, 1
	note F#, 4
	note G#, 1
	note __, 1
	note F_, 4
	note D#, 1
	note __, 5
	note C#, 1
	note D#, 1
	note F_, 12
	octave 3
	note G#, 6
	note A#, 6
	octave 4
	note C#, 6
	note D#, 6
	note F_, 16
	note D#, 6
	note C#, 1
	note __, 1
	note D#, 4
	note F_, 1
	note D#, 1
	note C#, 2
	note __, 4
	note C_, 6
	note C#, 6
	note G#, 14
	note __, 2
	note F#, 1
	note __, 5
	note F_, 1
	note __, 1
	note F#, 4
	note G#, 1
	note F#, 1
	note F_, 6
	note F#, 6
	note G#, 6
	note A#, 16
	note __, 2
	note F#, 1
	note __, 1
	note G#, 1
	note __, 1
	note F#, 1
	note __, 1
	note F_, 4
	note D#, 1
	note __, 5
	note C#, 2
	note __, 4
	note C_, 1
	note __, 1
	note C#, 3
	note D#, 1
	note F_, 1
	note F#, 1
	intensity $c0
	note G#, 12
	note G#, 12
	intensity $c7
	note G#, 16
	note __, 8
	jumpchannel .loop

.sub
	note D_, 4
	note D#, 2
	note F_, 1
	note __, 3
	note F_, 6
	note D#, 2
	note D_, 1
	note __, 3
	note C_, 16
	note __, 10
	note D_, 4
	note D#, 2
	note F_, 1
	note __, 3
	note A#, 6
	note F_, 1
	note __, 1
	note D#, 1
	note __, 3
	note D_, 1
	note __, 1
	note C_, 4
	note D_, 1
	note C_, 1
	octave 3
	note B_, 6
	octave 4
	note C_, 6
	note D_, 6
	octave 3
	note A#, 12
	octave 4
	note C_, 6
	note D#, 6
	note D_, 6
	note F_, 1
	note __, 3
	endchannel

Music_EverGrandeCity_Ch2:
	vibrato $12, $25
	dutycycle $3
	stereopanning $f0
	tone $0002
	notetype $c, $63
	octave 2
	note G_, 1
	note A#, 1
	octave 3
	intensity $73
	note C_, 1
	note D_, 1
	intensity $83
	note D#, 1
	note F_, 1
	intensity $93
.repeat1
	note G_, 2
	note A#, 2
	loopchannel 6, .repeat1
.repeat2
	note A#, 2
	note G_, 2
	loopchannel 4, .repeat2
	note G_, 2
	note D#, 2
	note F_, 2
.repeat3
	note C_, 2
	intensity $97
	note D#, 4
	intensity $93
	loopchannel 3, .repeat3
	note C_, 2
	octave 2
	note A_, 2
	octave 3
	note C_, 2
	note D_, 2
	intensity $97
	note D#, 10
	note E_, 2
	octave 4
	intensity $94
	note D#, 2
	note E_, 2
	note F_, 2
	note F_, 2
	note E_, 2
	note D#, 2
.loop
	intensity $97
	octave 2
	dutycycle $3
	note A#, 6
	note F_, 6
	octave 3
	note D_, 6
	octave 2
	note A#, 4
	octave 3
	note C_, 8
	octave 2
	note A_, 6
	octave 3
	note D#, 6
	note C_, 4
	note C#, 2
	note D_, 6
	octave 2
	note A#, 6
	octave 3
	note F_, 4
	note E_, 1
	note D#, 1
	note D_, 6
	note D#, 4
	note C_, 1
	note __, 1
	note D_, 4
	octave 2
	note B_, 1
	note __, 1
	octave 3
	note C_, 4
	octave 2
	note G_, 1
	note __, 1
	octave 3
	note D_, 4
	octave 2
	note B_, 1
	note __, 1
	octave 3
	note D#, 6
	octave 2
	note A#, 6
	octave 3
	note F#, 6
	note D#, 6
	note D_, 6
	octave 2
	note A#, 1
	note __, 3
	octave 3
	note D_, 2
	note F_, 6
	note D_, 6
	note E_, 6
	note C_, 6
	octave 2
	note A#, 4
	octave 3
	note E_, 4
	note __, 2
	note E_, 1
	note __, 1
	note D#, 4
	note D#, 1
	note __, 1
	note D#, 1
	note __, 3
	note F_, 8
	note D#, 6
	octave 2
	note A#, 16
	note __, 4
	octave 3
	note D_, 1
	note __, 1
	octave 2
	note A#, 1
	note __, 1
	octave 3
	note C_, 6
	dutycycle $0
	intensity $b7
	octave 3
	note A_, 2
	note F_, 2
	note A_, 2
	octave 4
	note C_, 2
	octave 3
	note A_, 2
	octave 4
	note C_, 2
	note F_, 4
	note E_, 1
	note D#, 1
	intensity $b0
	note D_, 8
	intensity $b7
	note D_, 10
	dutycycle $3
	intensity $93
	octave 2
	note A#, 2
	octave 3
	note F_, 2
	note D_, 2
	dutycycle $0
	intensity $b7
	octave 4
	note D#, 6
	note D_, 6
	note C_, 6
	note D_, 6
	intensity $b0
	note D#, 6
	intensity $b7
	note D#, 6
	note C_, 6
	note C_, 1
	note __, 1
	note D_, 1
	note __, 1
	note D#, 1
	note __, 1
	note D_, 6
	note C_, 1
	note __, 3
	note D_, 6
	note F_, 1
	note __, 1
	note D#, 4
	octave 3
	note A#, 1
	note __, 7
	note G_, 6
	octave 4
	note C_, 4
	note G_, 6
	note C_, 2
	note F#, 4
	note F_, 1
	note E_, 1
	note D#, 6
	note F_, 4
	note D#, 1
	note D_, 1
	note C_, 6
	dutycycle $3
	intensity $a7
	octave 3
	note A#, 14
	note __, 2
	note G#, 1
	note __, 5
	note F#, 1
	note __, 1
	note G#, 4
	note A#, 1
	note G#, 1
	note F#, 6
	note F_, 6
	note F#, 6
	note G#, 4
	note C#, 1
	note __, 5
	octave 4
	note C_, 14
	octave 5
	dutycycle $2
	intensity $a4
	note G#, 6
	note F#, 6
	note F_, 6
	note D#, 6
	dutycycle $3
	octave 3
	intensity $a7
	note A#, 16
	note A#, 1
	note __, 5
	note A#, 1
	note __, 1
	note A#, 6
	note F#, 6
	note A_, 4
	note G#, 1
	note __, 1
	note A_, 4
	octave 4
	note C#, 1
	note __, 1
	octave 3
	note G#, 4
	note F#, 1
	note __, 5
	note F_, 1
	note F#, 1
	note G#, 12
	dutycycle $2
	octave 4
	intensity $a4
	note G#, 6
	note A#, 6
	octave 5
	note C#, 6
	note D#, 6
	intensity $a7
	note F_, 12
	note C#, 12
	note D#, 12
	note C_, 10
	note __, 2
	note G#, 12
	note F_, 12
	note F#, 12
	note D_, 12
	dutycycle $3
	octave 3
	note A#, 4
	note G#, 1
	note __, 5
	note F#, 8
	dutycycle $2
	octave 4
	note F#, 1
	note __, 1
	note A#, 1
	note __, 1
	octave 5
	note C#, 1
	note __, 1
	note F_, 12
	note C#, 12
	octave 6
	note C#, 12
	note C_, 12
	octave 5
	note A#, 12
	octave 6
	note C_, 12
	jumpchannel .loop

Music_EverGrandeCity_Ch3:
	stereopanning $ff
	vibrato $12, $15
	notetype $c, $14
	octave 2
	note __, 6
	callchannel .sub1
	note G_, 2
	octave 3
	note C_, 2
	octave 2
	callchannel .sub1
	note D_, 2
	note E_, 2
	callchannel .sub2
	octave 3
	note C_, 2
	note F_, 2
	octave 2
	callchannel .sub2
	note G_, 2
	note A_, 2
.loop
	octave 2
	callchannel .sub3
	note __, 2
	note A#, 2
	callchannel .sub4
	note __, 2
	callchannel .sub5
	callchannel .sub6
	note D#, 2
	note F_, 2
	note __, 2
	note F_, 2
	note F_, 2
	note G_, 2
	note A_, 2
	callchannel .sub3
	octave 3
	note A#, 2
	octave 2
	note A#, 2
	callchannel .sub4
	octave 3
	note F#, 2
	octave 2
	callchannel .sub5
	callchannel .sub6
	note E_, 2
	note F_, 2
	note __, 2
	note F_, 2
	note F_, 2
	octave 3
	note C_, 2
	note F_, 2
	octave 2
	callchannel .sub7
	note __, 2
	note F#, 2
	callchannel .sub7
	note G_, 2
	callchannel .sub5
	note __, 2
	note F_, 2
	callchannel .sub8
	note F#, 2
	note F_, 2
	callchannel .sub9
	note __, 2
	note D#, 2
	callchannel .sub9
	note D#, 2
	note D_, 2
	note C#, 2
	note __, 2
	note C#, 2
	note C#, 2
	octave 3
	note C#, 2
	octave 2
	note C#, 2
	note C#, 2
	note __, 2
	note C#, 2
	note C#, 2
	note C_, 2
	octave 1
	note A#, 2
	callchannel .sub10
	note G#, 3
	note __, 1
	note G#, 2
	octave 1
	note B_, 2
	octave 2
	note B_, 2
	octave 1
	note B_, 1
	note __, 1
	note B_, 2
	octave 2
	note F#, 2
	note B_, 2
	callchannel .sub7
	note G#, 2
	note A#, 2
	note B_, 2
	note __, 2
	note B_, 2
	note B_, 2
	octave 3
	note B_, 2
	octave 2
	note B_, 2
	note B_, 2
	note __, 2
	note B_, 2
	note B_, 2
	note A#, 2
	note G#, 2
	callchannel .sub8
	note F#, 2
	note G#, 2
	note A#, 2
	note __, 2
	note A#, 2
	note G#, 2
	note __, 2
	note G#, 2
	note F#, 2
	note __, 2
	note F#, 2
	note F_, 2
	note __, 2
	note F_, 2
	callchannel .sub9
	note F_, 2
	note F#, 2
	note B_, 2
	note __, 2
	note B_, 2
	note B_, 2
	octave 3
	note B_, 2
	octave 2
	note B_, 2
	note F#, 2
	note __, 2
	note F#, 2
	note F_, 2
	note F#, 2
	note G_, 2
	note G#, 2
	note __, 2
	note G#, 2
	note G#, 2
	octave 3
	note C#, 2
	note D#, 2
	octave 2
	note G#, 2
	note __, 2
	note G#, 2
	note G#, 2
	octave 3
	note G#, 2
	octave 2
	callchannel .sub11
	note G#, 2
	note __, 2
	callchannel .sub11
	note G#, 2
	note A#, 2
	octave 3
	note C_, 2
	jumpchannel .loop

.sub1
	note C_, 2
	note __, 2
	note C_, 2
	octave 3
	note C_, 2
	note __, 2
	octave 2
	note C_, 2
	note C_, 2
	note __, 2
	note C_, 2
	note C_, 2
	endchannel

.sub2
	note F_, 2
	octave 3
	note F_, 2
	octave 2
	note F_, 2
	octave 3
	note F_, 2
	note __, 2
	octave 2
	note F_, 2
	note F_, 2
	note __, 2
	note F_, 2
	note F_, 2
	endchannel

.sub3
	note A#, 2
	note __, 2
	note A#, 2
	note A#, 2
	octave 3
	note A#, 2
	octave 2
	note A#, 2
	note A#, 2
	note __, 2
	note A#, 2
	note A#, 2
	endchannel

.sub4
	note A_, 2
	note __, 2
	note A_, 2
	note A_, 2
	octave 3
	note A_, 2
	octave 2
	note A_, 2
	note A_, 2
	note __, 2
	note A_, 2
	note A_, 2
	note A#, 2
	note A_, 2
	note G#, 2
	note __, 2
	note G#, 2
	note G#, 2
	octave 3
	note G#, 2
	octave 2
	note G#, 2
	note G#, 2
	note __, 2
	note G#, 2
	note G#, 2
	note __, 2
	note G#, 2
	note G_, 2
	note __, 2
	note G_, 2
	note G_, 2
	octave 3
	note G_, 2
	octave 2
	note G_, 2
	note G_, 2
	note __, 2
	note G_, 2
	note G_, 2
	note G#, 2
	note G_, 2
.sub7
	note F#, 2
	note __, 2
	note F#, 2
	note F#, 2
	octave 3
	note F#, 2
	octave 2
	note F#, 2
	note F#, 2
	note __, 2
	note F#, 2
	note F#, 2
	endchannel

.sub5
	note F#, 2
.sub8
	note F_, 2
	note __, 2
	note F_, 2
	note F_, 2
	octave 3
	note F_, 2
	octave 2
	note F_, 2
	note F_, 2
	note __, 2
	note F_, 2
	note F_, 2
	endchannel

.sub6
	note __, 2
	note F_, 2
	note E_, 2
	note __, 2
	note E_, 2
	note E_, 2
	octave 3
	note E_, 2
	octave 2
	note E_, 2
	note E_, 2
	note __, 2
	note E_, 2
	note E_, 2
	note F_, 2
	note E_, 2
	note D#, 2
	note __, 2
	note D#, 2
	note D#, 2
	octave 3
	note D#, 2
	octave 2
	endchannel

.sub9
	note D#, 2
	note __, 2
	note D#, 2
	note D#, 2
	octave 3
	note D#, 2
	octave 2
	note D#, 2
	note D#, 2
	note __, 2
	note D#, 2
	note D#, 2
	endchannel

.sub11
	note G#, 2
	octave 1
.sub10
	note G#, 2
	octave 2
	note G#, 2
	octave 1
	note G#, 2
	octave 2
	endchannel

Music_EverGrandeCity_Ch4:
	togglenoise $3
	stereopanning $f
	notetype $c
	note __, 6
.loop
	note G#, 4
	note G#, 2
	note D_, 4
	note G#, 2
	loopchannel 3, .loop
	note G#, 4
	note G#, 2
	note D_, 2
	note D_, 2
	note G#, 2
	jumpchannel .loop
